<?xml version="1.0" encoding="utf-8"?>
<!-- Generator: Adobe Illustrator 24.1.1, SVG Export Plug-In . SVG Version: 6.00 Build 0)  -->
<svg version="1.1" id="Capa_1" xmlns="http://www.w3.org/2000/svg" xmlns:xlink="http://www.w3.org/1999/xlink" x="0px" y="0px"
	 viewBox="0 0 1368.8 116.3" style="enable-background:new 0 0 1368.8 116.3;" xml:space="preserve">
<style type="text/css">
	.st0{fill:#000A5F;}
</style>
<g>
	<g id="Capa_2_1_">
		<g id="Capa_1-2">
			<g>
				<path class="st0" d="M78,94.1H37.1l-6.6,19.1H0L41.9,3.1h31.3l41.9,110.1H84.6L78,94.1z M70.4,72.3L57.6,35.6L44.7,72.3H70.4z"
					/>
				<path class="st0" d="M188.1,31.3c-2.8-2.3-6-4.2-9.4-5.6c-2.9-1.2-6-1.8-9.1-1.8c-3.2-0.1-6.4,0.8-9.1,2.6
					c-2.2,1.6-3.6,4.1-3.5,6.9c-0.1,1.8,0.6,3.5,1.8,4.8c1.3,1.4,2.9,2.5,4.6,3.3c2.1,1,4.2,1.8,6.5,2.4c2.4,0.7,4.8,1.4,7.1,2.2
					c9.3,3.1,16.2,7.3,20.5,12.5c4.3,5.2,6.5,12,6.5,20.4c0.1,5.3-0.9,10.5-2.9,15.3c-1.9,4.5-4.7,8.5-8.4,11.8
					c-3.9,3.4-8.5,6-13.4,7.6c-5.8,1.9-11.9,2.8-18,2.7c-13.9,0-27.4-4.3-38.7-12.4L135,80.8c3.8,3.5,8.1,6.3,12.7,8.5
					c3.9,1.8,8.1,2.7,12.4,2.7c4.7,0,8.1-1.1,10.4-3.2c3.3-2.9,4.3-7.6,2.6-11.6c-0.7-1.3-1.7-2.5-2.9-3.4c-1.6-1.2-3.4-2.1-5.3-2.8
					c-2.2-0.9-4.9-1.8-8-2.9c-3.7-1.2-7.3-2.4-10.9-3.9c-3.4-1.3-6.7-3.2-9.5-5.6c-2.9-2.4-5.1-5.4-6.7-8.8
					c-1.7-3.6-2.6-8.1-2.6-13.5c-0.1-5.1,0.8-10.1,2.7-14.8c1.7-4.3,4.3-8.2,7.6-11.4c3.4-3.3,7.5-5.8,12-7.4
					c5.1-1.8,10.4-2.7,15.8-2.6c5.8,0,11.5,0.8,17.1,2.3c5.9,1.5,11.7,3.8,17.1,6.6L188.1,31.3z"/>
				<path class="st0" d="M284.7,27.3h-34v18.4h32.1V70h-32.2v19h34v24.3H222V3.1h62.7L284.7,27.3z"/>
				<path class="st0" d="M365.8,31.3c-2.8-2.3-6-4.2-9.4-5.6c-2.9-1.2-5.9-1.8-9-1.8c-3.2-0.1-6.4,0.8-9.1,2.6
					c-2.2,1.6-3.6,4.1-3.5,6.9c-0.1,1.8,0.6,3.5,1.8,4.8c1.3,1.4,2.9,2.5,4.6,3.3c2.1,1,4.2,1.8,6.4,2.4c2.4,0.7,4.8,1.4,7.1,2.2
					c9.3,3.1,16.2,7.3,20.5,12.5s6.5,12,6.5,20.4c0.1,5.3-0.9,10.5-2.8,15.3c-1.8,4.5-4.7,8.5-8.3,11.8c-3.9,3.4-8.5,6-13.4,7.6
					c-5.8,1.9-11.9,2.8-18,2.7c-13.9,0-27.4-4.3-38.7-12.4l12.3-23.1c3.8,3.5,8.1,6.3,12.7,8.5c3.9,1.8,8.1,2.7,12.4,2.7
					c4.7,0,8.1-1.1,10.5-3.2c2.1-1.8,3.4-4.5,3.4-7.3c0-1.5-0.3-3-0.9-4.3c-0.7-1.3-1.7-2.5-2.9-3.4c-1.6-1.2-3.4-2.1-5.3-2.8
					c-2.2-0.9-4.8-1.8-8-2.9c-3.7-1.2-7.3-2.4-10.9-3.9c-3.5-1.3-6.7-3.2-9.5-5.6c-2.8-2.4-5.1-5.4-6.7-8.8
					c-1.7-3.6-2.5-8.1-2.5-13.5c-0.1-5.1,0.8-10.1,2.7-14.8c1.7-4.3,4.3-8.2,7.6-11.4c3.4-3.3,7.5-5.8,12-7.4
					c5.1-1.8,10.4-2.7,15.8-2.6c5.8,0,11.5,0.8,17.1,2.3c5.9,1.5,11.7,3.8,17.1,6.6L365.8,31.3z"/>
				<path class="st0" d="M394.7,58.1C394.4,34.4,408.9,13,431,4.5c15.8-5.9,33.3-5.9,49.1,0c7.2,2.8,13.8,7,19.4,12.3
					c5.4,5.3,9.7,11.5,12.6,18.5c3.1,7.2,4.6,15,4.5,22.9c0.1,7.8-1.5,15.6-4.5,22.9c-2.9,6.9-7.2,13.2-12.6,18.5
					c-5.6,5.4-12.1,9.6-19.4,12.3c-15.8,5.9-33.3,5.9-49.1,0C408.9,103.2,394.4,81.8,394.7,58.1L394.7,58.1z M424.6,58.1
					c0,4.2,0.8,8.3,2.5,12.1c3.2,7.3,9.2,13.1,16.6,16c11.5,4.6,24.7,2.2,33.7-6.3c2.9-2.7,5.2-6,6.8-9.7c1.7-3.8,2.5-7.9,2.5-12.1
					c0-4.2-0.8-8.3-2.5-12.1c-1.6-3.6-3.9-6.9-6.8-9.7c-9.1-8.4-22.2-10.9-33.7-6.3c-7.4,2.9-13.4,8.7-16.6,16
					C425.5,49.8,424.6,54,424.6,58.1z"/>
				<path class="st0" d="M626.4,113.2h-35.7l-27.3-42.4v42.4h-28.6V3.1h44.6c5.5-0.1,10.9,0.8,16.1,2.7c8.4,3.1,15,9.8,18,18.2
					c1.5,4.2,2.3,8.7,2.3,13.1c0,8.4-2,15.2-6.1,20.4s-10,8.7-17.8,10.6L626.4,113.2z M563.4,52.3h5.4c5.7,0,10-1.2,13-3.5
					s4.5-5.7,4.5-10.1c0-4.4-1.5-7.7-4.5-10.1s-7.4-3.5-13-3.5h-5.4V52.3z"/>
				<path class="st0" d="M705.8,94.1H665l-6.6,19.1h-30.6L669.8,3.1H701l42,110.1h-30.6L705.8,94.1z M698.3,72.3l-12.9-36.7
					l-12.9,36.7H698.3z"/>
				<path class="st0" d="M750.5,113.2L769.3,3.1h28.3l22.1,58.7l21.9-58.7h28.3l18.7,110.1h-28.5l-9.5-63.4l-26,63.4h-11.4
					l-24.7-63.4l-9.5,63.4H750.5z"/>
				<path class="st0" d="M935.3,3.1v110.1h-28.6V3.1H935.3z"/>
				<path class="st0" d="M1021.1,27.3h-34v18.4h32.1V70H987v19h34v24.3h-62.6V3.1h62.7L1021.1,27.3z"/>
				<path class="st0" d="M1041.7,113.2V3.1h28.6l52.9,67.3V3.1h28.5v110.1h-28.5l-52.9-67.3v67.3H1041.7z"/>
				<path class="st0" d="M1216.5,27.3v85.9h-28.6V27.3h-23.5V3.1h75.7v24.3H1216.5z"/>
				<path class="st0" d="M1246.8,58.1c-0.3-23.7,14.2-45.1,36.3-53.7c15.8-5.9,33.3-5.9,49.2,0c7.2,2.8,13.8,7,19.4,12.3
					c5.4,5.3,9.7,11.5,12.6,18.5c3.1,7.2,4.6,15,4.5,22.9c0.1,7.8-1.5,15.6-4.5,22.9c-2.9,6.9-7.2,13.2-12.6,18.5
					c-5.6,5.4-12.1,9.6-19.4,12.3c-15.8,5.9-33.3,5.9-49.2,0C1261,103.2,1246.5,81.8,1246.8,58.1L1246.8,58.1z M1276.8,58.1
					c0,4.2,0.8,8.3,2.5,12.1c3.2,7.3,9.2,13.1,16.6,16c11.5,4.6,24.7,2.2,33.8-6.3c2.9-2.7,5.2-6,6.8-9.7c1.7-3.8,2.5-7.9,2.5-12.1
					c0-4.2-0.8-8.3-2.5-12.1c-1.6-3.6-3.9-6.9-6.8-9.7c-9.1-8.4-22.2-10.9-33.7-6.3c-3.7,1.5-7,3.6-9.9,6.3c-2.8,2.8-5.1,6-6.7,9.7
					C1277.5,49.8,1276.7,54,1276.8,58.1L1276.8,58.1z"/>
			</g>
		</g>
	</g>
</g>
</svg>
