<svg xmlns="http://www.w3.org/2000/svg" viewBox="0 0 537.46 520.03"><defs><style>.cls-1{fill:none;}.cls-2{fill:#4aa1c8;}.cls-3{fill:#00329c;}</style></defs><g id="Capa_2" data-name="Capa 2"><g id="Capa_1-2" data-name="Capa 1"><path class="cls-1" d="M460.32,289.67h.09c20.37,0,29.55-5.48,31.35-10.63,1.16-3.29-.49-6.92-4.64-10.23-5-4-17.82-9.53-30-14.28l-20.6,31.13C444.2,287.92,452.65,289.67,460.32,289.67Z"/><path class="cls-1" d="M421.15,334h.07c12.85,0,27.48-2.63,30.07-10,1.17-3.34-.66-7.25-5-10.74-3.79-3-11.95-6.89-21-10.64L406,331.78A63,63,0,0,0,421.15,334Z"/><path class="cls-1" d="M528.28,202.58c-6.18-2.6-19-5.47-31.6-7.89l-23.74,35.88c11.31,1.06,24.21,1.9,34.64,1.58,10.95-.33,23.57-7.55,25.71-19.05C534.21,208.15,532.39,204.32,528.28,202.58Z"/><path class="cls-2" d="M529.81,199c-6.23-2.63-18.53-5.44-30.78-7.83l24.66-37.27a36.65,36.65,0,0,0-12.2-51.93L385.16,28.83a34.31,34.31,0,0,0-4.35-2.13l-3.53-2a35,35,0,0,0-6.14-2.79,38.52,38.52,0,0,0-3.59-12.56c-2.73-5.55-6.36-9-9.7-9.27C341.17-1.24,315.52,29,285.78,63.88c-15.17,17.83-30.86,36.26-46.44,51.79-14.69,14.65-31,32.82-46.77,50.39-16.47,18.36-32,35.69-42.32,45-18.91,17.15-38.67,50.7-63.69,93.18l-5.12,8.68C54.7,358.26,1.86,442.68,1.33,443.53l0,.06c-3.43,5.94,0,14.84,9.93,25.73,9.29,10.19,23.23,20.91,39.27,30.17s32.29,16,45.77,18.93a61.69,61.69,0,0,0,13,1.61c7,0,11.8-1.9,14.11-5.65,18.06-18,27-24.85,38.36-29.1,3.82-1.44,7.15-2.57,10.36-3.67,14.11-4.81,25.25-8.62,60.75-32.13,21.34-14.14,38.72-32.18,49.48-44.74l26,15a35,35,0,0,0,46.73-11l48.66-73.54a69.94,69.94,0,0,0,17.48,2.65h.08c18.64,0,30.95-4.61,33.77-12.66,1.75-5-.54-10.52-6.29-15.11-4-3.17-12.18-7.11-21.21-10.9l6.7-10.12c8.29,2.48,17.57,4.47,26.12,4.48h.08c19.05,0,32.16-5,35.07-13.26,1.72-4.91-.43-10.23-5.9-14.59-5.29-4.23-18-9.79-30.26-14.58l11.18-16.89c10.28,1,22.14,1.86,32.43,1.86,1.63,0,3.23,0,4.77-.06,16.54-.51,27.52-11.85,29.46-22.26C538.42,207,535.68,201.44,529.81,199ZM382.3,359.16l-14,21.82a1.57,1.57,0,0,1-2.16.47l-.51-.32a1.58,1.58,0,0,1-.48-2.17l14-21.81a1.57,1.57,0,0,1,2.16-.48l.51.33A1.57,1.57,0,0,1,382.3,359.16ZM492.91,190.79l-.51-.33a1.57,1.57,0,0,1-.48-2.16l19-29.7a1.57,1.57,0,0,1,2.16-.47l.51.32a1.58,1.58,0,0,1,.48,2.17l-19,29.69A1.57,1.57,0,0,1,492.91,190.79Zm-24.66,38-.51-.33a1.57,1.57,0,0,1-.47-2.16l19-29.7a1.56,1.56,0,0,1,2.16-.47l.51.32a1.58,1.58,0,0,1,.48,2.17l-19,29.69A1.58,1.58,0,0,1,468.25,228.83ZM502.62,99.47a34.34,34.34,0,0,1,11.44,48.67L345.37,403.07a32.7,32.7,0,0,1-43.65,10.25l-119-68.86c.11-.63.21-1.26.32-1.89l119.56,69.2a30.94,30.94,0,0,0,41.26-9.69h0L512.56,147.15A32.55,32.55,0,0,0,501.72,101L375.4,27.91a31,31,0,0,0-41.26,9.7L192.49,251.69l-2.48.49L332.65,36.62A32.69,32.69,0,0,1,376.3,26.36Zm-225.84,202,.36.24.05-.08a.31.31,0,0,1,0-.25h0c.9-.22,1.81-.46,2.72-.7l-2,1.52.66.43.6-.49,1.12.73-.21.75.68.45.91-3.72-.17-.1q4-1.12,8-2.54l-.39.6,4.3,2.8,4.36-6.69q4.33-1.9,8.35-4.13A2.45,2.45,0,0,1,307,292a7,7,0,0,1-1.47,3.62L299.4,305l4.3,2.81,6.72-10.31c1.55-2.37,2.2-4.42,1.93-6.11a6.56,6.56,0,0,0-2.07-3.86,30.29,30.29,0,0,0,11-17L334.08,279l24.39-37.37L329.17,210l-25.93,39.73-.15,0-5.19-.51,22.8-34.94-6.19-6.69-26.58,40.71c-16.6-1.48-41.58-3.42-55.11-3.1a131.89,131.89,0,0,0-15,1.85L340.47,61.68a23.52,23.52,0,0,1,31.36-7.37l103.33,59.81a24.82,24.82,0,0,1,8.27,35.19l-138,208.52a23.51,23.51,0,0,1-31.36,7.37l-85.37-49.41A91.65,91.65,0,0,0,247.66,303C254.7,304.9,265.41,304.16,276.78,301.45Zm4.06-.67-.39,1.44-.77-.5ZM312.31,252l18.07-27.7,16.91,18.24-15.78,24.18-11.27-7.36A15.63,15.63,0,0,0,312.31,252Zm.8,114.9a25.47,25.47,0,0,0,34-8l138-208.52a26.8,26.8,0,0,0-8.92-38L372.82,52.62a25.49,25.49,0,0,0-34,8L215.19,247.45c-5.95,1-12.8,2.29-20,3.7L335.78,38.69a29,29,0,0,1,38.63-9.08l126.33,73.11a30.58,30.58,0,0,1,10.18,43.34L342.24,401a29,29,0,0,1-38.64,9.08L183.4,340.5q.93-6,1.52-12.29c16.47-2.15,30-5.83,41.67-11.38Zm-82.45,79.3c-35.07,23.24-46,27-59.85,31.69-3.24,1.11-6.59,2.25-10.47,3.71-12,4.5-21.3,11.55-39.93,30.18a2.1,2.1,0,0,0-.31.41c-2.38,4.12-11,5-23,2.39-13.09-2.86-28.95-9.43-44.64-18.49s-29.32-19.51-38.34-29.42c-8.27-9.07-11.8-16.95-9.44-21.09C6,443.51,58.26,360,84.82,314.94l5.12-8.69c24.85-42.19,44.48-75.52,62.95-92.26,10.44-9.46,26.06-26.87,42.61-45.31,15.73-17.53,32-35.65,46.62-50.23,15.68-15.64,31.42-34.14,46.65-52C316.61,33.73,342.89,2.84,357.55,4c1.49.12,4.16,2.39,6.48,7.1a34.65,34.65,0,0,1,3,9.7,34.59,34.59,0,0,0-36,14.78L187.3,252.72C159.64,258.3,130,265,127.94,265.47a2,2,0,0,0,.39,3.87,1.56,1.56,0,0,0,.48,0c.87-.2,87.57-19.81,104.1-20.21,14.79-.36,45.74,2.09,69.78,4.51,8.53.85,13.67,4.29,14.87,9.94,1.58,7.47-4.25,18.12-12.48,22.8-18.61,10.58-45.39,16.49-57.31,12.64a2,2,0,0,0-1.91.4c-15.6,13.94-35,21.68-63,25.13a2,2,0,0,0-1.72,1.78c-2,23.13-7.68,44.25-16.46,61.09-9.95,19.09-23.41,32.08-40,38.65l-.75.31a2,2,0,0,0,.7,3.8,1.89,1.89,0,0,0,.7-.13c17.87-6.82,32.29-20.56,42.85-40.82,6.36-12.21,11.14-26.6,14.11-42.33l96.57,55.88C268.25,415.06,251.35,432.5,230.66,446.2Zm215.6-133c4.37,3.49,6.2,7.4,5,10.74-2.59,7.4-17.22,10-30.07,10h-.07a63,63,0,0,1-15.18-2.2l19.33-29.21C434.31,306.32,442.47,310.19,446.26,313.21Zm40.86-44.4c4.15,3.31,5.8,6.94,4.64,10.23-1.8,5.15-11,10.63-31.35,10.63h-.09c-7.67,0-16.12-1.75-23.84-4l20.6-31.13C469.3,259.28,482.08,264.79,487.12,268.81Zm46.17-55.71c-2.14,11.5-14.76,18.72-25.71,19.05-10.43.32-23.33-.52-34.64-1.58l23.74-35.88c12.58,2.42,25.42,5.29,31.6,7.89C532.39,204.32,534.21,208.15,533.29,213.1Z"/><path class="cls-2" d="M223.72,355.11l29.12,17a6.84,6.84,0,0,0,9.1-2.07l1.61-2.39a6,6,0,0,0-2-8.58l-29.12-17a6.82,6.82,0,0,0-9.09,2.07l-1.62,2.39A6,6,0,0,0,223.72,355.11Z"/><path class="cls-2" d="M430.73,67.36a5.07,5.07,0,1,0,5.07,5.07A5.07,5.07,0,0,0,430.73,67.36Z"/><path class="cls-2" d="M387.58,43.7a3.22,3.22,0,1,0,3.22,3.22A3.22,3.22,0,0,0,387.58,43.7Z"/><path class="cls-2" d="M372.4,35.32a3.22,3.22,0,1,0,3.22,3.22A3.22,3.22,0,0,0,372.4,35.32Z"/><path class="cls-3" d="M513.61,158.45l-.51-.32a1.57,1.57,0,0,0-2.16.47l-19,29.7a1.57,1.57,0,0,0,.48,2.16l.51.33a1.57,1.57,0,0,0,2.16-.48l19-29.69A1.58,1.58,0,0,0,513.61,158.45Z"/><path class="cls-3" d="M470.42,228.35l19-29.69a1.58,1.58,0,0,0-.48-2.17l-.51-.32a1.56,1.56,0,0,0-2.16.47l-19,29.7a1.57,1.57,0,0,0,.47,2.16l.51.33A1.58,1.58,0,0,0,470.42,228.35Z"/><path class="cls-3" d="M381.31,356.67a1.57,1.57,0,0,0-2.16.48l-14,21.81a1.58,1.58,0,0,0,.48,2.17l.51.32a1.57,1.57,0,0,0,2.16-.47l14-21.82a1.57,1.57,0,0,0-.48-2.16Z"/><path class="cls-2" d="M380.24,172.25c1.53,1.17,6.28,2.33,8.56,1.12s3.69-2.74,3.79-3.23a5.32,5.32,0,0,0-.66-2.26c-.42-1.09-2.53-6.43-3-7.33s-.88-1.51-2.09-1.21-4.29.67-5.21.77-1.42-.24-1.85-1.34a28.85,28.85,0,0,1-2.74-9.5,31.45,31.45,0,0,1,.55-9.25c.25-1.18,1-1.23,1.77-1.26s1.59-.19,2.39-.28a7.2,7.2,0,0,0,1.95-.58,1.89,1.89,0,0,0,1.16-1.4c.16-.56,2.06-5.76,2.82-7.89s-.11-2.46-.57-2.87-.91-.95-1.42-1.42a3.88,3.88,0,0,0-2.94-.92,11.62,11.62,0,0,0-8.56,3.93c-3.46,3.78-4,10-4.1,10.83s-2.44,13.41,2.62,23.68S378.7,171.08,380.24,172.25Z"/><polygon class="cls-2" points="276.22 241.19 283.63 246.03 306.17 211.5 299.97 204.81 276.22 241.19"/><polygon class="cls-2" points="309.46 311.6 313.68 305.13 314.24 305.01 315.13 315.3 320.68 318.92 319.21 304.06 331.28 301.74 325.49 297.95 317.25 299.66 323.77 289.66 319.49 286.87 305.18 308.8 309.46 311.6"/><path class="cls-2" d="M323.77,308.81a11.26,11.26,0,0,0-1.93,7.92,9,9,0,0,0,4.15,6.33,8.79,8.79,0,0,0,6,1.24l-.92,1.42,4.29,2.8,11-16.9-4.3-2.81-1,1.57a8.47,8.47,0,0,0-3.58-5.22,8.83,8.83,0,0,0-7.37-1.18A10.94,10.94,0,0,0,323.77,308.81Zm11.92.73A4.8,4.8,0,0,1,338,313a7.13,7.13,0,0,1-4.76,7.29,4.83,4.83,0,0,1-4.11-.73,4.6,4.6,0,0,1-2.16-3.43,6.57,6.57,0,0,1,1.19-4.47,6.31,6.31,0,0,1,3.56-2.74A4.71,4.71,0,0,1,335.69,309.54Z"/><path class="cls-2" d="M285.67,306.45a2.46,2.46,0,0,0,.91-.86,2.7,2.7,0,0,0,.26-.54,1.67,1.67,0,0,0,.11-.63,1.14,1.14,0,0,0-.27-.71,1.73,1.73,0,0,0-.42-.37l-1.3-.85-2,3,1.3.85A1.3,1.3,0,0,0,285.67,306.45Zm-.44-3,.58.38a.72.72,0,0,1,.41.62,1.62,1.62,0,0,1-.31.8,1.88,1.88,0,0,1-.48.52.77.77,0,0,1-.91,0l-.58-.38Z"/><polygon class="cls-2" points="288.74 309.26 289.09 308.72 287.42 307.63 287.93 306.85 289.4 307.81 289.74 307.28 288.27 306.33 288.69 305.69 290.29 306.73 290.64 306.19 288.42 304.75 286.45 307.77 288.74 309.26"/><path class="cls-2" d="M292.14,310.59l1.11.73-.21.75.69.44.9-3.71-.72-.47-3,2.32.66.43Zm1.67-1.34-.39,1.44-.77-.51Z"/><polygon class="cls-2" points="296.67 314.43 297.02 313.89 295.51 312.9 297.13 310.43 296.5 310.02 294.53 313.04 296.67 314.43"/><path class="cls-2" d="M298.67,315.85a1.32,1.32,0,0,0,1.38.2,1.8,1.8,0,0,0,.64-.65l1.21-1.86-.64-.41L300.05,315a1.4,1.4,0,0,1-.37.41.6.6,0,0,1-.66-.07c-.26-.17-.37-.36-.33-.58a1.09,1.09,0,0,1,.22-.5l1.21-1.86-.64-.42-1.21,1.86a1.86,1.86,0,0,0-.34.85A1.33,1.33,0,0,0,298.67,315.85Z"/><path class="cls-2" d="M301.53,317.61l1.34-2c0-.06.09-.14.15-.25l.16-.25L302.1,318l.61.4,2.22-2.16-.16.24-.16.25-1.33,2,.59.38,2-3-.9-.59-2.1,2,1-2.73-.91-.6-2,3Z"/><rect class="cls-2" x="304.31" y="318.07" width="3.6" height="0.75" transform="translate(-127.87 400.75) rotate(-56.87)"/><polygon class="cls-2" points="310.27 319.01 308.9 321.11 309.07 318.23 308.41 317.79 306.44 320.81 307.03 321.19 308.43 319.05 308.26 322 308.89 322.41 310.86 319.39 310.27 319.01"/><rect class="cls-2" x="309.34" y="321.36" width="3.6" height="0.75" transform="translate(-128.34 406.46) rotate(-56.87)"/><path class="cls-2" d="M314.85,321.86a1.56,1.56,0,0,0-1.22-.29,2.29,2.29,0,0,0-1.62,2.49,1.84,1.84,0,0,0,2,1.29,2.31,2.31,0,0,0,1.63-2.49A1.61,1.61,0,0,0,314.85,321.86Zm-.23,2.13a1.44,1.44,0,0,1-.73.64.84.84,0,0,1-.78-.11.86.86,0,0,1-.42-.66,1.49,1.49,0,0,1,.3-.94,1.45,1.45,0,0,1,.73-.64.88.88,0,0,1,.78.12.83.83,0,0,1,.41.66A1.46,1.46,0,0,1,314.62,324Z"/><path class="cls-2" d="M386,189.35a44.69,44.69,0,0,0,9.43-1A38.63,38.63,0,0,0,421.18,170c11.19-19.39,2.92-45.21-18.44-57.54s-47.85-6.59-59.05,12.81-2.93,45.21,18.44,57.54A47.71,47.71,0,0,0,386,189.35Zm-40.78-63.19c6.87-11.92,19.81-18.43,33.63-18.43a46.17,46.17,0,0,1,23,6.26c20.52,11.85,28.5,36.59,17.79,55.14a36.8,36.8,0,0,1-24.6,17.49A45.08,45.08,0,0,1,363,181.3C342.48,169.45,334.5,144.71,345.22,126.16Z"/></g></g></svg>