<?xml version="1.0" encoding="utf-8"?>
<!-- Generator: Adobe Illustrator 24.1.1, SVG Export Plug-In . SVG Version: 6.00 Build 0)  -->
<svg version="1.1" id="Capa_1" xmlns="http://www.w3.org/2000/svg" xmlns:xlink="http://www.w3.org/1999/xlink" x="0px" y="0px"
	 viewBox="0 0 125.2 113.6" style="enable-background:new 0 0 125.2 113.6;" xml:space="preserve">
<style type="text/css">
	.st0{fill:#969695;}
</style>
<g>
	<g>
		<path class="st0" d="M62.9,18.1h16.2L92,40.5c0.1,0.1,0.1,0.2,0.1,0.4c0.1,0.5,0.2,1.9-0.6,3.1c-1,1.5-4.1,7-4.1,7H71.1l5.3-9.1
			c0,0,0.2-0.3-0.2-1L62.9,18.1z"/>
		<path class="st0" d="M84.5,55.8l-8.1,14H50.6c-0.1,0-0.2,0-0.4-0.1c-0.5-0.2-1.7-0.8-2.4-2.1c-0.8-1.7-4.1-7.1-4.1-7.1L52,46.5
			l5.3,9.1c0,0,0.1,0.4,0.9,0.3H84.5z"/>
		<path class="st0" d="M41,55.8l-8-14l13-22.4c0.1-0.1,0.2-0.2,0.2-0.3c0.4-0.3,1.6-1.1,3-1c1.8,0.2,8.2,0.1,8.2,0.1l8.1,14.1H55
			c0,0-0.4-0.1-0.8,0.6L41,55.8z"/>
	</g>
	<g>
		<path class="st0" d="M54.2,75.3h2.8l5.9,8.3l6-8.3h2.6l-7,9.8l7.2,10.1h-2.9L62.8,87L57,95.2h-3.1l7.2-10.1L54.2,75.3z"/>
		<g>
			<path class="st0" d="M52.5,85.4c0-0.1,0-0.2,0-0.2c0-0.8-0.1-1.5-0.2-2.2c-1-4.5-4.9-7.9-9.5-7.9S34,78.5,33.1,83
				c-0.2,0.7-0.2,1.4-0.2,2.2c0,0.1,0,0.2,0,0.2c0.2,5.5,4.6,9.8,9.9,9.8c4,0,7.5-2.4,9-5.9l-2.1-1.1c-1.1,2.7-3.9,4.7-6.9,4.7
				c-4,0-7.3-3.3-7.3-7.4C35.4,85.4,52.5,85.4,52.5,85.4z M35.7,83c0.9-3.2,3.8-5.5,7.1-5.5c3.3,0,6.1,2.3,7,5.5H35.7z"/>
		</g>
		<g>
			<path class="st0" d="M90.3,75.3v3.9c-1.7-2.3-4.5-3.8-7.6-3.8c-5.4,0-9.8,4.4-9.8,9.8c0,5.4,4.3,9.8,9.8,9.8
				c3.1,0,5.9-1.5,7.6-3.8v3.8h2V75.3H90.3z M82.9,92.9c-4.2,0-7.6-3.4-7.6-7.7c0-4.2,3.4-7.6,7.6-7.6c3.7,0,6.8,2.7,7.4,6.1v2.9
				C89.6,90.3,86.6,92.9,82.9,92.9z"/>
		</g>
	</g>
</g>
</svg>
