<?xml version="1.0" encoding="utf-8"?>
<!-- Generator: Adobe Illustrator 24.1.1, SVG Export Plug-In . SVG Version: 6.00 Build 0)  -->
<svg version="1.1" id="Capa_1" xmlns="http://www.w3.org/2000/svg" xmlns:xlink="http://www.w3.org/1999/xlink" x="0px" y="0px"
	 viewBox="0 0 125.2 113.6" style="enable-background:new 0 0 125.2 113.6;" xml:space="preserve">
<style type="text/css">
	.st0{fill:#969695;}
	.st1{font-family:'ArialMT';}
	.st2{font-size:4.5905px;}
</style>
<g>
	<text transform="matrix(1 0 0 1 37.4051 94.0213)" class="st0 st1 st2">vidriería argentina s.a</text>
	<g>
		<path class="st0" d="M34.4,28L34.4,28L34.4,28z"/>
		<path class="st0" d="M51.5,43.4l5.4-8.1l-0.1-0.1c-5.9-4.1-9.4-6.7-10.2-7.3c-1.7-1.3-3.8-1.1-3.8-1.1h-0.1h-9.8
			c0.1,0.1,0.2,0.1,0.2,0.2l0,0l0.6,0.3c0.1,0,0.2,0.1,0.2,0.1l1.7,1.1L51.5,43.4z"/>
		<path class="st0" d="M35.3,28.6L35.3,28.6L35.3,28.6z"/>
		<path class="st0" d="M32.2,28.2l-2-0.8l-2.7-0.5l-1.3-0.1h-0.8l19.1,24.7l0,0c2.3-0.6,3.5-2.6,3.5-2.6v-0.1l2.7-4.1l-16.2-15
			c-0.1-0.1-0.3-0.3-0.8-0.6l-0.5-0.3h-0.1L33,28.6h-0.1l-0.1-0.1h-0.1L32.2,28.2L32.2,28.2z"/>
		<polygon class="st0" points="68.5,52.5 68.5,52.5 68.5,52.5 		"/>
		<path class="st0" d="M49.1,50l-0.2,0.3c-0.1,0.1-0.1,0.2-0.2,0.3l-1.2,1.1l-0.1,0.1C47.2,52,47.1,52,47,52
			c-0.1,0.1-0.2,0.1-0.2,0.1l-1.2,0.6l-0.2,0.1l3.4,4.4c0,0.1,2.8,3.7,7.3,3.7c4.7,0,7.3-2.3,9-4.3c0.3-0.4,1.5-1.6,3.5-3.9h-0.1
			h-0.1c-0.1,0-0.2,0.1-0.2,0.1h-0.1c-0.1,0-0.2,0.1-0.2,0.1h-0.1c-0.1,0-0.1,0.1-0.2,0.1c-0.2,0-0.3,0.1-0.4,0.1h-0.1
			c-0.1,0-0.2,0.1-0.3,0.1l-1.7,0.2c-0.1,0-0.2,0-0.4,0h-0.1c-0.2,0-0.2,0-0.3,0H64c-0.1,0-0.1,0-0.3,0h-0.1c-0.1,0-0.2,0-0.4-0.1
			l-0.5-0.1c-0.1,0-0.1,0-0.2-0.1h-0.1c-0.1,0-0.2-0.1-0.4-0.1s-0.2-0.1-0.4-0.1l-0.5-0.1c-0.1,0-0.1-0.1-0.3-0.1h-0.1
			c-0.1-0.2-0.2-0.2-0.3-0.2h-0.1c-0.1,0-0.1-0.1-0.3-0.1l-0.1-0.1c-0.1,0-0.1-0.1-0.2-0.1l-0.1-0.1c-0.1-0.1-0.2-0.1-0.3-0.1
			c-0.1-0.1-0.2-0.1-0.4-0.2l-0.4-0.2c-0.1-0.1-0.1-0.1-0.2-0.1l-0.1-0.1c-0.1-0.1-0.2-0.1-0.3-0.2c-0.1-0.1-0.2-0.1-0.3-0.2
			l-0.5-0.3c-0.1-0.1-0.1-0.1-0.2-0.2l-0.1-0.1c-0.1-0.1-0.2-0.1-0.3-0.2L56,49.4c-0.1-0.1-0.2-0.2-0.3-0.3l-3.9-3.3l-2.5,3.9
			L49.1,50z"/>
		<path class="st0" d="M68.1,51.3l0.5-0.2c0.2-0.1,0.3-0.1,0.5-0.3c0.4-0.2,0.8-0.4,1.2-0.8l1-0.7l0.6-0.5l2-1.8l3.8-4.1l0,0
			L77.6,43c-0.1,0.1-0.2,0.1-0.3,0.1h-0.1l-0.4,0.2l-1.6,0.5c-0.1,0-0.2,0-0.2,0.1l-0.7,0c-0.1,0-0.2,0-0.2,0h-0.1
			c-0.1,0-0.2,0-0.3,0h-0.2c-0.1,0-0.3,0-0.4,0c-4.3,0-8.3-3-8.5-3.2l0,0c-0.1-0.1-0.6-0.4-1.6-1.1l-4.8-3.4l-5.5,8.3l3.9,3.6
			c3.5,3.1,6.8,4.2,10.9,3.4l0.4-0.1L68.1,51.3z"/>
		<path class="st0" d="M99.7,18.5H72.2c-0.1,0-2.2-0.2-3.7,2c-1.5,2.3-7.5,11.4-9.5,14.5l6.5,4.7c0.1,0.1,3,2.2,6.2,2.7
			c0.4,0.1,1,0.2,1.3,0.2c3.9,0,7.9-3.3,9.5-5C89.7,29.5,96.9,21.5,99.7,18.5z"/>
	</g>
	<g>
		<path class="st0" d="M33.2,82.6l-5.6-9.2c0,0-0.6-1.1-2-1.1s-1.7,0-1.7,0v1.4c0,0,0,0.8,0.8,0.8c0,0,0.6-0.1,1,0.5
			c0.4,0.7,5.6,9.2,5.6,9.2s0.5,1.3,1.9,1.3c1.3,0,1.3,0,1.3,0l8.1-13.2h-3L33.2,82.6"/>
		<path class="st0" d="M41.6,85.6h2.5c0,0,0.4,0.1,0.9-0.6s2.8-2.3,7.8-2.4c0,0,0.3,0.1,0.5-0.3c0.3-0.4,0.5-0.8,0.5-0.8
			s-5.2-0.1-7.1,0.5l4.1-6.7l6.3,10.3h3l-7.5-12.4c0,0-0.7-0.9-1.6-0.9c-1.1,0-1.4,0-1.4,0L41.6,85.6z"/>
		<path class="st0" d="M100.4,85.6h-1c-1.3-0.1-1.7-1.1-1.7-1.1l-5.6-9.2L88.1,82c1.8-0.7,7.1-0.5,7.1-0.5s-0.2,0.4-0.5,0.8
			c-0.3,0.4-0.5,0.3-0.5,0.3c-5,0.2-7.3,1.7-7.8,2.4c-0.5,0.7-0.9,0.6-0.9,0.6h-2.5c0,0,6.4-10.6,7.2-11.9c0.8-1.4,1.9-1.4,1.9-1.4
			h1.4L99.8,83c0,0,0.2,0.4,0.8,0.4c0.6,0,0.8,0,0.8,0v1.4C101.4,84.8,101.5,85.6,100.4,85.6z"/>
		<path class="st0" d="M79.4,72.2c0,0,0.1,2.5-2.6,2.3c-2.8-0.2-6.7-0.5-8.7,0c-2,0.5-2,1.3-2,1.7s0.2,1.3,2.4,1.6s5.3,0.1,5.3,0.1
			s6.3-0.3,6.6,3.7c0,0,0.5,3.2-3.7,4.2c-4.2,1-10,0.4-13.7-1.1l0.6-1.4c0,0,0.3-0.8,1.4-0.4c1,0.3,2.9,1.1,7.4,1.1s5.6-0.9,5.6-2.1
			c0-1.2-2-1.5-3.8-1.5s-6.9,0.1-8.6-0.9c-1.6-1-1.9-2.1-1.9-3.1c0,0-0.1-3,3.7-3.9C71.1,71.4,76.5,71.9,79.4,72.2z"/>
	</g>
</g>
</svg>
