<?xml version="1.0" encoding="utf-8"?>
<!-- Generator: Adobe Illustrator 24.1.1, SVG Export Plug-In . SVG Version: 6.00 Build 0)  -->
<svg version="1.1" id="Capa_1" xmlns="http://www.w3.org/2000/svg" xmlns:xlink="http://www.w3.org/1999/xlink" x="0px" y="0px"
	 viewBox="0 0 275.6 113.5" style="enable-background:new 0 0 275.6 113.5;" xml:space="preserve">
<style type="text/css">
	.st0{fill:#969695;}
</style>
<g>
	<g>
		<path class="st0" d="M114.7,36c0,1.2,0,2.6,0,3.8c1.1,0,2.2,0,2.4,0c0,5.3,0,10.6,0,15.9c-0.8,0-1.6,0-2.4,0c0,1.3,0,2.5,0,3.7
			c3.7,0,7.3,0,11,0c0-1.3,0-2.5,0-3.8c-1,0-1.9,0-2.9,0c0-2.1,0-4,0-6.1c0.8,0,1.5,0,2.3,0c0,1.1,0,2.2,0,3.2c1.3,0,2.5,0,3.8,0
			c0-2.9,0-5.8,0-8.7c-1.3,0-2.5,0-3.8,0c0,0.7,0,1.3,0,1.9c-0.8,0-1.5,0-2.3,0c0-2,0-4,0-6c2.3,0,4.6,0,6.8,0c0,1.3,0,2.5,0,3.8
			c1.7,0,3.4,0,5.1,0c0-2.6,0-5.2,0-7.7c-0.1,0-0.1-0.1-0.2-0.1C129.1,36,121,36,114.7,36z"/>
		<path class="st0" d="M223.1,59.7L223.1,59.7L223.1,59.7z"/>
		<path class="st0" d="M221.3,55.6c0-4.7,0-9.4,0-14.1c-2.8,0-5.5,0-8.2,0c0,1.3,0,2.5,0,3.8c0.6,0,1.2,0,1.7,0
			c0,0.1,0.1,0.1,0.1,0.2c0,2.5,0,5,0,7.6c0,0.4-0.2,0.9-0.5,1.2c-0.5,0.8-1.5,1-2.3,0.7c-0.9-0.3-1.4-1.1-1.4-2c0-2.9,0-9,0-11.6
			c-2.4,0-6,0-8.4,0c0,1.2,0,2.9,0,3.8c0.6,0,1.4,0,1.7,0c0.5,0,0.6,0.1,0.6,0.6c0,2.4,0,4.8,0,7.2c0,1,0.1,2.1,0.2,3.1
			c0.4,2.1,1.4,3.1,3.5,3.5c0.3,0.1,0.7,0.1,1.1,0.1c2.3,0.2,4.3-0.4,5.6-2.3c0-0.1,0.1-0.1,0.2-0.2c0,0.6,0,1.1,0,1.5
			c0,0.5,0.2,0.6,0.6,0.6c2,0,5,0,7.3,0c0-1.2,0-2.6,0-3.8C222.5,55.6,222,55.6,221.3,55.6z"/>
		<path class="st0" d="M152.1,54.9c0-2.4,0-4.8,0-7.2c0-2.8-1.3-4.8-3.8-5.9c-1.6-0.7-3.2-0.9-4.9-0.8c-2.4,0.2-4.5,1.1-6.2,2.8
			c-1,1-1.1,2.3-1.2,3.7c1.9,0,3.8,0,5.8,0c-0.1-1.1,0.1-2,0.9-2.6c1.2-1,3.3-0.6,3.7,0.8c0.2,0.9,0.1,1.9,0.2,3c-1.8,0-3.5,0-5.1,0
			c-2.9,0-5.4,1.9-6.1,4.6c-0.5,1.9-0.5,3.7,1.1,5.1c2.3,2.1,6.2,2.3,8.7,0.5c0.5-0.4,0.9-0.8,1.4-1.3c0,0.7,0,1.3,0,1.9
			c2.5,0,5,0,7.4,0c0-1.3,0-2.5,0-3.7c-0.6,0-1.2,0-1.9,0C152.1,55.4,152.1,55.2,152.1,54.9z M145.1,55.8c-0.7,0.8-1.8,1-2.8,0.6
			c-1-0.5-1.5-1.5-1.4-2.6c0.1-1.1,1-1.9,2.2-2c0.2,0,0.5,0,0.7,0c0.8,0,1.6,0,2.5,0C146.3,53.3,146,54.6,145.1,55.8z"/>
		<path class="st0" d="M164.3,45.4c0.6,0,1.2,0,1.8,0c-1,3.2-1.9,6.5-2.8,9.6c-0.1,0-0.1,0-0.2,0c-0.8-3.1-1.5-6.4-2.3-9.6
			c0.4,0,0.8,0,1,0c0.2,0,0.4-0.2,0.4-0.2c0-1.2,0-2.3,0-3.5c-3.1,0-6.1,0-9.1,0c0,0.9,0,2.5,0,3.8c0.5,0.1,1.1,0.2,1.2,0.5
			c1.5,4.4,3.1,8.8,4.6,13.2c0.1,0.3,0.2,0.5,0.6,0.5c2.2,0,4.4,0,6.4,0c0.4,0,0.5-0.1,0.7-0.5c1.5-4.3,3.1-8.6,4.6-12.9
			c0.2-0.5,0.4-1,1.1-0.8c0,0,0.1,0,0.1-0.1c0-1.2,0-2.5,0-3.8c-2.8,0-5.4,0-8.2,0C164.3,42.9,164.3,44.1,164.3,45.4z"/>
		<path class="st0" d="M196.4,53.5c-0.5,0-0.9,0.1-1,0.7c0,0.2-0.2,0.5-0.3,0.7c-0.4,0.8-1,1.6-2,1.6c-1,0-1.6-0.8-1.9-1.6
			c-1.3-2.8-1.3-5.6,0-8.4c0.4-0.8,1-1.6,1.9-1.6c1.1,0,1.6,0.8,2,1.6c0.3,0.6,0.5,1.3,0.8,2c1.6,0,3.2,0,4.9,0c0-2.3,0-4.4,0-6.7
			c-1.3,0-3.2,0-4.7,0c0,0.7,0,1.4,0,1.7c-0.2-0.2-0.2-0.2-0.3-0.2c-2-2.3-5-2.8-7.6-1.1c-3.4,2.3-5,6.5-4.2,10.6
			c1,4.6,4.3,7.4,8.8,7.4c2.4,0,4.6-0.6,6.4-2.3c1.3-1.1,1.7-2.7,1.7-4.4C199.5,53.5,197.5,53.5,196.4,53.5z"/>
		<path class="st0" d="M236.2,47.1c0.8-0.1,1.6-0.2,2.5-0.3c0-1.6,0-3.3,0-4.9c0-0.1,0-0.1-0.1-0.2c-2.3-0.4-4.8,0.8-6.5,3.1
			c0-1.1,0-2.1,0-3.1c-2.6,0-5.2,0-7.7,0c0,1.2,0,2.5,0,3.8c0.7,0,1.3,0,2,0c0,3.5,0,6.9,0,10.4c-0.7,0-1.3,0-2,0c0,1.3,0,2.5,0,3.7
			c3.7,0,7.3,0,10.9,0c0-1.2,0-2.4,0-3.7c-1,0-1.9,0-2.8,0c0-1.4,0-2.6,0-3.9C232.4,49.3,233.8,47.6,236.2,47.1z"/>
		<path class="st0" d="M182,41.6c-2.8,0-5.5,0-8.2,0c0,1.3,0,2.5,0,3.8c0.6,0,1.3,0,1.9,0c0,3.5,0,6.8,0,10.3c-0.6,0-1.2,0-1.7,0
			c0,1.3,0,2.5,0,3.7c3.2,0,6.5,0,9.7,0c0-1.3,0-2.5,0-3.8c-0.5,0-1.1,0-1.6,0C182,50.9,182,46.3,182,41.6z"/>
		<path class="st0" d="M182,35c-2.1,0-4.1,0-6.2,0c0,1.7,0,3.5,0,5.2c2.1,0,4.1,0,6.2,0C182,38.4,182,36.7,182,35z"/>
	</g>
	<g>
		<path class="st0" d="M120.5,77.4c-0.5,0.1-1,0.2-1.8,0.2c-1.7,0-3.5-0.8-3.5-3.1c0-2.1,1.5-3.1,3.5-3.1c0.6,0,1.2,0.1,1.8,0.3
			l-0.2,1.3c-0.5-0.3-1-0.4-1.6-0.4c-1.1,0-1.9,0.8-1.9,1.9c0,1.2,0.8,1.9,2,1.9c0.5,0,1-0.2,1.5-0.3L120.5,77.4z"/>
		<path class="st0" d="M121.5,71.4h2.8c1,0,2,0.4,2,1.5c0,0.8-0.4,1.4-1.2,1.5l0,0c0.5,0.2,0.5,0.6,0.8,1.4l0.6,1.6h-1.7l-0.4-1.1
			c-0.3-1.1-0.5-1.3-1.1-1.3H123v2.4h-1.5V71.4z M123.1,74h0.5c0.5,0,1.2,0,1.2-0.7c0-0.6-0.6-0.7-1.2-0.7h-0.5V74z"/>
		<path class="st0" d="M127.8,71.4h1.7v6.1h-1.7V71.4z"/>
		<path class="st0" d="M130.9,76c0.5,0.2,1,0.4,1.7,0.4c0.5,0,1-0.1,1-0.6c0-1.1-2.8-0.4-2.8-2.6c0-1.4,1.4-1.9,2.6-1.9
			c0.6,0,1.1,0.1,1.6,0.2l-0.1,1.3c-0.5-0.2-0.9-0.3-1.4-0.3c-0.4,0-1.1,0-1.1,0.6c0,1,2.9,0.3,2.9,2.5c0,1.6-1.4,2-2.7,2
			c-0.6,0-1.3-0.1-1.8-0.2L130.9,76z"/>
		<path class="st0" d="M137.6,72.6h-1.5v-1.2h4.6v1.2h-1.5v4.9h-1.6L137.6,72.6L137.6,72.6z"/>
		<path class="st0" d="M142.9,71.4h2l2.3,6.1h-1.7l-0.5-1.3h-2.3l-0.4,1.3h-1.6L142.9,71.4z M143.9,72.7L143.9,72.7l-0.8,2.4h1.5
			L143.9,72.7z"/>
		<path class="st0" d="M148.2,71.4h1.7v4.9h2.5v1.2h-4.1V71.4z"/>
		<path class="st0" d="M153.4,71.4h4.3v1.1H155v1.3h2.5V75H155v1.3h2.8v1.1h-4.3L153.4,71.4L153.4,71.4z"/>
		<path class="st0" d="M159.1,76c0.5,0.2,1,0.4,1.7,0.4c0.5,0,1-0.1,1-0.6c0-1.1-2.8-0.4-2.8-2.6c0-1.4,1.4-1.9,2.6-1.9
			c0.6,0,1.1,0.1,1.6,0.2l-0.1,1.3c-0.5-0.2-0.9-0.3-1.4-0.3c-0.4,0-1.1,0-1.1,0.6c0,1,2.9,0.3,2.9,2.5c0,1.6-1.4,2-2.7,2
			c-0.6,0-1.3-0.1-1.8-0.2L159.1,76z"/>
		<path class="st0" d="M167.7,71.4h2.2c2.1,0,3.6,0.7,3.6,3c0,2.3-1.5,3.1-3.6,3.1h-2.2V71.4z M169.4,76.3h0.6
			c1.2,0,1.9-0.6,1.9-1.8c0-1.2-0.7-1.8-1.9-1.8h-0.6V76.3z"/>
		<path class="st0" d="M174.8,71.4h4.3v1.1h-2.6v1.3h2.5V75h-2.5v1.3h2.8v1.1h-4.4V71.4z"/>
		<path class="st0" d="M183.5,76c0.4,0.2,1,0.4,1.6,0.4c0.5,0,1-0.1,1-0.6c0-1.1-2.9-0.4-2.9-2.6c0-1.4,1.4-1.9,2.6-1.9
			c0.6,0,1.1,0.1,1.6,0.2l-0.1,1.3c-0.5-0.2-0.9-0.3-1.4-0.3c-0.4,0-1,0-1,0.6c0,1,2.8,0.3,2.8,2.5c0,1.6-1.3,2-2.7,2
			c-0.6,0-1.3-0.1-1.8-0.2L183.5,76z"/>
		<path class="st0" d="M189.1,71.4h4.3v1.1h-2.6v1.3h2.5V75h-2.5v1.3h2.8v1.1h-4.4L189.1,71.4L189.1,71.4z"/>
		<path class="st0" d="M200.4,77.4c-1,0.2-1.8,0.3-2.3,0.3c-1.7,0-3.5-0.8-3.5-3.1s1.6-3.1,3.8-3.1c0.4,0,1.3,0.1,1.8,0.3l-0.2,1.3
			c-0.5-0.3-1.1-0.4-1.5-0.4c-1.3,0-2.4,0.5-2.4,1.9c0,1.2,0.8,1.9,2,1.9c0.2,0,0.5,0,0.6-0.1v-1.4h-1V74h2.5L200.4,77.4L200.4,77.4
			z"/>
		<path class="st0" d="M207.1,75.2c0,1.7-1.1,2.4-2.6,2.4c-1.6,0-2.6-0.8-2.6-2.4v-3.8h1.7V75c0,0.8,0.2,1.5,1,1.5
			c0.8,0,1.1-0.7,1.1-1.5v-3.5h1.7v3.8H207.1z"/>
		<path class="st0" d="M208.4,71.4h2.8c1,0,1.9,0.4,1.9,1.5c0,0.8-0.4,1.4-1.2,1.5l0,0c0.5,0.2,0.5,0.6,0.8,1.4l0.6,1.6h-1.7
			l-0.4-1.1c-0.3-1.1-0.5-1.3-1.1-1.3h-0.4v2.4h-1.7v-6H208.4z M210.1,74h0.4c0.5,0,1.2,0,1.2-0.7c0-0.6-0.6-0.7-1.2-0.7h-0.4V74z"
			/>
		<path class="st0" d="M214.7,71.4h1.7v6.1h-1.7V71.4z"/>
		<path class="st0" d="M217.9,71.4h2.2c2.1,0,3.6,0.7,3.6,3c0,2.3-1.5,3.1-3.6,3.1h-2.2V71.4z M219.5,76.3h0.6
			c1.2,0,1.9-0.6,1.9-1.8c0-1.2-0.7-1.8-1.9-1.8h-0.6V76.3z"/>
		<path class="st0" d="M226.8,71.4h1.9l2.3,6.1h-1.8l-0.4-1.3h-2.3l-0.5,1.3h-1.7L226.8,71.4z M227.8,72.7L227.8,72.7l-0.8,2.4h1.5
			L227.8,72.7z"/>
		<path class="st0" d="M232.1,71.4h2.2c2.1,0,3.6,0.7,3.6,3c0,2.3-1.5,3.1-3.6,3.1h-2.2V71.4z M233.7,76.3h0.6
			c1.2,0,1.9-0.6,1.9-1.8c0-1.2-0.7-1.8-1.9-1.8h-0.6V76.3z"/>
	</g>
	<g>
		<polygon class="st0" points="100.6,37.9 102.7,42.5 101.5,32.9 99.2,28 		"/>
		<polygon class="st0" points="102.8,52.5 102.8,52.5 105.3,57.8 103.7,47.7 101.4,42.8 		"/>
		<polygon class="st0" points="102.4,52.5 84.3,49.8 86.8,55.9 105.4,58.7 		"/>
		<polygon class="st0" points="79.3,70.8 81.9,76.7 86.5,55.8 84.1,50.1 		"/>
		<polygon class="st0" points="37,64.2 39.7,70.4 81.7,77 79,70.8 		"/>
		<g>
			<polygon class="st0" points="99.9,37.8 87.7,30.3 87.6,32.1 94,36.9 80.3,34.7 38.2,56.2 40.4,60.8 82.3,36.9 82.5,36.9 
				93.9,38.7 88.1,41.8 88.1,44.3 100.6,39.3 			"/>
		</g>
		<polygon class="st0" points="89.9,39.3 82.6,38.2 38.5,63.3 78.6,69.7 83.4,48.6 101.6,51.3 100.1,40.8 86.8,46.2 86.8,41.1 		"/>
		<polygon class="st0" points="89.1,34.8 86.3,32.7 86.5,28 99.3,36 98.2,27.8 79.9,24.8 45.8,32.4 38.7,54.6 80.1,33.3 		"/>
	</g>
</g>
</svg>
