<?xml version="1.0" encoding="utf-8"?>
<!-- Generator: Adobe Illustrator 24.1.1, SVG Export Plug-In . SVG Version: 6.00 Build 0)  -->
<svg version="1.1" id="Capa_1" xmlns="http://www.w3.org/2000/svg" xmlns:xlink="http://www.w3.org/1999/xlink" x="0px" y="0px"
	 viewBox="0 0 29.3 29.3" style="enable-background:new 0 0 29.3 29.3;" xml:space="preserve">
<style type="text/css">
	.st0{fill:#00329C;}
	.st1{fill:none;stroke:#4AA1C8;stroke-width:1.989;stroke-linecap:round;stroke-linejoin:round;stroke-miterlimit:10;}
	.st2{enable-background:new    ;}
	.st3{opacity:0.3;fill:none;stroke:#4AA1C8;stroke-width:1.989;stroke-linecap:round;stroke-linejoin:round;stroke-miterlimit:10;}
	.st4{fill:none;stroke:#4AA1C8;stroke-width:3.9779;stroke-linecap:round;stroke-linejoin:round;stroke-miterlimit:10;}
	.st5{fill:#4AA1C8;}
	.st6{opacity:0.8;fill:none;stroke:#4AA1C8;stroke-width:1.989;stroke-linecap:round;stroke-linejoin:round;stroke-miterlimit:10;}
	.st7{fill:none;}
	.st8{fill:#EBEBEB;}
	.st9{fill:#FFFFFF;}
	.st10{fill:#010101;}
	.st11{fill-rule:evenodd;clip-rule:evenodd;}
	.st12{fill:#E6E6E6;}
	.st13{fill:none;stroke:#00329C;stroke-width:2.8993;stroke-miterlimit:10;}
	.st14{clip-path:url(#SVGID_2_);}
	.st15{fill:none;stroke:#00329C;stroke-width:1.9328;stroke-miterlimit:10;}
	.st16{fill:none;stroke:#00329C;stroke-width:1.4828;stroke-linecap:round;stroke-linejoin:round;stroke-miterlimit:10;}
	
		.st17{fill:none;stroke:#00329C;stroke-width:1.4828;stroke-linecap:round;stroke-linejoin:round;stroke-miterlimit:10;stroke-dasharray:5.1898;}
	
		.st18{fill:none;stroke:#00329C;stroke-width:1.4828;stroke-linecap:round;stroke-linejoin:round;stroke-miterlimit:10;stroke-dasharray:2.2242;}
	.st19{clip-path:url(#SVGID_4_);}
	.st20{clip-path:url(#SVGID_10_);}
	.st21{fill:none;stroke:#00329C;stroke-width:2.1843;stroke-miterlimit:10;}
	.st22{fill-rule:evenodd;clip-rule:evenodd;fill:#00329C;}
	.st23{fill:none;stroke:#FFFFFF;stroke-width:6.5701;stroke-miterlimit:10;}
	.st24{fill:none;stroke:#00329C;stroke-width:3;stroke-miterlimit:10;}
	.st25{fill:none;stroke:#00329C;stroke-width:2.7499;stroke-miterlimit:10;}
	.st26{clip-path:url(#SVGID_12_);}
	.st27{fill:#969695;}
	.st28{fill:url(#SVGID_13_);}
	.st29{fill:url(#SVGID_14_);}
	.st30{fill:#AAFFEF;}
	.st31{fill:#45DED4;}
	.st32{fill:#73F9E0;}
	.st33{fill:url(#SVGID_15_);}
	.st34{fill:url(#SVGID_16_);}
	.st35{fill:url(#SVGID_17_);}
	.st36{fill:url(#SVGID_18_);}
	.st37{fill:#BFBFBF;}
	.st38{clip-path:url(#SVGID_20_);}
	.st39{clip-path:url(#SVGID_22_);}
	.st40{clip-path:url(#SVGID_28_);}
	.st41{fill:none;stroke:#00329C;stroke-width:3.1316;stroke-miterlimit:10;}
</style>
<g>
	<g>
		<path class="st0" d="M18.1,2.4c-3.5-1-6.9,0-6.9,0C5.8,4,2,8.8,2,14.6c0,4.7,2.6,8.8,6.4,11c0,0,2.8,1.7,6.3,1.7
			c3.7,0,6.3-1.7,6.3-1.7c3.8-2.2,6.4-6.3,6.4-11C27.3,8.8,23.4,4,18.1,2.4 M14.6,25.5c-6,0-10.8-4.9-10.8-10.8
			c0-6,4.9-10.8,10.8-10.8c6,0,10.8,4.9,10.8,10.8C25.5,20.6,20.6,25.5,14.6,25.5z"/>
		<path class="st0" d="M23.5,11.2c-0.1-0.3-0.5-0.5-0.8-0.3c-0.3,0.1-0.5,0.5-0.3,0.8c0.4,0.9,0.6,1.9,0.6,3c0,4.5-3.7,8.2-8.2,8.2
			c-4.5,0-8.2-3.7-8.2-8.2c0-4.5,3.7-8.2,8.2-8.2c0.3,0,0.6-0.3,0.6-0.6c0-0.3-0.3-0.6-0.6-0.6c-5.2,0-9.5,4.2-9.5,9.5
			c0,5.2,4.2,9.5,9.5,9.5c5.2,0,9.5-4.2,9.5-9.5C24.1,13.4,23.9,12.3,23.5,11.2z"/>
		<path class="st0" d="M17,6.7c1.6,0.5,3,1.4,4.1,2.8c0.1,0.2,0.3,0.2,0.5,0.2c0.1,0,0.3,0,0.4-0.1C22.2,9.4,22.3,9,22,8.7
			c-1.2-1.5-2.8-2.6-4.7-3.2C17,5.5,16.7,5.6,16.6,6C16.5,6.3,16.7,6.6,17,6.7z"/>
		<path class="st0" d="M13.6,14.6c0,0.6,0.5,1.1,1.1,1.1c0.6,0,1.1-0.5,1.1-1.1c0-0.6-0.5-1.1-1.1-1.1C14,13.6,13.6,14,13.6,14.6z"
			/>
		<path class="st0" d="M15.2,12V8.3c0-0.3-0.3-0.6-0.6-0.6C14.3,7.7,14,8,14,8.3V12c0,0.3,0.3,0.6,0.6,0.6
			C15,12.6,15.2,12.3,15.2,12z"/>
		<path class="st0" d="M21,14h-3.7c-0.3,0-0.6,0.3-0.6,0.6c0,0.3,0.3,0.6,0.6,0.6H21c0.3,0,0.6-0.3,0.6-0.6C21.6,14.3,21.3,14,21,14
			z"/>
	</g>
</g>
</svg>
