<?xml version="1.0" encoding="utf-8"?>
<!-- Generator: Adobe Illustrator 24.1.1, SVG Export Plug-In . SVG Version: 6.00 Build 0)  -->
<svg version="1.1" id="Capa_1" xmlns="http://www.w3.org/2000/svg" xmlns:xlink="http://www.w3.org/1999/xlink" x="0px" y="0px"
	 viewBox="0 0 29.3 29.3" style="enable-background:new 0 0 29.3 29.3;" xml:space="preserve">
<style type="text/css">
	.st0{fill:#00329C;}
</style>
<g>
	<g>
		<path class="st0" d="M18.3,1.6c-3.7-1.1-7.4,0-7.4,0c-5.8,1.7-9.8,6.8-9.8,13c0,5,2.8,9.4,6.8,11.7c0,0,3,1.8,6.7,1.8
			c3.9,0,6.7-1.8,6.7-1.8c4.1-2.3,6.8-6.7,6.8-11.7C28.2,8.4,24,3.3,18.3,1.6 M14.6,26.2C8.2,26.2,3.1,21,3.1,14.7
			c0-6.4,5.2-11.5,11.5-11.5c6.4,0,11.5,5.2,11.5,11.5C26.2,21,21,26.2,14.6,26.2z"/>
		<path class="st0" d="M24.1,11c-0.1-0.3-0.5-0.5-0.9-0.3c-0.3,0.1-0.5,0.5-0.3,0.9c0.4,1,0.6,2,0.6,3.2c0,4.8-3.9,8.8-8.8,8.8
			s-8.8-3.9-8.8-8.8S10,6,14.8,6c0.3,0,0.6-0.3,0.6-0.6s-0.3-0.6-0.6-0.6C9.3,4.7,4.7,9.2,4.7,14.8C4.7,20.4,9.1,25,14.8,25
			c5.6,0,10.1-4.5,10.1-10.1C24.7,13.3,24.5,12.1,24.1,11z"/>
		<path class="st0" d="M17.2,6.2c1.7,0.5,3.2,1.5,4.4,3c0.1,0.2,0.3,0.2,0.5,0.2c0.1,0,0.3,0,0.4-0.1c0.2-0.2,0.3-0.6,0-1
			c-1.3-1.6-3-2.8-5-3.4c-0.3,0-0.6,0.1-0.7,0.5C16.6,5.7,16.8,6.1,17.2,6.2z"/>
		<path class="st0" d="M13.5,14.6c0,0.6,0.5,1.2,1.2,1.2s1.2-0.5,1.2-1.2c0-0.6-0.5-1.2-1.2-1.2C14,13.5,13.5,14,13.5,14.6z"/>
		<path class="st0" d="M15.2,11.8V7.9c0-0.3-0.3-0.6-0.6-0.6c-0.3,0-0.6,0.3-0.6,0.6v3.9c0,0.3,0.3,0.6,0.6,0.6
			C15,12.5,15.2,12.1,15.2,11.8z"/>
		<path class="st0" d="M21.4,14h-3.9c-0.3,0-0.6,0.3-0.6,0.6c0,0.3,0.3,0.6,0.6,0.6h3.9c0.3,0,0.6-0.3,0.6-0.6
			C22.1,14.3,21.7,14,21.4,14z"/>
	</g>
</g>
</svg>
