<svg xmlns="http://www.w3.org/2000/svg" viewBox="0 0 135.39 38.65"><defs><style>.cls-1{fill:#00329c;}</style></defs><g id="Capa_2" data-name="Capa 2"><g id="Capa_1-2" data-name="Capa 1"><path class="cls-1" d="M22.47,22.29,17.54,19.7l-.16.23a12.35,12.35,0,0,1-2.75,3.13,5.22,5.22,0,0,1-3,.81,5.37,5.37,0,0,1-3.86-1.43,5.82,5.82,0,0,1-1.67-3.6h16l0-1.47c0-3.56-1-6.38-2.94-8.41a10.79,10.79,0,0,0-8.06-3.07A10.85,10.85,0,0,0,3,9.05a11.65,11.65,0,0,0-3,8.34,11.38,11.38,0,0,0,3.13,8.35,11.25,11.25,0,0,0,8.29,3.13,14.5,14.5,0,0,0,3.32-.36,9.88,9.88,0,0,0,2.88-1.13,11.67,11.67,0,0,0,2.49-2,17,17,0,0,0,2.18-2.84Zm-16-8.08a4.84,4.84,0,0,1,.56-1.14,5,5,0,0,1,1.1-1.15,4.85,4.85,0,0,1,1.41-.73,5.42,5.42,0,0,1,1.68-.26,4.55,4.55,0,0,1,4.81,3.28Z"/><path class="cls-1" d="M32.56,14.3c-2.33-.92-2.82-1.66-2.82-2.12a1.13,1.13,0,0,1,.41-.9,1.47,1.47,0,0,1,1-.37c.89,0,1.63.58,2.26,1.79l.14.27,4.88-2.43-.14-.28a7.18,7.18,0,0,0-6.74-4.37,7.71,7.71,0,0,0-5.23,1.89,6.16,6.16,0,0,0-2.13,4.79,5.26,5.26,0,0,0,1.27,3.62,10,10,0,0,0,3.31,2.16l1.6.72,1.57.71c1.24.69,1.87,1.41,1.87,2.15,0,1.33-.74,1.94-2.33,1.94a3,3,0,0,1-2.08-.75,8.58,8.58,0,0,1-1.35-1.85L27.93,21l-5,2.17.14.29a8.54,8.54,0,0,0,8.34,5.38,8.92,8.92,0,0,0,5.88-2,6.82,6.82,0,0,0,2.52-5.37,5.39,5.39,0,0,0-1.53-4A18.37,18.37,0,0,0,32.56,14.3Z"/><polygon class="cls-1" points="52.08 6.48 48.27 6.48 48.27 0 42.76 0 42.76 6.48 39.35 6.48 39.35 11.67 42.76 11.67 42.76 28.26 48.27 28.26 48.27 11.67 52.08 11.67 52.08 6.48"/><path class="cls-1" d="M68.25,8.5a9.14,9.14,0,0,0-6.31-2.61,9.54,9.54,0,0,0-7.36,3.28,11.78,11.78,0,0,0-2.92,8.14,12.12,12.12,0,0,0,2.93,8.29,9.69,9.69,0,0,0,7.48,3.27,9.45,9.45,0,0,0,6.18-2.44v1.83h5.54V6.48H68.25ZM67,22.11a5.24,5.24,0,0,1-4.15,1.76,5,5,0,0,1-4-1.82,7.09,7.09,0,0,1-1.56-4.74,6.76,6.76,0,0,1,1.6-4.57,5,5,0,0,1,4-1.81A5.17,5.17,0,0,1,67,12.71a7,7,0,0,1,1.59,4.7A6.93,6.93,0,0,1,67,22.11Z"/><path class="cls-1" d="M86.69,5.89A8.16,8.16,0,0,0,81.23,8V6.48H75.69V28.26h5.54V17.74c0-2.56.32-4.37,1-5.37a3.47,3.47,0,0,1,3.19-1.46A3.22,3.22,0,0,1,88.2,12c.54.73.81,2.13.81,4.13V28.26h5.53V15c0-3.05-.62-5.29-1.86-6.66A7.62,7.62,0,0,0,86.69,5.89Z"/><polygon class="cls-1" points="115.87 6.48 108.41 6.48 101.97 12.88 101.97 0 96.45 0 96.45 28.26 101.97 28.26 101.97 19.93 102.41 19.5 109.27 28.26 116.42 28.26 106.33 15.7 115.87 6.48"/><path class="cls-1" d="M129.85,6.48v2a9.14,9.14,0,0,0-6.31-2.61,9.54,9.54,0,0,0-7.36,3.28,11.78,11.78,0,0,0-2.92,8.14,12.16,12.16,0,0,0,2.92,8.29,9.72,9.72,0,0,0,7.49,3.27,9.45,9.45,0,0,0,6.18-2.44v1.83h5.54V6.48Zm-5.44,17.39a5,5,0,0,1-4-1.82,7.09,7.09,0,0,1-1.56-4.74,6.76,6.76,0,0,1,1.6-4.57,5,5,0,0,1,4-1.81,5.19,5.19,0,0,1,4.11,1.78,7,7,0,0,1,1.59,4.7,6.93,6.93,0,0,1-1.59,4.7A5.24,5.24,0,0,1,124.41,23.87Z"/><path class="cls-1" d="M24,34.48h.92l1.38,3.89h-.88l-.26-.8H23.75l-.26.8h-.85ZM24,36.9h1l-.49-1.53Z"/><path class="cls-1" d="M29.85,34.58a1,1,0,0,1,.36.27,1.38,1.38,0,0,1,.2.33,1.25,1.25,0,0,1,.07.41,1.21,1.21,0,0,1-.14.54.8.8,0,0,1-.46.38.7.7,0,0,1,.38.31,1.31,1.31,0,0,1,.11.6v.27a2.67,2.67,0,0,0,0,.36.32.32,0,0,0,.15.22v.1h-.9l-.05-.21a1.87,1.87,0,0,1,0-.34v-.36a.65.65,0,0,0-.13-.49.6.6,0,0,0-.46-.13h-.79v1.53h-.8V34.48h1.86A1.66,1.66,0,0,1,29.85,34.58Zm-1.68.57V36.2H29a.8.8,0,0,0,.39-.07.42.42,0,0,0,.23-.43.49.49,0,0,0-.22-.48.88.88,0,0,0-.38-.07Z"/><path class="cls-1" d="M35.25,37.23a1.58,1.58,0,0,1-.3.56l.45.42-.43.44-.46-.45a2.63,2.63,0,0,1-.37.19,2,2,0,0,1-.63.08A1.8,1.8,0,0,1,32.25,38a2.42,2.42,0,0,1,0-3.21,1.79,1.79,0,0,1,1.25-.45,1.83,1.83,0,0,1,1.27.47,2,2,0,0,1,.59,1.53A2.42,2.42,0,0,1,35.25,37.23Zm-1.47.52.18-.06-.39-.38.41-.43.4.37a3.13,3.13,0,0,0,.13-.33,1.9,1.9,0,0,0,.06-.5,1.62,1.62,0,0,0-.27-1,.92.92,0,0,0-.78-.36.93.93,0,0,0-.77.34,1.53,1.53,0,0,0-.29,1,1.43,1.43,0,0,0,.41,1.14,1,1,0,0,0,.64.23A1.26,1.26,0,0,0,33.78,37.75Z"/><path class="cls-1" d="M36.54,34.48h.82v2.39a1.37,1.37,0,0,0,.1.58.79.79,0,0,0,1.28,0,1.4,1.4,0,0,0,.09-.58V34.48h.83v2.39a2,2,0,0,1-.19,1,1.79,1.79,0,0,1-2.74,0,2,2,0,0,1-.19-1Z"/><path class="cls-1" d="M41.72,38.37h-.81V34.48h.81Z"/><path class="cls-1" d="M45.85,34.48v.69H44.68v3.2h-.81v-3.2H42.7v-.69Z"/><path class="cls-1" d="M49.74,35.17H47.68V36h1.89v.68H47.68v1h2.15v.7H46.89V34.48h2.85Z"/><path class="cls-1" d="M51.38,34.88a1.59,1.59,0,0,1,1.19-.48,1.61,1.61,0,0,1,1.42.65,1.34,1.34,0,0,1,.27.72h-.81a1.37,1.37,0,0,0-.2-.42.81.81,0,0,0-.65-.25.79.79,0,0,0-.68.36,1.69,1.69,0,0,0-.25,1,1.59,1.59,0,0,0,.26,1,.85.85,0,0,0,.67.32.75.75,0,0,0,.64-.28,1.18,1.18,0,0,0,.2-.45h.81a1.8,1.8,0,0,1-.53,1,1.59,1.59,0,0,1-1.1.39,1.68,1.68,0,0,1-1.31-.53,2.22,2.22,0,0,1-.47-1.49A2.17,2.17,0,0,1,51.38,34.88Z"/><path class="cls-1" d="M58.27,34.48v.69H57.11v3.2h-.82v-3.2H55.12v-.69Z"/><path class="cls-1" d="M59.29,34.48h.82v2.39a1.23,1.23,0,0,0,.1.58.79.79,0,0,0,1.28,0,1.4,1.4,0,0,0,.09-.58V34.48h.83v2.39a2.09,2.09,0,0,1-.19,1,1.79,1.79,0,0,1-2.74,0,2,2,0,0,1-.19-1Z"/><path class="cls-1" d="M66.22,34.58a1,1,0,0,1,.37.27,1.35,1.35,0,0,1,.19.33,1,1,0,0,1,.07.41,1.09,1.09,0,0,1-.14.54.74.74,0,0,1-.46.38.67.67,0,0,1,.38.31,1.19,1.19,0,0,1,.11.6v.27a1.48,1.48,0,0,0,0,.36.32.32,0,0,0,.15.22v.1H66a1.49,1.49,0,0,1,0-.21,1.27,1.27,0,0,1,0-.34v-.36A.76.76,0,0,0,65.8,37a.62.62,0,0,0-.46-.13h-.8v1.53h-.79V34.48h1.86A1.61,1.61,0,0,1,66.22,34.58Zm-1.68.57V36.2h.88a.82.82,0,0,0,.39-.07A.43.43,0,0,0,66,35.7a.5.5,0,0,0-.23-.48.83.83,0,0,0-.37-.07Z"/><path class="cls-1" d="M69.28,34.48h.92l1.38,3.89H70.7l-.26-.8H69l-.27.8h-.85Zm0,2.42h1l-.49-1.53Z"/><path class="cls-1" d="M76.73,34.56a1.29,1.29,0,0,1,.67.5,1.8,1.8,0,0,1,.27.62,3,3,0,0,1,.08.65,2.67,2.67,0,0,1-.31,1.31,1.43,1.43,0,0,1-1.31.73H74.46V34.48h1.67A2,2,0,0,1,76.73,34.56Zm-1.49.59v2.54H76a.81.81,0,0,0,.81-.57,2,2,0,0,0,.12-.74,1.88,1.88,0,0,0-.18-.91.81.81,0,0,0-.75-.32Z"/><path class="cls-1" d="M81.77,35.17h-2V36H81.6v.68H79.72v1h2.15v.7h-3V34.48h2.85Z"/><path class="cls-1" d="M86,34.48h.92l1.37,3.89h-.88l-.26-.8H85.72l-.26.8h-.85Zm-.06,2.42h1l-.49-1.53Z"/><path class="cls-1" d="M89.33,34.48h.81v3.19h1.94v.7H89.33Z"/><path class="cls-1" d="M93.17,34.48H94v2.39a1.23,1.23,0,0,0,.1.58.62.62,0,0,0,.64.33.63.63,0,0,0,.64-.33,1.4,1.4,0,0,0,.09-.58V34.48h.83v2.39a2,2,0,0,1-.2,1,1.4,1.4,0,0,1-1.36.64,1.43,1.43,0,0,1-1.37-.64,2,2,0,0,1-.19-1Z"/><path class="cls-1" d="M100.19,34.48h1.17v3.89h-.76V35.42c0-.14,0-.24,0-.32l-.74,3.27h-.79l-.73-3.27v3.27H97.6V34.48h1.18l.71,3.06Z"/><path class="cls-1" d="M103.39,38.37h-.81V34.48h.81Z"/><path class="cls-1" d="M104.68,34.48h.85l1.54,2.71V34.48h.76v3.89H107l-1.59-2.76v2.76h-.75Z"/><path class="cls-1" d="M109.87,38.37h-.8V34.48h.8Z"/><path class="cls-1" d="M114.17,38a1.72,1.72,0,0,1-1.28.45,1.7,1.7,0,0,1-1.27-.45,2.48,2.48,0,0,1,0-3.21,1.7,1.7,0,0,1,1.27-.45,1.72,1.72,0,0,1,1.28.45,2.48,2.48,0,0,1,0,3.21Zm-.51-.59a1.6,1.6,0,0,0,.28-1,1.56,1.56,0,0,0-.28-1,.93.93,0,0,0-.77-.36,1,1,0,0,0-.77.35,2,2,0,0,0,0,2,1,1,0,0,0,1.54,0Z"/></g></g></svg>