<svg xmlns="http://www.w3.org/2000/svg" viewBox="0 0 24.8 24.8"><g id="Capa_2" data-name="Capa 2"><g id="Capa_1-2" data-name="Capa 1"><path d="M17.64,0H7.16A7.15,7.15,0,0,0,0,7.16V17.64A7.16,7.16,0,0,0,7.16,24.8H17.64a7.17,7.17,0,0,0,7.16-7.16V7.16A7.16,7.16,0,0,0,17.64,0m4.87,17.82a4.74,4.74,0,0,1-4.75,4.75H7a4.75,4.75,0,0,1-4.75-4.75V7.1A4.75,4.75,0,0,1,7,2.35H17.76A4.74,4.74,0,0,1,22.51,7.1Z"/><path d="M12.4,6a6.43,6.43,0,1,0,6.43,6.43A6.43,6.43,0,0,0,12.4,6m0,10.6a4.17,4.17,0,1,1,4.17-4.17,4.17,4.17,0,0,1-4.17,4.17"/><path d="M19.05,4.28a1.5,1.5,0,1,0,1.5,1.5,1.5,1.5,0,0,0-1.5-1.5"/></g></g></svg>