<?xml version="1.0" encoding="utf-8"?>
<!-- Generator: Adobe Illustrator 24.1.1, SVG Export Plug-In . SVG Version: 6.00 Build 0)  -->
<svg version="1.1" id="Capa_1" xmlns="http://www.w3.org/2000/svg" xmlns:xlink="http://www.w3.org/1999/xlink" x="0px" y="0px"
	 viewBox="0 0 32.5 32.5" style="enable-background:new 0 0 32.5 32.5;" xml:space="preserve">
<style type="text/css">
	.st0{fill:#00329C;}
	.st1{fill:none;stroke:#4AA1C8;stroke-width:1.989;stroke-linecap:round;stroke-linejoin:round;stroke-miterlimit:10;}
	.st2{enable-background:new    ;}
	.st3{opacity:0.3;fill:none;stroke:#4AA1C8;stroke-width:1.989;stroke-linecap:round;stroke-linejoin:round;stroke-miterlimit:10;}
	.st4{fill:none;stroke:#4AA1C8;stroke-width:3.9779;stroke-linecap:round;stroke-linejoin:round;stroke-miterlimit:10;}
	.st5{fill:#4AA1C8;}
	.st6{opacity:0.8;fill:none;stroke:#4AA1C8;stroke-width:1.989;stroke-linecap:round;stroke-linejoin:round;stroke-miterlimit:10;}
	.st7{fill:none;}
	.st8{fill:#EBEBEB;}
	.st9{fill:#FFFFFF;}
	.st10{fill:#010101;}
	.st11{fill-rule:evenodd;clip-rule:evenodd;}
	.st12{fill:#E6E6E6;}
	.st13{fill:none;stroke:#00329C;stroke-width:2.8993;stroke-miterlimit:10;}
	.st14{clip-path:url(#SVGID_2_);}
	.st15{fill:none;stroke:#00329C;stroke-width:1.9328;stroke-miterlimit:10;}
	.st16{fill:none;stroke:#00329C;stroke-width:1.4828;stroke-linecap:round;stroke-linejoin:round;stroke-miterlimit:10;}
	
		.st17{fill:none;stroke:#00329C;stroke-width:1.4828;stroke-linecap:round;stroke-linejoin:round;stroke-miterlimit:10;stroke-dasharray:5.1898;}
	
		.st18{fill:none;stroke:#00329C;stroke-width:1.4828;stroke-linecap:round;stroke-linejoin:round;stroke-miterlimit:10;stroke-dasharray:2.2242;}
	.st19{clip-path:url(#SVGID_4_);}
	.st20{clip-path:url(#SVGID_10_);}
	.st21{fill:none;stroke:#00329C;stroke-width:2.1843;stroke-miterlimit:10;}
	.st22{fill-rule:evenodd;clip-rule:evenodd;fill:#00329C;}
	.st23{fill:none;stroke:#FFFFFF;stroke-width:6.5701;stroke-miterlimit:10;}
	.st24{fill:none;stroke:#00329C;stroke-width:3;stroke-miterlimit:10;}
	.st25{fill:none;stroke:#00329C;stroke-width:2.7499;stroke-miterlimit:10;}
	.st26{clip-path:url(#SVGID_12_);}
	.st27{fill:#969695;}
	.st28{fill:url(#SVGID_13_);}
	.st29{fill:url(#SVGID_14_);}
	.st30{fill:#AAFFEF;}
	.st31{fill:#45DED4;}
	.st32{fill:#73F9E0;}
	.st33{fill:url(#SVGID_15_);}
	.st34{fill:url(#SVGID_16_);}
	.st35{fill:url(#SVGID_17_);}
	.st36{fill:url(#SVGID_18_);}
	.st37{fill:#BFBFBF;}
	.st38{clip-path:url(#SVGID_20_);}
	.st39{clip-path:url(#SVGID_22_);}
	.st40{clip-path:url(#SVGID_28_);}
	.st41{fill:none;stroke:#00329C;stroke-width:3.1316;stroke-miterlimit:10;}
</style>
<g>
	<path class="st0" d="M16.2,11.1c-2.9,0-5.2,2.3-5.2,5.2c0,2.9,2.3,5.2,5.2,5.2c2.9,0,5.2-2.3,5.2-5.2
		C21.5,13.4,19.1,11.1,16.2,11.1z M16.2,11.1c-2.9,0-5.2,2.3-5.2,5.2c0,2.9,2.3,5.2,5.2,5.2c2.9,0,5.2-2.3,5.2-5.2
		C21.5,13.4,19.1,11.1,16.2,11.1z M22.8,0.7H9.7c-5,0-9,4-9,9v13.1c0,5,4,9,9,9h13.1c5,0,9-4,9-9V9.7C31.8,4.7,27.8,0.7,22.8,0.7z
		 M16.2,24.4c-4.5,0-8.1-3.6-8.1-8.1c0-4.4,3.6-8.1,8.1-8.1c4.5,0,8.1,3.6,8.1,8.1C24.3,20.8,20.7,24.4,16.2,24.4z M24.6,9.8
		c-1,0-1.9-0.8-1.9-1.9s0.8-1.9,1.9-1.9c1,0,1.9,0.8,1.9,1.9S25.6,9.8,24.6,9.8z M16.2,11.1c-2.9,0-5.2,2.3-5.2,5.2
		c0,2.9,2.3,5.2,5.2,5.2c2.9,0,5.2-2.3,5.2-5.2C21.5,13.4,19.1,11.1,16.2,11.1z"/>
</g>
</svg>
