<?xml version="1.0" encoding="utf-8"?>
<!-- Generator: Adobe Illustrator 24.1.1, SVG Export Plug-In . SVG Version: 6.00 Build 0)  -->
<svg version="1.1" id="Capa_1" xmlns="http://www.w3.org/2000/svg" xmlns:xlink="http://www.w3.org/1999/xlink" x="0px" y="0px"
	 viewBox="0 0 29.3 29.3" style="enable-background:new 0 0 29.3 29.3;" xml:space="preserve">
<style type="text/css">
	.st0{fill:#00329C;}
</style>
<path class="st0" d="M24.8,6H4.5C3.1,6,2,7.1,2,8.5v12.4c0,1.4,1.1,2.5,2.5,2.5h20.3c1.4,0,2.5-1.1,2.5-2.5V8.5
	C27.3,7.1,26.2,6,24.8,6z M25.2,7.4c0.1,0,0.3,0,0.4,0.1L15,15.8L4.4,7.4H25.2z M4.7,21.9l7-5c0.3-0.2,0.3-0.5,0.1-0.8
	c-0.2-0.3-0.5-0.3-0.8-0.1l-7.6,5.3c-0.1-0.1-0.1-0.3-0.1-0.4V8.3c0-0.1,0-0.2,0-0.3l10.9,8.5c0.2,0.2,0.4,0.3,0.7,0.3
	s0.4-0.1,0.7-0.3L26,8.4v12.5c0,0,0,0,0,0.1l-7.1-5c-0.3-0.2-0.6-0.1-0.8,0.1c-0.2,0.3-0.1,0.6,0.1,0.8l7,5c-0.1,0-0.1,0-0.2,0
	C25,21.9,4.7,21.9,4.7,21.9z"/>
</svg>
