<?xml version="1.0" encoding="utf-8"?>
<!-- Generator: Adobe Illustrator 24.1.1, SVG Export Plug-In . SVG Version: 6.00 Build 0)  -->
<svg version="1.1" id="Capa_1" xmlns="http://www.w3.org/2000/svg" xmlns:xlink="http://www.w3.org/1999/xlink" x="0px" y="0px"
	 viewBox="0 0 29.3 29.3" style="enable-background:new 0 0 29.3 29.3;" xml:space="preserve">
<style type="text/css">
	.st0{fill:#00329C;}
</style>
<g>
	<g>
		<path class="st0" d="M14.6,0.5C8.3,0.5,3.1,5.7,3.1,12c0,4.9,3.1,9.4,7.7,10.9l2.2,5.4c0.3,0.5,0.9,0.8,1.6,0.8
			c0.6,0,1.2-0.3,1.6-0.8l2.2-5.4c4.6-1.6,7.7-6,7.7-10.9C26.1,5.7,21.1,0.5,14.6,0.5z M17.2,21.4l-2.6,6l-2.6-6
			c-4.1-1.1-7.1-4.9-7.1-9.4c0-5.3,4.4-9.7,9.7-9.7s9.7,4.4,9.7,9.7C24.3,16.5,21.3,20.3,17.2,21.4z"/>
		<path class="st0" d="M7.8,12c0-3.7,3-6.9,6.9-6.9c0.8,0,1.7,0.1,2.4,0.4c0.3,0.1,0.7,0,0.8-0.4c0.1-0.3,0-0.7-0.4-0.8
			c-0.9-0.3-1.9-0.5-2.8-0.5c-4.5,0-8.1,3.6-8.1,8.1c0,2.1,0.8,4.2,2.3,5.6c0.1,0.1,0.3,0.2,0.4,0.2c0.2,0,0.3-0.1,0.4-0.2
			c0.2-0.2,0.2-0.6,0-0.9C8.5,15.6,7.8,13.8,7.8,12z"/>
		<path class="st0" d="M22.6,10.5c-0.1-0.3-0.4-0.5-0.7-0.5c-0.3,0.1-0.5,0.4-0.5,0.7c0.1,0.4,0.1,0.8,0.1,1.2c0,3.7-3,6.9-6.9,6.9
			c-1,0-2.1-0.2-3-0.7c-0.3-0.1-0.7,0-0.8,0.3c-0.1,0.3,0,0.7,0.3,0.8c1.1,0.5,2.3,0.8,3.5,0.8c4.5,0,8.1-3.6,8.1-8.1
			C22.7,11.5,22.7,11,22.6,10.5z"/>
		<path class="st0" d="M20.5,8.5c0.1,0.2,0.3,0.3,0.5,0.3c0.1,0,0.2,0,0.3-0.1c0.3-0.2,0.4-0.5,0.2-0.8c-0.5-0.8-1-1.6-1.8-2.1
			c-0.3-0.2-0.6-0.2-0.9,0.1c-0.2,0.3-0.2,0.6,0.1,0.9C19.6,7.3,20.1,7.9,20.5,8.5z"/>
	</g>
</g>
</svg>
