<?xml version="1.0" encoding="utf-8"?>
<!-- Generator: Adobe Illustrator 24.1.1, SVG Export Plug-In . SVG Version: 6.00 Build 0)  -->
<svg version="1.1" id="Capa_1" xmlns="http://www.w3.org/2000/svg" xmlns:xlink="http://www.w3.org/1999/xlink" x="0px" y="0px"
	 viewBox="0 0 29.3 29.3" style="enable-background:new 0 0 29.3 29.3;" xml:space="preserve">
<style type="text/css">
	.st0{fill:#00329C;}
</style>
<g>
	<g>
		<path class="st0" d="M21.4,1.3H7.9C7,1.3,6.2,2.1,6.2,3v23.3c0,0.9,0.7,1.6,1.6,1.6h13.5c0.9,0,1.6-0.7,1.6-1.6V3
			C23.1,2.1,22.3,1.3,21.4,1.3z M21.4,26.2H7.9V3h13.5C21.4,3,21.4,26.2,21.4,26.2z"/>
		<path class="st0" d="M14.6,22.7c-0.6,0-1.2,0.5-1.2,1.2c0,0.6,0.5,1.2,1.2,1.2c0.6,0,1.2-0.5,1.2-1.2
			C15.8,23.2,15.3,22.7,14.6,22.7z"/>
		<path class="st0" d="M9.7,18.8c0.3,0,0.5-0.3,0.5-0.5V7.6H19v1.8c0,0.3,0.3,0.5,0.5,0.5c0.3,0,0.5-0.3,0.5-0.5V7.1
			c0-0.3-0.3-0.5-0.5-0.5H9.7c-0.3,0-0.5,0.3-0.5,0.5v11.2C9.2,18.5,9.4,18.8,9.7,18.8z"/>
		<path class="st0" d="M9.7,21.2h9.8c0.3,0,0.5-0.3,0.5-0.5v-8.6c0-0.3-0.3-0.5-0.5-0.5c-0.3,0-0.5,0.3-0.5,0.5v8.1H9.7
			c-0.3,0-0.5,0.3-0.5,0.5C9.2,21,9.4,21.2,9.7,21.2z"/>
		<path class="st0" d="M13,5.3h3.4c0.3,0,0.5-0.3,0.5-0.5c0-0.3-0.3-0.5-0.5-0.5H13c-0.3,0-0.5,0.3-0.5,0.5
			C12.4,5.1,12.6,5.3,13,5.3z"/>
	</g>
</g>
</svg>
