<?xml version="1.0" encoding="utf-8"?>
<!-- Generator: Adobe Illustrator 24.1.1, SVG Export Plug-In . SVG Version: 6.00 Build 0)  -->
<svg version="1.1" id="Capa_1" xmlns="http://www.w3.org/2000/svg" xmlns:xlink="http://www.w3.org/1999/xlink" x="0px" y="0px"
	 viewBox="0 0 29.3 29.3" style="enable-background:new 0 0 29.3 29.3;" xml:space="preserve">
<style type="text/css">
	.st0{fill:#00329C;}
	.st1{fill:none;stroke:#4AA1C8;stroke-width:1.989;stroke-linecap:round;stroke-linejoin:round;stroke-miterlimit:10;}
	.st2{enable-background:new    ;}
	.st3{opacity:0.3;fill:none;stroke:#4AA1C8;stroke-width:1.989;stroke-linecap:round;stroke-linejoin:round;stroke-miterlimit:10;}
	.st4{fill:none;stroke:#4AA1C8;stroke-width:3.9779;stroke-linecap:round;stroke-linejoin:round;stroke-miterlimit:10;}
	.st5{fill:#4AA1C8;}
	.st6{opacity:0.8;fill:none;stroke:#4AA1C8;stroke-width:1.989;stroke-linecap:round;stroke-linejoin:round;stroke-miterlimit:10;}
	.st7{fill:none;}
	.st8{fill:#EBEBEB;}
	.st9{fill:#FFFFFF;}
	.st10{fill:#010101;}
	.st11{fill-rule:evenodd;clip-rule:evenodd;}
	.st12{fill:#E6E6E6;}
	.st13{fill:none;stroke:#00329C;stroke-width:2.8993;stroke-miterlimit:10;}
	.st14{clip-path:url(#SVGID_2_);}
	.st15{fill:none;stroke:#00329C;stroke-width:1.9328;stroke-miterlimit:10;}
	.st16{fill:none;stroke:#00329C;stroke-width:1.4828;stroke-linecap:round;stroke-linejoin:round;stroke-miterlimit:10;}
	
		.st17{fill:none;stroke:#00329C;stroke-width:1.4828;stroke-linecap:round;stroke-linejoin:round;stroke-miterlimit:10;stroke-dasharray:5.1898;}
	
		.st18{fill:none;stroke:#00329C;stroke-width:1.4828;stroke-linecap:round;stroke-linejoin:round;stroke-miterlimit:10;stroke-dasharray:2.2242;}
	.st19{clip-path:url(#SVGID_4_);}
	.st20{clip-path:url(#SVGID_10_);}
	.st21{fill:none;stroke:#00329C;stroke-width:2.1843;stroke-miterlimit:10;}
	.st22{fill-rule:evenodd;clip-rule:evenodd;fill:#00329C;}
	.st23{fill:none;stroke:#FFFFFF;stroke-width:6.5701;stroke-miterlimit:10;}
	.st24{fill:none;stroke:#00329C;stroke-width:3;stroke-miterlimit:10;}
	.st25{fill:none;stroke:#00329C;stroke-width:2.7499;stroke-miterlimit:10;}
	.st26{clip-path:url(#SVGID_12_);}
	.st27{fill:#969695;}
	.st28{fill:url(#SVGID_13_);}
	.st29{fill:url(#SVGID_14_);}
	.st30{fill:#AAFFEF;}
	.st31{fill:#45DED4;}
	.st32{fill:#73F9E0;}
	.st33{fill:url(#SVGID_15_);}
	.st34{fill:url(#SVGID_16_);}
	.st35{fill:url(#SVGID_17_);}
	.st36{fill:url(#SVGID_18_);}
	.st37{fill:#BFBFBF;}
	.st38{clip-path:url(#SVGID_20_);}
	.st39{clip-path:url(#SVGID_22_);}
	.st40{clip-path:url(#SVGID_28_);}
	.st41{fill:none;stroke:#00329C;stroke-width:3.1316;stroke-miterlimit:10;}
</style>
<g>
	<g>
		<path class="st0" d="M22.1,0H7.2c-1,0-1.8,0.8-1.8,1.8v25.6c0,1,0.8,1.8,1.8,1.8h14.9c1,0,1.8-0.8,1.8-1.8V1.8
			C23.9,0.8,23.1,0,22.1,0z M22.1,27.4H7.2V1.8h14.9V27.4z"/>
		<path class="st0" d="M14.6,23.5c-0.7,0-1.3,0.6-1.3,1.3s0.6,1.3,1.3,1.3c0.7,0,1.3-0.6,1.3-1.3S15.4,23.5,14.6,23.5z"/>
		<path class="st0" d="M9.2,19.2c0.3,0,0.6-0.3,0.6-0.6V6.9h9.6v2c0,0.3,0.3,0.6,0.6,0.6c0.3,0,0.6-0.3,0.6-0.6V6.3
			c0-0.3-0.3-0.6-0.6-0.6H9.2c-0.3,0-0.6,0.3-0.6,0.6v12.3C8.6,18.9,8.9,19.2,9.2,19.2z"/>
		<path class="st0" d="M9.2,21.9h10.8c0.3,0,0.6-0.3,0.6-0.6v-9.5c0-0.3-0.3-0.6-0.6-0.6c-0.3,0-0.6,0.3-0.6,0.6v8.9H9.2
			c-0.3,0-0.6,0.3-0.6,0.6C8.6,21.6,8.9,21.9,9.2,21.9z"/>
		<path class="st0" d="M12.8,4.4h3.7c0.3,0,0.6-0.3,0.6-0.6c0-0.3-0.3-0.6-0.6-0.6h-3.7c-0.3,0-0.6,0.3-0.6,0.6
			C12.2,4.1,12.4,4.4,12.8,4.4z"/>
	</g>
</g>
</svg>
