<?xml version="1.0" encoding="utf-8"?>
<!-- Generator: Adobe Illustrator 24.1.1, SVG Export Plug-In . SVG Version: 6.00 Build 0)  -->
<svg version="1.1" id="Capa_1" xmlns="http://www.w3.org/2000/svg" xmlns:xlink="http://www.w3.org/1999/xlink" x="0px" y="0px"
	 viewBox="0 0 1345.6 238.8" style="enable-background:new 0 0 1345.6 238.8;" xml:space="preserve">
<style type="text/css">
	.st0{fill:#000A5F;}
</style>
<g>
	<g id="Capa_2_1_">
		<g id="Capa_1-2">
			<g>
				<path class="st0" d="M36.3,192.8H0V53.2h57.8c15.7,0,27.7,4.1,36,12.2s12.5,19.6,12.5,34.5c0,14.8-4.2,26.3-12.5,34.4
					s-20.3,12.2-36,12.2H36.3V192.8z M36.3,117.2h12c13.3,0,20-5.8,20-17.4s-6.7-17.4-20-17.4h-12L36.3,117.2z"/>
				<path class="st0" d="M241.7,192.8h-45.2l-34.6-53.7v53.7h-36.3V53.2h56.5c6.9-0.1,13.9,1,20.4,3.4c10.7,3.9,19,12.4,22.9,23.1
					c1.9,5.3,2.9,11,2.9,16.7c0,10.6-2.6,19.2-7.7,25.8c-5.1,6.6-12.7,11.1-22.7,13.4L241.7,192.8z M161.9,115.6h6.9
					c7.2,0,12.7-1.5,16.5-4.4c3.8-3,5.8-7.2,5.8-12.8c0-5.6-1.9-9.8-5.7-12.8c-3.8-3-9.3-4.4-16.5-4.4h-6.9L161.9,115.6z"/>
				<path class="st0" d="M248,123c-0.4-30.1,18-57.2,46-68.1c20.1-7.5,42.2-7.5,62.3,0c9.1,3.5,17.5,8.8,24.5,15.7
					c6.8,6.7,12.3,14.6,16,23.4c3.9,9.2,5.8,19,5.7,29c0.1,10-1.9,19.8-5.7,29c-3.7,8.8-9.2,16.8-16,23.4
					c-7.1,6.8-15.4,12.1-24.5,15.6c-20.1,7.5-42.2,7.5-62.3,0C266,180.2,247.7,153.1,248,123z M286,123c-0.1,5.3,1,10.5,3.1,15.4
					c2,4.6,4.9,8.7,8.5,12.2c3.6,3.5,7.9,6.2,12.5,8c9.7,3.8,20.5,3.8,30.2,0c4.7-1.8,8.9-4.6,12.6-8c3.7-3.5,6.6-7.6,8.6-12.2
					c4.2-9.8,4.2-20.9,0-30.7c-2-4.6-5-8.8-8.6-12.2c-11.5-10.7-28.2-13.8-42.8-8c-9.4,3.7-16.9,11-21,20.3
					C287,112.5,286,117.7,286,123z"/>
				<path class="st0" d="M425.6,53.2h53.7c9.2-0.1,18.4,1.9,26.8,5.7c8.2,3.7,15.6,8.9,21.9,15.3c6.2,6.4,11.2,14,14.7,22.2
					c7.1,16.9,7.2,36,0.1,53c-3.4,8.3-8.4,15.9-14.6,22.3c-6.3,6.4-13.7,11.7-21.9,15.4c-8.5,3.9-17.7,5.8-27,5.8h-53.7V53.2z
					 M461.9,162.1h8.3c5.8,0.1,11.5-0.9,16.9-3c4.7-1.8,8.9-4.6,12.5-8.1c3.4-3.5,6.1-7.7,7.8-12.3c1.8-5,2.7-10.3,2.7-15.6
					c0-5.3-0.9-10.6-2.8-15.6c-3.5-9.5-10.9-17-20.4-20.6c-5.3-2.1-11-3.1-16.7-3h-8.3L461.9,162.1z"/>
				<path class="st0" d="M607.5,53.2v75.9c0,4.1,0.2,8.2,0.5,12.5c0.2,4,1.2,7.9,2.8,11.6c1.6,3.5,4.1,6.4,7.3,8.4
					c3.3,2.2,8,3.2,14.1,3.2s10.7-1.1,14-3.2c3.2-2.1,5.7-5,7.3-8.4c1.7-3.7,2.6-7.6,2.9-11.6c0.3-4.3,0.5-8.4,0.5-12.5V53.2h36.1
					v80.9c0,21.7-5,37.6-14.9,47.6s-25.2,15-45.8,15c-20.6,0-35.9-5-45.9-15s-15-25.9-15-47.6V53.2H607.5z"/>
				<path class="st0" d="M822.7,99.8c-8.4-10.2-18.8-15.4-31.1-15.4c-5.2,0-10.3,1-15.1,3c-9.1,3.8-16.2,11-19.8,20.2
					c-1.9,4.8-2.9,10-2.9,15.2c-0.1,5.3,0.9,10.5,2.9,15.4c5.7,14.2,19.5,23.5,34.7,23.3c11.6,0,22-4.9,31.3-14.8v43L819,191
					c-5.1,1.8-10.3,3.3-15.6,4.4c-4.7,0.9-9.5,1.4-14.3,1.4c-19.1,0-37.4-7.5-51-20.8c-6.8-6.8-12.3-14.8-16.2-23.6
					c-4.1-9.4-6.2-19.5-6.1-29.7c-0.1-10.2,1.9-20.2,6-29.5c11.9-26.7,38.3-43.8,67.5-43.8c5.5,0,11,0.6,16.4,1.7
					c5.8,1.3,11.5,3.1,17,5.5L822.7,99.8z"/>
				<path class="st0" d="M946.3,99.8c-8.4-10.2-18.8-15.4-31.1-15.4c-5.2,0-10.3,1-15.1,3c-9.1,3.8-16.2,11-19.8,20.2
					c-1.9,4.8-2.9,10-2.9,15.2c-0.1,5.3,0.9,10.5,2.9,15.4c5.7,14.2,19.5,23.4,34.8,23.3c11.6,0,22-4.9,31.3-14.8v43l-3.8,1.3
					c-5.1,1.8-10.3,3.3-15.5,4.3c-4.7,0.9-9.5,1.4-14.3,1.4c-19.1,0-37.4-7.5-51-20.8c-6.8-6.8-12.3-14.7-16.2-23.5
					c-4.1-9.4-6.2-19.5-6.1-29.7c-0.1-10.2,1.9-20.2,6-29.5c11.9-26.7,38.3-43.8,67.5-43.8c5.5,0,11,0.6,16.4,1.7
					c5.8,1.3,11.5,3.1,17,5.5L946.3,99.8z"/>
				<path class="st0" d="M1005.5,53.2v139.6h-36.3V53.2H1005.5z"/>
				<path class="st0" d="M1028.5,123c-0.1-10,1.9-19.8,5.7-29c3.7-8.8,9.1-16.8,15.9-23.4c7-6.8,15.3-12.1,24.3-15.7
					c20.1-7.5,42.2-7.5,62.3,0c9.1,3.5,17.5,8.9,24.5,15.7c6.8,6.7,12.3,14.6,16,23.4c7.7,18.6,7.7,39.4,0,58
					c-3.7,8.8-9.2,16.8-16,23.4c-7.1,6.8-15.4,12.1-24.5,15.6c-20.1,7.5-42.2,7.5-62.3,0c-9.1-3.5-17.4-8.9-24.3-15.6
					c-6.8-6.7-12.2-14.6-15.9-23.4C1030.3,142.8,1028.4,133,1028.5,123z M1066.5,123c-0.1,5.3,1,10.5,3.1,15.4
					c2,4.6,4.9,8.7,8.5,12.2c3.6,3.5,7.9,6.2,12.5,8c9.7,3.8,20.5,3.8,30.2,0c4.7-1.8,8.9-4.6,12.6-8c3.6-3.5,6.6-7.6,8.6-12.2
					c4.2-9.8,4.2-20.9,0-30.7c-2-4.6-5-8.8-8.6-12.2c-11.5-10.7-28.2-13.8-42.8-8c-4.6,1.8-8.9,4.5-12.5,8
					c-3.6,3.5-6.5,7.6-8.5,12.2C1067.5,112.5,1066.4,117.7,1066.5,123L1066.5,123z M1139.1,17.6L1103.5,42l-14.1-13.1L1119.6,0
					L1139.1,17.6z"/>
				<path class="st0" d="M1206.1,192.8V53.2h36.3l67,85.4V53.2h36.1v139.6h-36.1l-67-85.4v85.4H1206.1z"/>
			</g>
		</g>
	</g>
</g>
</svg>
