<svg xmlns="http://www.w3.org/2000/svg" viewBox="0 0 438.4 556.22"><defs><style>.cls-1{fill:#4aa1c8;}</style></defs><g id="Capa_2" data-name="Capa 2"><g id="Capa_1-2" data-name="Capa 1"><path class="cls-1" d="M304.08,170.5l1.37.59Z"/><path class="cls-1" d="M305.35,171.7a.42.42,0,0,1-.15,0l-1.36-.59a.61.61,0,0,1-.37-.66.83.83,0,0,1,0-.15.63.63,0,0,1,.82-.33l1.36.59a.62.62,0,0,1,.37.66.94.94,0,0,1,0,.16A.63.63,0,0,1,305.35,171.7Z"/><path class="cls-1" d="M303.05,170.06l2.4,1Z"/><path class="cls-1" d="M305.35,171.7a.42.42,0,0,1-.15,0l-2.39-1a.62.62,0,0,1-.37-.66.75.75,0,0,1,0-.16.63.63,0,0,1,.82-.32l2.39,1a.62.62,0,0,1,.37.66.94.94,0,0,1,0,.16A.63.63,0,0,1,305.35,171.7Z"/><polygon class="cls-1" points="303.05 170.06 305.45 171.09 306.28 171.04 303.05 170.06"/><path class="cls-1" d="M305.35,171.7a.42.42,0,0,1-.15,0l-2.39-1a.63.63,0,0,1-.34-.79.62.62,0,0,1,.76-.38l3.23,1a.61.61,0,0,1,.43.67.6.6,0,0,1-.58.54l-.83.05Z"/><polygon class="cls-1" points="302.52 169.42 303.05 170.06 306.28 171.04 302.52 169.42"/><path class="cls-1" d="M306.19,171.66l-.09,0-3.23-1a.57.57,0,0,1-.29-.19l-.53-.64a.62.62,0,0,1,0-.77.64.64,0,0,1,.75-.2l3.75,1.62a.63.63,0,0,1,.34.79A.62.62,0,0,1,306.19,171.66Z"/><path class="cls-1" d="M302.52,169.42l4.44,1.92Z"/><path class="cls-1" d="M306.87,172l-.16,0L302.27,170a.62.62,0,0,1-.36-.66.42.42,0,0,1,0-.15.63.63,0,0,1,.82-.33l4.44,1.92a.62.62,0,0,1,.36.66.42.42,0,0,1,0,.15A.61.61,0,0,1,306.87,172Z"/><path class="cls-1" d="M302.18,169.27l4.78,2.07Z"/><path class="cls-1" d="M306.87,172l-.16,0-4.78-2.07a.63.63,0,0,1-.37-.66.44.44,0,0,1,.05-.15.62.62,0,0,1,.81-.33l4.79,2.07a.62.62,0,0,1,.36.66.42.42,0,0,1,0,.15A.61.61,0,0,1,306.87,172Z"/><polygon class="cls-1" points="302.18 169.27 306.96 171.34 305.75 167.57 302.18 169.27"/><path class="cls-1" d="M306.87,172l-.16,0-4.78-2.07a.62.62,0,0,1,0-1.12l3.57-1.71a.64.64,0,0,1,.86.37l1.21,3.77a.61.61,0,0,1-.68.8Zm-3.19-2.7,2.27,1-.58-1.79Z"/><polygon class="cls-1" points="335.73 167.54 305.75 167.57 306.96 171.34 335.73 167.54"/><path class="cls-1" d="M306.87,172a.6.6,0,0,1-.5-.42l-1.21-3.76a.62.62,0,0,1,.09-.56.61.61,0,0,1,.5-.26l30,0a.62.62,0,0,1,.62.58.62.62,0,0,1-.54.66L307,172A.48.48,0,0,1,306.87,172Zm-.27-3.76.79,2.46,18.82-2.48Z"/><polygon class="cls-1" points="336.42 167.84 305.75 167.57 335.73 167.54 336.42 167.84"/><path class="cls-1" d="M305.65,168.19a.62.62,0,0,1,.1-1.24l30,0a.7.7,0,0,1,.25.05l.68.3a.61.61,0,0,1,.36.69.63.63,0,0,1-.61.5l-30.67-.27Z"/><polygon class="cls-1" points="336.71 167.15 305.75 167.57 336.42 167.84 336.71 167.15"/><path class="cls-1" d="M305.65,168.19a.62.62,0,0,1-.52-.61.63.63,0,0,1,.61-.63l31-.42a.6.6,0,0,1,.52.28.62.62,0,0,1,.06.59l-.3.68a.61.61,0,0,1-.57.38l-30.67-.27Z"/><polygon class="cls-1" points="337.2 166.96 305.75 167.57 336.71 167.15 337.2 166.96"/><path class="cls-1" d="M305.65,168.19a.62.62,0,0,1,.09-1.24l31.45-.61a.61.61,0,0,1,.62.5.62.62,0,0,1-.38.7l-.49.19a.57.57,0,0,1-.22,0l-31,.42Z"/><polygon class="cls-1" points="337 166.47 305.75 167.57 337.2 166.96 337 166.47"/><path class="cls-1" d="M305.65,168.19a.62.62,0,0,1-.52-.6.61.61,0,0,1,.6-.63L337,165.85a.63.63,0,0,1,.6.39l.2.49a.64.64,0,0,1-.06.57.61.61,0,0,1-.51.28l-31.45.61Z"/><polygon class="cls-1" points="337.15 166.13 305.75 167.57 337 166.47 337.15 166.13"/><path class="cls-1" d="M305.65,168.19a.63.63,0,0,1-.52-.59.61.61,0,0,1,.59-.64l31.4-1.45a.62.62,0,0,1,.54.27.6.6,0,0,1,.06.59l-.15.35a.6.6,0,0,1-.54.37l-31.26,1.1Z"/><polygon class="cls-1" points="336.47 165.83 305.75 167.57 337.15 166.13 336.47 165.83"/><path class="cls-1" d="M305.65,168.19a.62.62,0,0,1-.52-.58.61.61,0,0,1,.58-.65l30.72-1.75a.87.87,0,0,1,.28,0l.69.3a.62.62,0,0,1-.22,1.19l-31.4,1.44Z"/><polygon class="cls-1" points="335.35 163.73 305.75 167.57 336.47 165.83 335.35 163.73"/><path class="cls-1" d="M305.65,168.19a.63.63,0,0,1-.52-.56.62.62,0,0,1,.54-.67l29.6-3.84a.62.62,0,0,1,.63.32l1.12,2.1a.67.67,0,0,1,0,.6.64.64,0,0,1-.51.31l-30.72,1.74ZM335,164.4,322.78,166l12.69-.72Z"/><polygon class="cls-1" points="278.87 131.28 302.17 169.27 305.75 167.57 278.87 131.28"/><path class="cls-1" d="M302.08,169.89a.66.66,0,0,1-.44-.29l-23.3-38a.62.62,0,0,1,1-.7l26.87,36.3a.61.61,0,0,1,.11.51.63.63,0,0,1-.34.41l-3.57,1.7A.58.58,0,0,1,302.08,169.89Zm-15.25-26.82,15.58,25.41,2.39-1.14Z"/><polygon class="cls-1" points="276.34 127.76 302.17 169.27 278.87 131.28 276.34 127.76"/><path class="cls-1" d="M302.08,169.89a.64.64,0,0,1-.43-.29l-25.84-41.51a.63.63,0,0,1,.18-.84.62.62,0,0,1,.85.15l2.53,3.52,23.33,38a.62.62,0,0,1-.2.85A.63.63,0,0,1,302.08,169.89Z"/><polygon class="cls-1" points="232.63 106.08 232.82 106.57 233.65 106.52 232.63 106.08"/><path class="cls-1" d="M232.73,107.18a.64.64,0,0,1-.49-.38l-.19-.49a.63.63,0,0,1,.82-.8l1,.44a.62.62,0,0,1-.21,1.19l-.83,0Z"/><path class="cls-1" d="M232.63,106.08l1.37.59Z"/><path class="cls-1" d="M233.9,107.28a.42.42,0,0,1-.15,0l-1.37-.59A.62.62,0,0,1,232,106a.42.42,0,0,1,0-.15.62.62,0,0,1,.81-.33l1.37.59a.63.63,0,0,1,.37.66.94.94,0,0,1,0,.16A.62.62,0,0,1,233.9,107.28Z"/><path class="cls-1" d="M232.29,105.93l1.71.74Z"/><path class="cls-1" d="M233.91,107.28a.42.42,0,0,1-.16,0L232,106.5a.63.63,0,0,1-.37-.66.44.44,0,0,1,.05-.15.62.62,0,0,1,.81-.33l1.71.74a.62.62,0,0,1,.37.66.94.94,0,0,1,0,.16A.61.61,0,0,1,233.91,107.28Z"/><path class="cls-1" d="M232.29,105.93l1.71.74Z"/><path class="cls-1" d="M233.9,107.28a.42.42,0,0,1-.15,0L232,106.5a.63.63,0,0,1-.37-.66.83.83,0,0,1,0-.15.63.63,0,0,1,.82-.33l1.71.74a.63.63,0,0,1,.37.66.94.94,0,0,1,0,.16A.62.62,0,0,1,233.9,107.28Z"/><polygon class="cls-1" points="232.29 105.93 234 106.67 234.49 106.48 232.29 105.93"/><path class="cls-1" d="M233.9,107.29l-.15-.05L232,106.5a.6.6,0,0,1-.34-.76.62.62,0,0,1,.73-.41l2.2.55a.59.59,0,0,1,.47.55.61.61,0,0,1-.39.62l-.48.2A.75.75,0,0,1,233.9,107.29Z"/><polygon class="cls-1" points="232.29 105.93 234.49 106.48 234.97 106.28 232.29 105.93"/><path class="cls-1" d="M234.39,107.09h0l-2.2-.54a.62.62,0,0,1,.22-1.22l2.69.35a.65.65,0,0,1,.54.53.63.63,0,0,1-.39.66l-.49.19A.58.58,0,0,1,234.39,107.09Z"/><polygon class="cls-1" points="234.63 106.14 232.28 105.93 234.97 106.28 234.63 106.14"/><path class="cls-1" d="M232.19,106.55a.62.62,0,0,1,.15-1.23l2.35.2a.45.45,0,0,1,.19,0l.34.14a.64.64,0,0,1,.35.74.62.62,0,0,1-.68.45l-2.68-.35Z"/><polygon class="cls-1" points="232.29 105.93 234.63 106.14 234.78 105.79 232.29 105.93"/><path class="cls-1" d="M232.19,106.55a.62.62,0,0,1-.52-.63.6.6,0,0,1,.58-.6l2.5-.14a.59.59,0,0,1,.54.26.64.64,0,0,1,.06.6l-.15.34a.59.59,0,0,1-.62.37l-2.35-.2Z"/><path class="cls-1" d="M373.25,162.25l1.36.59Z"/><path class="cls-1" d="M374.52,163.45l-.15,0-1.37-.59a.61.61,0,0,1-.36-.66.47.47,0,0,1,0-.16.62.62,0,0,1,.81-.32l1.37.59a.63.63,0,0,1,.37.66.44.44,0,0,1-.05.15A.61.61,0,0,1,374.52,163.45Z"/><path class="cls-1" d="M373.25,162.25l2.05.88Z"/><path class="cls-1" d="M375.21,163.75a.44.44,0,0,1-.15-.05l-2.06-.88a.61.61,0,0,1-.36-.66.47.47,0,0,1,0-.16.62.62,0,0,1,.81-.32l2.06.89a.61.61,0,0,1,.36.66.42.42,0,0,1,0,.15A.63.63,0,0,1,375.21,163.75Z"/><path class="cls-1" d="M372.57,162l2.73,1.17Z"/><path class="cls-1" d="M375.21,163.75a.44.44,0,0,1-.15-.05l-2.74-1.17a.61.61,0,0,1-.36-.66.42.42,0,0,1,0-.16.62.62,0,0,1,.81-.32l2.74,1.18a.61.61,0,0,1,.36.66.42.42,0,0,1,0,.15A.63.63,0,0,1,375.21,163.75Z"/><polygon class="cls-1" points="372.57 161.96 375.3 163.13 376.13 163.09 372.57 161.96"/><path class="cls-1" d="M375.21,163.75a.44.44,0,0,1-.15-.05l-2.74-1.17a.62.62,0,0,1,.44-1.16l3.55,1.13a.61.61,0,0,1,.43.66.62.62,0,0,1-.58.55l-.82,0Z"/><polygon class="cls-1" points="372.37 161.47 372.57 161.96 376.13 163.09 372.37 161.47"/><path class="cls-1" d="M376,163.7l-.1,0-3.56-1.13a.63.63,0,0,1-.39-.36l-.19-.49a.62.62,0,0,1,.82-.8l3.75,1.62a.61.61,0,0,1,.34.78A.63.63,0,0,1,376,163.7Z"/><polygon class="cls-1" points="372.37 161.47 376.13 163.09 371.1 159.71 372.37 161.47"/><path class="cls-1" d="M376,163.7l-.16,0L372.13,162a.75.75,0,0,1-.26-.21l-1.27-1.76a.62.62,0,0,1,.06-.79.61.61,0,0,1,.79-.09l5,3.38a.62.62,0,0,1,.2.81A.6.6,0,0,1,376,163.7Z"/><polygon class="cls-1" points="213.93 81.82 232.28 105.93 234.78 105.8 213.93 81.82"/><path class="cls-1" d="M232.19,106.55a.64.64,0,0,1-.4-.24L213.43,82.2a.62.62,0,0,1,1-.79l20.86,24a.64.64,0,0,1,.1.65.62.62,0,0,1-.54.37l-2.49.14A.57.57,0,0,1,232.19,106.55Zm-6.26-10,6.65,8.73.9,0Z"/><polygon class="cls-1" points="213.54 80.84 213.93 81.82 234.78 105.79 213.54 80.84"/><path class="cls-1" d="M234.69,106.41a.61.61,0,0,1-.38-.21l-20.85-24a.58.58,0,0,1-.11-.18l-.39-1a.63.63,0,0,1,.26-.76.62.62,0,0,1,.79.13l21.24,25a.62.62,0,0,1-.07.87A.6.6,0,0,1,234.69,106.41Z"/><polygon class="cls-1" points="213.15 79.86 213.54 80.84 234.78 105.8 213.15 79.86"/><path class="cls-1" d="M234.69,106.41a.61.61,0,0,1-.38-.21l-21.24-25a.62.62,0,0,1-.11-.17l-.39-1a.63.63,0,0,1,.26-.76.62.62,0,0,1,.79.14l21.64,25.93a.62.62,0,0,1-.57,1Z"/><polygon class="cls-1" points="221.5 83.06 213.15 79.86 234.78 105.79 221.5 83.06"/><path class="cls-1" d="M234.69,106.41a.62.62,0,0,1-.39-.22L212.67,80.26a.63.63,0,0,1,0-.76.65.65,0,0,1,.73-.22l8.35,3.2a.61.61,0,0,1,.31.26l13.28,22.74a.61.61,0,0,1-.18.82A.59.59,0,0,1,234.69,106.41ZM215.15,81.29l15.35,18.4-9.43-16.13Z"/><polygon class="cls-1" points="213.15 79.86 221.5 83.06 213.11 79.03 213.15 79.86"/><path class="cls-1" d="M221.4,83.67l-.13,0-8.34-3.2a.6.6,0,0,1-.4-.54l0-.83a.61.61,0,0,1,.88-.59l8.39,4a.62.62,0,0,1-.36,1.17Z"/><polygon class="cls-1" points="213.11 79.03 221.5 83.06 221.3 82.57 213.11 79.03"/><path class="cls-1" d="M221.4,83.67l-.17,0-8.39-4a.61.61,0,0,1-.3-.81.62.62,0,0,1,.81-.31L221.54,82a.58.58,0,0,1,.33.34l.2.49a.6.6,0,0,1-.15.68A.62.62,0,0,1,221.4,83.67Z"/><polygon class="cls-1" points="213.11 79.03 221.3 82.57 221.1 82.08 213.11 79.03"/><path class="cls-1" d="M221.21,83.18l-.16,0-8.19-3.53a.62.62,0,0,1,.47-1.15l8,3a.59.59,0,0,1,.36.35l.19.49a.6.6,0,0,1-.14.67A.61.61,0,0,1,221.21,83.18Z"/><polygon class="cls-1" points="213.11 79.03 221.1 82.08 213.4 78.35 213.11 79.03"/><path class="cls-1" d="M221,82.69l-.13,0-8-3a.66.66,0,0,1-.35-.33.64.64,0,0,1,0-.49l.29-.68a.62.62,0,0,1,.35-.34.64.64,0,0,1,.49,0l7.7,3.73a.62.62,0,0,1-.36,1.17Z"/><polygon class="cls-1" points="213.4 78.35 221.1 82.08 221.4 81.39 213.4 78.35"/><path class="cls-1" d="M221,82.69l-.18,0-7.7-3.73a.62.62,0,0,1,.49-1.14l8,3a.63.63,0,0,1,.35.33.6.6,0,0,1,0,.49l-.3.68a.59.59,0,0,1-.35.34A.55.55,0,0,1,221,82.69Z"/><polygon class="cls-1" points="213.4 78.35 221.4 81.39 213.69 77.67 213.4 78.35"/><path class="cls-1" d="M221.31,82l-.13,0-8-3a.59.59,0,0,1-.35-.34.57.57,0,0,1,0-.48l.29-.69a.65.65,0,0,1,.36-.33.61.61,0,0,1,.48,0l7.71,3.73a.62.62,0,0,1,.3.8A.63.63,0,0,1,221.31,82Z"/><polygon class="cls-1" points="213.69 77.67 221.4 81.39 221.55 81.05 213.69 77.67"/><path class="cls-1" d="M221.31,82a.64.64,0,0,1-.18-.06l-7.71-3.72a.63.63,0,0,1-.29-.82.62.62,0,0,1,.81-.31l7.85,3.38a.63.63,0,0,1,.33.82l-.15.34a.65.65,0,0,1-.35.34A.82.82,0,0,1,221.31,82Z"/><polygon class="cls-1" points="213.69 77.67 221.55 81.05 222.03 80.86 213.69 77.67"/><path class="cls-1" d="M221.45,81.67l-.15,0-7.85-3.38a.62.62,0,0,1,.47-1.15l8.34,3.19a.62.62,0,0,1,.39.58.61.61,0,0,1-.39.58l-.49.19A.69.69,0,0,1,221.45,81.67Z"/><polygon class="cls-1" points="213.84 77.33 213.69 77.67 222.03 80.86 213.84 77.33"/><path class="cls-1" d="M221.94,81.47a.31.31,0,0,1-.13,0l-8.34-3.19a.62.62,0,0,1-.35-.34.69.69,0,0,1,0-.49l.15-.34a.64.64,0,0,1,.34-.33.62.62,0,0,1,.48,0l8.19,3.53a.62.62,0,0,1-.34,1.18Z"/><polygon class="cls-1" points="213.84 77.33 222.03 80.86 222.87 80.81 213.84 77.33"/><path class="cls-1" d="M221.94,81.47a.42.42,0,0,1-.15,0L213.6,77.9a.62.62,0,0,1,.47-1.15l9,3.48a.64.64,0,0,1,.39.68.63.63,0,0,1-.58.52l-.83,0Z"/><polygon class="cls-1" points="213.84 77.33 222.87 80.81 214.47 76.79 213.84 77.33"/><path class="cls-1" d="M222.77,81.43l-.13,0-9-3.48a.64.64,0,0,1-.39-.48.6.6,0,0,1,.21-.57l.63-.54a.63.63,0,0,1,.67-.09l8.39,4a.62.62,0,0,1-.36,1.18Z"/><polygon class="cls-1" points="214.47 76.79 222.87 80.81 215.45 76.4 214.47 76.79"/><path class="cls-1" d="M222.77,81.43a.49.49,0,0,1-.17-.06l-8.39-4a.63.63,0,0,1-.36-.58.65.65,0,0,1,.39-.56l1-.38a.6.6,0,0,1,.55,0l7.41,4.41a.62.62,0,0,1,.23.83A.65.65,0,0,1,222.77,81.43Z"/><polygon class="cls-1" points="400.56 156.21 371.11 159.71 376.13 163.09 400.56 156.21"/><path class="cls-1" d="M376,163.7a.64.64,0,0,1-.26-.1l-5-3.38a.62.62,0,0,1,.27-1.13l29.46-3.5a.62.62,0,0,1,.24,1.21l-24.43,6.88A.59.59,0,0,1,376,163.7Zm-3.2-3.58,3.4,2.29,16.53-4.65Z"/><polygon class="cls-1" points="215.45 76.4 222.87 80.81 216.43 76.01 215.45 76.4"/><path class="cls-1" d="M222.77,81.43a.68.68,0,0,1-.22-.09l-7.42-4.41a.61.61,0,0,1,.09-1.1l1-.39a.62.62,0,0,1,.6.08l6.43,4.8a.61.61,0,0,1,.15.84A.65.65,0,0,1,222.77,81.43Z"/><polygon class="cls-1" points="232.29 79.61 216.43 76.01 222.87 80.81 232.29 79.61"/><path class="cls-1" d="M222.77,81.43a.77.77,0,0,1-.28-.12l-6.43-4.8a.61.61,0,0,1-.19-.76.63.63,0,0,1,.7-.34L232.43,79a.61.61,0,0,1,.48.63.62.62,0,0,1-.54.59l-9.43,1.2Zm-3.63-4.17L223,80.17l5.7-.73Z"/><polygon class="cls-1" points="237.08 81.67 302.17 169.28 276.34 127.76 237.08 81.67"/><path class="cls-1" d="M302.08,169.89a.62.62,0,0,1-.4-.25l-65.1-87.59a.62.62,0,0,1,1-.78l39.26,46.09.05.07L302.7,169a.61.61,0,0,1-.18.84A.63.63,0,0,1,302.08,169.89Zm-53.4-73.63,45,60.58-17.86-28.71Z"/><polygon class="cls-1" points="406.48 154.7 400.56 156.21 407.15 155 406.48 154.7"/><path class="cls-1" d="M400.47,156.82a.61.61,0,0,1-.51-.48.62.62,0,0,1,.45-.73l5.91-1.51a.61.61,0,0,1,.4,0l.68.29a.63.63,0,0,1,.37.64.62.62,0,0,1-.5.54l-6.59,1.21A.74.74,0,0,1,400.47,156.82Z"/><polygon class="cls-1" points="407.15 155 400.56 156.21 376.13 163.09 407.15 155"/><path class="cls-1" d="M376,163.7a.62.62,0,0,1-.08-1.21l24.44-6.88,6.64-1.22a.61.61,0,0,1,.72.47.63.63,0,0,1-.45.74l-31,8.09A.65.65,0,0,1,376,163.7Z"/><polygon class="cls-1" points="408.33 155.1 407.15 155 376.13 163.09 408.33 155.1"/><path class="cls-1" d="M376,163.7a.62.62,0,0,1-.51-.46.61.61,0,0,1,.44-.75l31-8.09a.5.5,0,0,1,.21,0l1.17.1a.62.62,0,0,1,.1,1.22l-32.2,8A.66.66,0,0,1,376,163.7Z"/><polygon class="cls-1" points="400.56 156.21 406.48 154.7 405.94 154.07 400.56 156.21"/><path class="cls-1" d="M400.47,156.82a.62.62,0,0,1-.14-1.19l5.38-2.14a.62.62,0,0,1,.7.18l.54.64a.61.61,0,0,1,.12.58.64.64,0,0,1-.44.42l-5.91,1.5A.71.71,0,0,1,400.47,156.82Z"/><polygon class="cls-1" points="216.43 76.01 232.29 79.61 233.13 79.57 216.43 76.01"/><path class="cls-1" d="M232.2,80.22h0l-15.86-3.6a.62.62,0,0,1,.27-1.21L233.26,79a.62.62,0,0,1-.1,1.22l-.83,0Z"/><polygon class="cls-1" points="409.01 155.39 408.33 155.1 376.13 163.09 409.01 155.39"/><path class="cls-1" d="M376,163.7a.62.62,0,0,1-.51-.47.61.61,0,0,1,.45-.74l32.2-8a.53.53,0,0,1,.39,0l.69.29a.64.64,0,0,1,.37.63.61.61,0,0,1-.48.55l-32.88,7.69A.6.6,0,0,1,376,163.7Z"/><polygon class="cls-1" points="405.25 153.77 400.56 156.21 405.94 154.07 405.25 153.77"/><path class="cls-1" d="M400.47,156.82a.62.62,0,0,1-.47-.36.6.6,0,0,1,.28-.8l4.69-2.44a.65.65,0,0,1,.53,0l.69.3a.63.63,0,0,1,.37.58.61.61,0,0,1-.39.56l-5.38,2.14A.58.58,0,0,1,400.47,156.82Z"/><polygon class="cls-1" points="233.13 79.57 216.43 76.01 233.81 79.86 233.13 79.57"/><path class="cls-1" d="M233.72,80.47h0l-17.39-3.85a.63.63,0,0,1-.47-.74.61.61,0,0,1,.74-.47L233.26,79l.11,0,.68.29a.62.62,0,0,1,.35.76A.61.61,0,0,1,233.72,80.47Z"/><polygon class="cls-1" points="409.5 155.2 409.01 155.39 376.13 163.09 409.5 155.2"/><path class="cls-1" d="M376,163.7a.62.62,0,0,1-.06-1.22l33.37-7.89a.62.62,0,0,1,.38,1.18l-.48.2-.1,0-32.88,7.69A.6.6,0,0,1,376,163.7Z"/><polygon class="cls-1" points="400.56 156.21 405.25 153.77 404.72 153.14 400.56 156.21"/><path class="cls-1" d="M400.47,156.82a.64.64,0,0,1-.43-.29.61.61,0,0,1,.16-.82l4.15-3.07a.63.63,0,0,1,.85.1l.53.63a.62.62,0,0,1,.13.52.6.6,0,0,1-.32.43l-4.69,2.44A.63.63,0,0,1,400.47,156.82Z"/><polygon class="cls-1" points="233.81 79.86 234.64 79.81 228.69 74.82 233.81 79.86"/><path class="cls-1" d="M233.72,80.47a.61.61,0,0,1-.35-.17l-5.11-5a.62.62,0,0,1,.83-.91l5.94,5a.62.62,0,0,1-.36,1.09l-.82,0Z"/><polygon class="cls-1" points="228.69 74.82 216.43 76.01 233.81 79.86 228.69 74.82"/><path class="cls-1" d="M233.72,80.47h0l-17.39-3.85a.63.63,0,0,1-.48-.64.61.61,0,0,1,.56-.58l12.26-1.2a.65.65,0,0,1,.5.18l5.11,5a.62.62,0,0,1-.52,1Zm-13.35-4.22,11.47,2.54-3.38-3.33Z"/><polygon class="cls-1" points="228.69 74.82 234.64 79.81 229.18 74.62 228.69 74.82"/><path class="cls-1" d="M234.54,80.43a.69.69,0,0,1-.3-.14l-6-5a.65.65,0,0,1-.21-.58.63.63,0,0,1,.38-.47l.49-.2a.62.62,0,0,1,.66.13l5.45,5.18a.63.63,0,0,1,0,.87A.64.64,0,0,1,234.54,80.43Z"/><polygon class="cls-1" points="234.64 79.81 235.32 80.11 229.18 74.62 234.64 79.81"/><path class="cls-1" d="M235.23,80.72l-.15,0-.69-.3a.57.57,0,0,1-.18-.12l-5.46-5.19a.63.63,0,0,1,0-.87.64.64,0,0,1,.87,0l6.15,5.49a.62.62,0,0,1-.51,1.07Z"/><polygon class="cls-1" points="235.86 80.74 235.32 80.11 229.18 74.62 235.86 80.74"/><path class="cls-1" d="M235.77,81.36a.6.6,0,0,1-.33-.16l-6.68-6.12a.62.62,0,0,1,0-.87.63.63,0,0,1,.87,0l6.15,5.49.59.7a.62.62,0,0,1-.56,1Z"/><polygon class="cls-1" points="235.86 80.74 236.54 81.04 229.18 74.62 235.86 80.74"/><path class="cls-1" d="M236.45,81.65l-.16,0-.68-.3a.45.45,0,0,1-.17-.11l-6.68-6.12a.62.62,0,0,1,.83-.92L237,80.57a.61.61,0,0,1,.11.8A.6.6,0,0,1,236.45,81.65Z"/><polygon class="cls-1" points="229.18 74.62 236.54 81.04 229.67 74.43 229.18 74.62"/><path class="cls-1" d="M236.45,81.65a.56.56,0,0,1-.32-.15l-7.36-6.41a.62.62,0,0,1,.18-1l.49-.2a.62.62,0,0,1,.66.13L237,80.59a.63.63,0,0,1,0,.87A.65.65,0,0,1,236.45,81.65Z"/><polygon class="cls-1" points="229.67 74.43 236.54 81.04 230.16 74.24 229.67 74.43"/><path class="cls-1" d="M236.44,81.65a.56.56,0,0,1-.33-.17l-6.87-6.6a.62.62,0,0,1,.2-1l.49-.19a.63.63,0,0,1,.68.15l6.38,6.8a.63.63,0,0,1,0,.87A.62.62,0,0,1,236.44,81.65Z"/><polygon class="cls-1" points="237.08 81.67 236.54 81.04 230.16 74.24 237.08 81.67"/><path class="cls-1" d="M237,82.29a.67.67,0,0,1-.36-.19l-6.92-7.44a.63.63,0,0,1,0-.88.62.62,0,0,1,.87,0l6.94,7.46a.63.63,0,0,1-.06.87A.67.67,0,0,1,237,82.29Z"/><polygon class="cls-1" points="230.45 73.55 230.16 74.24 237.08 81.67 230.45 73.55"/><path class="cls-1" d="M237,82.29a.67.67,0,0,1-.36-.19l-6.92-7.44a.63.63,0,0,1-.11-.67l.29-.68a.63.63,0,0,1,.49-.37.6.6,0,0,1,.56.22l6.63,8.12a.63.63,0,0,1-.58,1Z"/><polygon class="cls-1" points="230.45 73.55 237.08 81.67 276.34 127.76 230.45 73.55"/><path class="cls-1" d="M276.25,128.37a.58.58,0,0,1-.38-.21L236.6,82.08,230,73.94a.62.62,0,0,1,1-.79l45.88,54.21a.62.62,0,0,1-.07.87A.6.6,0,0,1,276.25,128.37Z"/><polygon class="cls-1" points="230.26 73.06 230.45 73.55 276.34 127.76 230.26 73.06"/><path class="cls-1" d="M276.25,128.38a.64.64,0,0,1-.38-.22L230,74a.75.75,0,0,1-.1-.17l-.2-.49a.63.63,0,0,1,.26-.77.63.63,0,0,1,.79.13l46.08,54.7a.62.62,0,0,1-.56,1Z"/><polygon class="cls-1" points="230.06 72.58 230.26 73.06 276.34 127.76 230.06 72.58"/><path class="cls-1" d="M276.25,128.38a.64.64,0,0,1-.38-.22l-46.09-54.7a.59.59,0,0,1-.1-.17l-.19-.49a.61.61,0,0,1,.25-.76.63.63,0,0,1,.8.14l46.28,55.18a.64.64,0,0,1-.08.88A.63.63,0,0,1,276.25,128.38Z"/><polygon class="cls-1" points="229.87 72.09 230.06 72.58 276.34 127.76 229.87 72.09"/><path class="cls-1" d="M276.25,128.37a.63.63,0,0,1-.39-.21h0L229.59,73a.62.62,0,0,1-.11-.17l-.19-.49a.63.63,0,0,1,.26-.76.64.64,0,0,1,.8.14l46.46,55.67a.61.61,0,0,1-.56,1Z"/><polygon class="cls-1" points="427.38 153.19 409.5 155.2 376.13 163.09 427.38 153.19"/><path class="cls-1" d="M376,163.7a.62.62,0,0,1-.06-1.22l33.37-7.89,18-2a.61.61,0,0,1,.68.52.63.63,0,0,1-.49.71l-51.25,9.89A.51.51,0,0,1,376,163.7Zm35.81-8.14-2.29.25-4.24,1Z"/><polygon class="cls-1" points="427.87 152.99 427.38 153.19 435.87 156.04 427.87 152.99"/><path class="cls-1" d="M435.78,156.65a.23.23,0,0,1-.11,0l-8.49-2.85a.61.61,0,0,1-.42-.56.63.63,0,0,1,.39-.6l.48-.19a.66.66,0,0,1,.46,0l8,3.05a.62.62,0,0,1,.37.79A.63.63,0,0,1,435.78,156.65Z"/><polygon class="cls-1" points="435.87 156.04 427.38 153.19 376.13 163.09 435.87 156.04"/><path class="cls-1" d="M376,163.7a.62.62,0,0,1,0-1.22l51.25-9.9a.69.69,0,0,1,.32,0l8.49,2.85a.62.62,0,0,1-.13,1.2l-59.74,7A.43.43,0,0,1,376,163.7Zm51.3-9.87-34.51,6.66,40.22-4.74Z"/><polygon class="cls-1" points="428.35 152.8 427.87 152.99 435.87 156.04 428.35 152.8"/><path class="cls-1" d="M435.78,156.65l-.13,0-8-3.05a.63.63,0,0,1,0-1.16l.49-.19a.59.59,0,0,1,.47,0l7.52,3.24a.62.62,0,0,1-.34,1.18Z"/><polygon class="cls-1" points="428.35 152.8 435.87 156.04 436.7 155.99 428.35 152.8"/><path class="cls-1" d="M435.78,156.65l-.15,0-7.52-3.24a.62.62,0,0,1,.47-1.15l8.34,3.19a.62.62,0,0,1-.19,1.2l-.82,0Z"/><polygon class="cls-1" points="428.35 152.8 436.7 155.99 428.99 152.26 428.35 152.8"/><path class="cls-1" d="M436.61,156.6a.28.28,0,0,1-.13,0l-8.35-3.19a.64.64,0,0,1-.39-.48.65.65,0,0,1,.21-.58l.64-.53a.63.63,0,0,1,.67-.09l7.71,3.73a.62.62,0,0,1-.36,1.17Z"/><polygon class="cls-1" points="428.99 152.26 436.7 155.99 437.19 155.79 428.99 152.26"/><path class="cls-1" d="M436.61,156.6l-.18,0-7.71-3.73a.62.62,0,0,1,.52-1.13l8.19,3.54a.61.61,0,0,1,.38.57.64.64,0,0,1-.39.57l-.49.2A.6.6,0,0,1,436.61,156.6Z"/><polygon class="cls-1" points="428.99 152.26 437.19 155.79 429.14 151.92 428.99 152.26"/><path class="cls-1" d="M437.1,156.41a.43.43,0,0,1-.16,0l-8.2-3.53a.62.62,0,0,1-.32-.81l.15-.35a.6.6,0,0,1,.35-.33.64.64,0,0,1,.49,0l8,3.88a.61.61,0,0,1,.29.81A.62.62,0,0,1,437.1,156.41Z"/><polygon class="cls-1" points="429.14 151.92 437.19 155.79 437.48 155.11 429.14 151.92"/><path class="cls-1" d="M437.09,156.41a.49.49,0,0,1-.17-.06l-8.05-3.87a.63.63,0,0,1-.3-.81.62.62,0,0,1,.79-.33l8.34,3.19a.59.59,0,0,1,.35.34.6.6,0,0,1,0,.49l-.29.68a.63.63,0,0,1-.36.34A.8.8,0,0,1,437.09,156.41Z"/><polygon class="cls-1" points="428.94 151.43 429.14 151.92 437.48 155.11 428.94 151.43"/><path class="cls-1" d="M437.39,155.73l-.13,0-8.34-3.19a.59.59,0,0,1-.36-.35l-.19-.49a.6.6,0,0,1,.14-.67.62.62,0,0,1,.68-.13l8.54,3.68a.62.62,0,0,1-.34,1.19Z"/><polygon class="cls-1" points="428.94 151.43 437.48 155.11 437.63 154.77 428.94 151.43"/><path class="cls-1" d="M437.39,155.73l-.15,0L428.7,152a.62.62,0,0,1,.46-1.15l8.69,3.34a.62.62,0,0,1,.35.34.64.64,0,0,1,0,.49l-.15.34A.63.63,0,0,1,437.39,155.73Z"/><polygon class="cls-1" points="428.75 150.94 428.94 151.43 437.63 154.77 428.75 150.94"/><path class="cls-1" d="M437.54,155.38a.5.5,0,0,1-.13,0L428.72,152a.6.6,0,0,1-.35-.35l-.2-.49a.63.63,0,0,1,.82-.8l8.88,3.83a.61.61,0,0,1,.33.8A.61.61,0,0,1,437.54,155.38Z"/><polygon class="cls-1" points="428.75 150.94 437.63 154.77 428.56 150.45 428.75 150.94"/><path class="cls-1" d="M437.54,155.38a.42.42,0,0,1-.16,0l-8.88-3.83a.61.61,0,0,1-.33-.34l-.19-.49a.62.62,0,0,1,.16-.68.63.63,0,0,1,.68-.11l9.07,4.32a.62.62,0,0,1-.35,1.17Z"/><polygon class="cls-1" points="428.56 150.45 437.63 154.77 437.77 154.43 428.56 150.45"/><path class="cls-1" d="M437.54,155.38a.61.61,0,0,1-.18,0L428.29,151a.62.62,0,0,1,.51-1.12l9.22,4a.6.6,0,0,1,.32.81l-.14.35a.66.66,0,0,1-.35.33A.55.55,0,0,1,437.54,155.38Z"/><polygon class="cls-1" points="428.56 150.45 437.77 154.43 437.58 153.94 428.56 150.45"/><path class="cls-1" d="M437.68,155l-.15,0-9.22-4a.62.62,0,0,1-.33-.8.62.62,0,0,1,.8-.34l9,3.48a.62.62,0,0,1,.36.35l.19.49a.62.62,0,0,1-.67.84Z"/><polygon class="cls-1" points="428.56 150.45 437.58 153.94 437.05 153.31 428.56 150.45"/><path class="cls-1" d="M437.49,154.55l-.13,0-9-3.49a.62.62,0,0,1,.43-1.16l8.49,2.85a.56.56,0,0,1,.27.19l.54.63a.63.63,0,0,1,0,.76A.62.62,0,0,1,437.49,154.55Z"/><polygon class="cls-1" points="183.74 40.05 184.42 40.34 185.26 40.3 183.74 40.05"/><path class="cls-1" d="M184.33,41l-.15-.05-.69-.29a.62.62,0,0,1,.34-1.18h0l1.52.25a.61.61,0,0,1,.51.64.62.62,0,0,1-.58.59l-.84,0Z"/><polygon class="cls-1" points="183.21 39.41 183.74 40.05 185.26 40.3 183.21 39.41"/><path class="cls-1" d="M185.16,40.91h0l-1.51-.25a.63.63,0,0,1-.38-.21l-.53-.64a.62.62,0,0,1,0-.76.6.6,0,0,1,.74-.2l2.05.88a.61.61,0,0,1,.35.74A.62.62,0,0,1,185.16,40.91Z"/><path class="cls-1" d="M183.21,39.41l2.72,1.18Z"/><path class="cls-1" d="M185.84,41.2a.42.42,0,0,1-.15,0L183,40a.62.62,0,0,1-.37-.66.88.88,0,0,1,0-.15.62.62,0,0,1,.81-.32L186.18,40a.63.63,0,0,1,.37.66.43.43,0,0,1-.05.16A.61.61,0,0,1,185.84,41.2Z"/><path class="cls-1" d="M182.52,39.12l3.41,1.47Z"/><path class="cls-1" d="M185.84,41.21l-.15-.05-3.41-1.47a.61.61,0,0,1-.37-.66.83.83,0,0,1,0-.15.63.63,0,0,1,.82-.33L186.18,40a.63.63,0,0,1,.37.66.43.43,0,0,1-.05.16A.62.62,0,0,1,185.84,41.21Z"/><polygon class="cls-1" points="182.52 39.12 185.94 40.59 186.76 40.54 182.52 39.12"/><path class="cls-1" d="M185.84,41.2a.42.42,0,0,1-.15,0l-3.41-1.47a.62.62,0,0,1-.34-.79.63.63,0,0,1,.78-.37L187,40a.62.62,0,0,1,.42.67.61.61,0,0,1-.58.53l-.83.05Z"/><polygon class="cls-1" points="181.98 38.48 182.52 39.12 186.76 40.54 181.98 38.48"/><path class="cls-1" d="M186.67,41.16l-.1,0-4.24-1.42a.61.61,0,0,1-.28-.19l-.54-.64a.6.6,0,0,1,0-.77.62.62,0,0,1,.74-.2L187,40a.63.63,0,0,1,.33.8A.62.62,0,0,1,186.67,41.16Z"/><polygon class="cls-1" points="373.87 120.4 276.34 127.76 278.87 131.28 373.87 120.4"/><path class="cls-1" d="M278.78,131.9a.68.68,0,0,1-.41-.25l-2.53-3.53a.6.6,0,0,1-.06-.62.63.63,0,0,1,.51-.36l97.53-7.36a.62.62,0,0,1,.67.56.62.62,0,0,1-.55.68l-95,10.88Zm-1.29-3.6,1.67,2.33,62.84-7.2Z"/><polygon class="cls-1" points="373.87 120.4 400.56 156.21 404.72 153.14 373.87 120.4"/><path class="cls-1" d="M400.47,156.82a.63.63,0,0,1-.4-.24l-26.7-35.81a.62.62,0,0,1,.95-.8l30.85,32.74a.62.62,0,0,1-.08.93l-4.16,3.07A.64.64,0,0,1,400.47,156.82ZM380.8,128.65l19.89,26.69,3.1-2.28Z"/><polygon class="cls-1" points="181.98 38.48 186.76 40.54 179.84 35.94 181.98 38.48"/><path class="cls-1" d="M186.67,41.16l-.15,0-4.78-2.06a.55.55,0,0,1-.23-.17l-2.14-2.54a.62.62,0,0,1,0-.81.63.63,0,0,1,.81-.11L187.11,40a.62.62,0,0,1-.44,1.13Z"/><polygon class="cls-1" points="179.84 35.94 186.76 40.54 190.92 40.31 179.84 35.94"/><path class="cls-1" d="M186.67,41.16a.77.77,0,0,1-.25-.1l-6.92-4.6a.63.63,0,0,1-.2-.81.62.62,0,0,1,.77-.29l11.07,4.37a.62.62,0,0,1,.39.68.63.63,0,0,1-.58.52l-4.15.23A.56.56,0,0,1,186.67,41.16Zm-1.61-2.5,1.88,1.25,1.12-.06Z"/><polygon class="cls-1" points="179.65 35.45 179.84 35.94 190.92 40.31 179.65 35.45"/><path class="cls-1" d="M190.82,40.92l-.13,0-11.07-4.37a.63.63,0,0,1-.35-.35l-.2-.49a.62.62,0,0,1,.15-.67.6.6,0,0,1,.67-.13l11.27,4.86a.62.62,0,0,1,.33.81A.63.63,0,0,1,190.82,40.92Z"/><polygon class="cls-1" points="179.65 35.45 190.92 40.31 179.46 34.96 179.65 35.45"/><path class="cls-1" d="M190.82,40.92a.42.42,0,0,1-.15,0L179.4,36a.61.61,0,0,1-.33-.34l-.19-.49a.64.64,0,0,1,.15-.68.63.63,0,0,1,.69-.11l11.46,5.35a.61.61,0,0,1,.3.81A.62.62,0,0,1,190.82,40.92Z"/><polygon class="cls-1" points="179.46 34.96 190.92 40.31 184.72 36.83 179.46 34.96"/><path class="cls-1" d="M190.82,40.92a.49.49,0,0,1-.16-.05l-11.47-5.35a.62.62,0,0,1,.47-1.14l5.27,1.86.1,0,6.19,3.48a.62.62,0,0,1,.25.82A.63.63,0,0,1,190.82,40.92Z"/><polygon class="cls-1" points="184.72 36.83 190.92 40.31 191.55 39.77 184.72 36.83"/><path class="cls-1" d="M190.82,40.92a.58.58,0,0,1-.21-.07l-6.19-3.48a.62.62,0,0,1,.55-1.11l6.83,2.94a.67.67,0,0,1,.37.48.62.62,0,0,1-.22.57l-.63.53A.61.61,0,0,1,190.82,40.92Z"/><polygon class="cls-1" points="179.6 34.62 179.46 34.96 184.72 36.83 179.6 34.62"/><path class="cls-1" d="M184.63,37.44a.2.2,0,0,1-.11,0l-5.27-1.86a.63.63,0,0,1-.36-.34.6.6,0,0,1,0-.49l.14-.34a.64.64,0,0,1,.34-.33.62.62,0,0,1,.48,0L185,36.26a.62.62,0,0,1-.34,1.18Z"/><polygon class="cls-1" points="184.72 36.83 191.55 39.77 192.39 39.73 184.72 36.83"/><path class="cls-1" d="M191.46,40.39l-.15,0-6.83-2.94a.62.62,0,0,1-.33-.8.61.61,0,0,1,.79-.35l7.67,2.9a.62.62,0,0,1,.39.67.64.64,0,0,1-.58.53l-.83,0Z"/><polygon class="cls-1" points="371 116.73 276.34 127.76 373.87 120.4 371 116.73"/><path class="cls-1" d="M276.25,128.38a.64.64,0,0,1-.53-.56.62.62,0,0,1,.55-.67l94.66-11a.61.61,0,0,1,.56.23l2.87,3.67a.62.62,0,0,1-.44,1l-97.53,7.36Zm94.48-11-64,7.46,66-5Z"/><polygon class="cls-1" points="179.6 34.62 184.72 36.83 180.09 34.43 179.6 34.62"/><path class="cls-1" d="M184.63,37.44l-.15,0-5.12-2.21a.64.64,0,0,1-.38-.58.62.62,0,0,1,.39-.56l.49-.2a.63.63,0,0,1,.52,0l4.63,2.4a.62.62,0,0,1,.27.81A.61.61,0,0,1,184.63,37.44Z"/><polygon class="cls-1" points="180.09 34.43 184.72 36.83 183.31 35.41 180.09 34.43"/><path class="cls-1" d="M184.63,37.44a.6.6,0,0,1-.19-.06L179.81,35a.62.62,0,0,1-.29-.79.61.61,0,0,1,.75-.35l3.22,1a.61.61,0,0,1,.26.15l1.41,1.42a.62.62,0,0,1,.06.81A.6.6,0,0,1,184.63,37.44Z"/><polygon class="cls-1" points="180.58 34.23 180.09 34.43 183.31 35.41 180.58 34.23"/><path class="cls-1" d="M183.22,36l-.09,0-3.22-1a.62.62,0,0,1-.44-.57.63.63,0,0,1,.39-.6l.49-.19a.64.64,0,0,1,.47,0l2.73,1.18a.62.62,0,0,1-.33,1.18Z"/><polygon class="cls-1" points="180.58 34.23 183.31 35.41 183.12 34.92 180.58 34.23"/><path class="cls-1" d="M183.22,36a.47.47,0,0,1-.16,0l-2.72-1.18A.61.61,0,0,1,180,34a.6.6,0,0,1,.74-.39l2.54.68a.61.61,0,0,1,.41.37l.2.49a.62.62,0,0,1-.15.67A.6.6,0,0,1,183.22,36Z"/><polygon class="cls-1" points="184.72 36.83 192.39 39.73 193.02 39.19 184.72 36.83"/><path class="cls-1" d="M192.29,40.34l-.12,0-7.67-2.9a.62.62,0,0,1,.39-1.18l8.3,2.37a.62.62,0,0,1,.44.46.62.62,0,0,1-.21.61l-.63.53A.61.61,0,0,1,192.29,40.34Z"/><polygon class="cls-1" points="181.07 34.04 180.58 34.23 183.12 34.92 181.07 34.04"/><path class="cls-1" d="M183,35.53H183l-2.53-.69a.62.62,0,0,1-.07-1.17l.48-.2a.61.61,0,0,1,.48,0l2.05.88a.62.62,0,0,1-.34,1.18Z"/><path class="cls-1" d="M181.07,34l1.37.59Z"/><path class="cls-1" d="M182.34,35.24l-.15,0-1.37-.59a.63.63,0,0,1-.37-.66.43.43,0,0,1,.05-.16.62.62,0,0,1,.81-.32l1.37.59a.63.63,0,0,1,.37.66.44.44,0,0,1-.05.15A.61.61,0,0,1,182.34,35.24Z"/><polygon class="cls-1" points="181.07 34.04 182.44 34.63 183.12 34.92 181.07 34.04"/><path class="cls-1" d="M183,35.53a.42.42,0,0,1-.15,0h0l-.67-.29h0l-1.37-.59a.62.62,0,0,1,.49-1.14h0l2,.88a.62.62,0,0,1-.34,1.18Z"/><polygon class="cls-1" points="184.72 36.83 193.02 39.19 193.32 38.51 184.72 36.83"/><path class="cls-1" d="M192.93,39.81l-.08,0-8.3-2.37a.61.61,0,0,1-.43-.74.64.64,0,0,1,.72-.46l8.6,1.68a.6.6,0,0,1,.42.32.62.62,0,0,1,0,.53l-.3.69A.62.62,0,0,1,192.93,39.81Z"/><polygon class="cls-1" points="188.19 36.3 184.72 36.83 193.32 38.51 188.19 36.3"/><path class="cls-1" d="M193.22,39.12h0l-8.6-1.68a.62.62,0,0,1,0-1.23l3.47-.52a.67.67,0,0,1,.34,0l5.12,2.21a.62.62,0,0,1,.35.75A.61.61,0,0,1,193.22,39.12Z"/><polygon class="cls-1" points="188.19 36.3 193.32 38.51 193.46 38.17 188.19 36.3"/><path class="cls-1" d="M193.22,39.12l-.15,0L188,36.87a.62.62,0,0,1,.45-1.15l5.27,1.86a.63.63,0,0,1,.36.34.6.6,0,0,1,0,.49l-.14.34a.64.64,0,0,1-.34.33A.54.54,0,0,1,193.22,39.12Z"/><polygon class="cls-1" points="188.19 36.3 193.46 38.17 193.42 37.34 188.19 36.3"/><path class="cls-1" d="M193.37,38.78a.23.23,0,0,1-.11,0L188,36.88a.6.6,0,0,1-.39-.74.63.63,0,0,1,.72-.45l5.22,1a.62.62,0,0,1,.5.57l0,.83a.6.6,0,0,1-.24.53A.61.61,0,0,1,193.37,38.78Z"/><polygon class="cls-1" points="188.19 36.3 193.42 37.34 192.88 36.7 188.19 36.3"/><path class="cls-1" d="M193.32,38h0l-5.23-1a.62.62,0,0,1,.18-1.23l4.68.4a.6.6,0,0,1,.42.22l.54.64a.6.6,0,0,1,.06.71A.62.62,0,0,1,193.32,38Z"/><polygon class="cls-1" points="188.19 36.3 192.88 36.7 192.83 35.87 188.19 36.3"/><path class="cls-1" d="M188.1,36.91a.62.62,0,0,1,0-1.23l4.63-.43a.67.67,0,0,1,.47.15.65.65,0,0,1,.21.43l.05.84a.6.6,0,0,1-.19.47.63.63,0,0,1-.48.18l-4.69-.4Z"/><polygon class="cls-1" points="169.72 21.85 170.4 22.15 171.23 22.1 169.72 21.85"/><path class="cls-1" d="M170.31,22.76l-.16,0-.68-.3a.61.61,0,0,1-.35-.74.63.63,0,0,1,.7-.44l1.51.25a.62.62,0,0,1-.07,1.23l-.82.05Z"/><polygon class="cls-1" points="169.18 21.22 169.72 21.85 171.23 22.1 169.18 21.22"/><path class="cls-1" d="M171.13,22.71h0l-1.51-.24a.68.68,0,0,1-.38-.21l-.54-.64a.63.63,0,0,1,0-.77.62.62,0,0,1,.74-.2l2.05.88a.61.61,0,0,1,.35.74A.62.62,0,0,1,171.13,22.71Z"/><path class="cls-1" d="M169.18,21.22l2.39,1Z"/><path class="cls-1" d="M171.48,22.86l-.15,0-2.4-1a.64.64,0,0,1-.37-.67.88.88,0,0,1,.05-.15.62.62,0,0,1,.81-.32l2.4,1a.62.62,0,0,1,.36.66.42.42,0,0,1,0,.15A.61.61,0,0,1,171.48,22.86Z"/><path class="cls-1" d="M168.84,21.07l2.73,1.18Z"/><path class="cls-1" d="M171.48,22.86l-.15,0-2.74-1.18a.63.63,0,0,1-.37-.66,1,1,0,0,1,.05-.16.62.62,0,0,1,.81-.32l2.74,1.18a.63.63,0,0,1,.37.66.88.88,0,0,1-.05.15A.61.61,0,0,1,171.48,22.86Z"/><polygon class="cls-1" points="168.84 21.07 171.57 22.25 172.06 22.05 168.84 21.07"/><path class="cls-1" d="M171.48,22.86l-.15,0-2.74-1.18a.62.62,0,0,1,.43-1.16l3.22,1a.62.62,0,0,1,.44.57.63.63,0,0,1-.39.6l-.49.19A.5.5,0,0,1,171.48,22.86Z"/><polygon class="cls-1" points="168.84 21.07 172.06 22.05 172.55 21.86 168.84 21.07"/><path class="cls-1" d="M172,22.67l-.08,0-3.23-1a.61.61,0,0,1-.41-.75.6.6,0,0,1,.72-.45l3.71.79a.62.62,0,0,1,.1,1.19l-.48.19A.75.75,0,0,1,172,22.67Z"/><polygon class="cls-1" points="168.84 21.07 172.55 21.86 172.69 21.52 168.84 21.07"/><path class="cls-1" d="M172.45,22.47h0l-3.71-.79a.63.63,0,0,1-.49-.71.64.64,0,0,1,.69-.52l3.85.45a.57.57,0,0,1,.47.31.59.59,0,0,1,0,.55l-.15.34A.62.62,0,0,1,172.45,22.47Z"/><polygon class="cls-1" points="168.84 21.07 172.69 21.52 172.5 21.03 168.84 21.07"/><path class="cls-1" d="M168.74,21.68a.62.62,0,0,1,.09-1.23l3.66,0a.6.6,0,0,1,.58.39l.2.49a.62.62,0,0,1-.09.61.6.6,0,0,1-.56.23l-3.86-.44Z"/><polygon class="cls-1" points="168.84 21.07 172.5 21.03 166.84 18.19 168.84 21.07"/><path class="cls-1" d="M168.74,21.68a.61.61,0,0,1-.42-.26l-2-2.88a.62.62,0,0,1,.79-.91l5.66,2.84a.63.63,0,0,1-.28,1.18l-3.66,0Zm0-1.85.43.62h.78Z"/><polygon class="cls-1" points="166.84 18.18 172.5 21.03 172.31 20.54 166.84 18.18"/><path class="cls-1" d="M172.41,21.64a.6.6,0,0,1-.19-.06l-5.66-2.84a.62.62,0,0,1,.53-1.12L172.55,20a.63.63,0,0,1,.33.35l.19.48a.62.62,0,0,1-.66.84Z"/><polygon class="cls-1" points="166.84 18.18 172.31 20.54 166.3 17.55 166.84 18.18"/><path class="cls-1" d="M172.21,21.15a.42.42,0,0,1-.15,0l-5.46-2.36a.53.53,0,0,1-.23-.16l-.54-.64a.62.62,0,0,1,0-.78.62.62,0,0,1,.77-.18l6,3a.62.62,0,0,1-.37,1.16Z"/><polygon class="cls-1" points="166.3 17.55 172.31 20.54 166.45 17.21 166.3 17.55"/><path class="cls-1" d="M172.21,21.15a.61.61,0,0,1-.18,0l-6-3a.62.62,0,0,1-.3-.8l.15-.34a.62.62,0,0,1,.37-.34.61.61,0,0,1,.51.05L172.61,20a.62.62,0,0,1,.24.83A.6.6,0,0,1,172.21,21.15Z"/><polygon class="cls-1" points="166.45 17.21 172.31 20.54 171.38 18.93 166.45 17.21"/><path class="cls-1" d="M172.22,21.15a.57.57,0,0,1-.22-.07l-5.86-3.34a.61.61,0,0,1-.25-.79.62.62,0,0,1,.76-.33l4.94,1.72a.61.61,0,0,1,.33.28l.93,1.61a.65.65,0,0,1-.1.75A.63.63,0,0,1,172.22,21.15Z"/><polygon class="cls-1" points="166.26 16.72 166.45 17.21 171.38 18.93 166.26 16.72"/><path class="cls-1" d="M171.29,19.54l-.11,0-4.93-1.72a.62.62,0,0,1-.38-.36l-.19-.49a.62.62,0,0,1,.83-.79l5.12,2.21a.62.62,0,0,1-.34,1.18Z"/><polygon class="cls-1" points="183.82 23.89 188.19 36.3 192.83 35.87 183.82 23.89"/><path class="cls-1" d="M188.1,36.91a.61.61,0,0,1-.49-.4l-4.37-12.42a.6.6,0,0,1,.29-.75.62.62,0,0,1,.79.17l9,12a.61.61,0,0,1,.08.62.64.64,0,0,1-.51.37l-4.64.43Zm-2.36-9.44,2.88,8.17,3-.29Z"/><polygon class="cls-1" points="166.26 16.72 171.38 18.93 166.56 16.04 166.26 16.72"/><path class="cls-1" d="M171.29,19.54l-.15,0L166,17.29a.64.64,0,0,1-.33-.34.66.66,0,0,1,0-.48l.29-.68a.64.64,0,0,1,.38-.34.61.61,0,0,1,.51.05l4.83,2.9a.62.62,0,0,1-.41,1.14Z"/><polygon class="cls-1" points="183.29 23.25 188.19 36.3 183.82 23.89 183.29 23.25"/><path class="cls-1" d="M188.1,36.91a.63.63,0,0,1-.49-.39l-4.9-13.05a.62.62,0,0,1,1-.62l.54.64a.86.86,0,0,1,.11.19l4.37,12.41a.62.62,0,0,1-.37.79A.55.55,0,0,1,188.1,36.91Z"/><polygon class="cls-1" points="166.56 16.04 171.38 18.93 167.04 15.84 166.56 16.04"/><path class="cls-1" d="M171.29,19.54a.63.63,0,0,1-.23-.08l-4.82-2.89a.61.61,0,0,1-.3-.58.6.6,0,0,1,.38-.53l.49-.19a.6.6,0,0,1,.59.06l4.34,3.09a.63.63,0,0,1,.16.85A.61.61,0,0,1,171.29,19.54Z"/><polygon class="cls-1" points="183.09 22.76 188.19 36.3 183.28 23.25 183.09 22.76"/><path class="cls-1" d="M188.1,36.91a.61.61,0,0,1-.49-.39h0L182.51,23a.62.62,0,0,1,1.16-.45l.19.49,4.91,13.06a.62.62,0,0,1-.36.8A.55.55,0,0,1,188.1,36.91Z"/><polygon class="cls-1" points="167.04 15.84 171.38 18.93 167.19 15.5 167.04 15.84"/><path class="cls-1" d="M171.29,19.54a.57.57,0,0,1-.27-.11l-4.34-3.09a.61.61,0,0,1-.21-.75l.15-.34a.57.57,0,0,1,.42-.35.59.59,0,0,1,.54.12l4.19,3.43a.62.62,0,0,1-.48,1.09Z"/><polygon class="cls-1" points="167.19 15.5 171.38 18.93 174.85 18.4 167.19 15.5"/><path class="cls-1" d="M171.29,19.54a.67.67,0,0,1-.3-.13L166.79,16a.62.62,0,0,1,.62-1.06l7.66,2.9a.62.62,0,0,1-.13,1.19l-3.46.53A.6.6,0,0,1,171.29,19.54Zm-.77-2.12,1,.85.86-.13Z"/><polygon class="cls-1" points="174.85 18.4 188.19 36.3 183.09 22.76 174.85 18.4"/><path class="cls-1" d="M188.1,36.91a.57.57,0,0,1-.4-.24l-13.35-17.9a.63.63,0,0,1,0-.78.62.62,0,0,1,.76-.14l8.24,4.36a.63.63,0,0,1,.29.33l5.1,13.54a.61.61,0,0,1-.28.76A.6.6,0,0,1,188.1,36.91ZM177,20.23l9.07,12.17-3.47-9.2Z"/><polygon class="cls-1" points="168.02 15.45 167.19 15.5 174.85 18.4 168.02 15.45"/><path class="cls-1" d="M174.76,19l-.13,0L167,16.08a.63.63,0,0,1-.4-.68.63.63,0,0,1,.58-.52l.84-.05a.92.92,0,0,1,.28.05l6.82,2.95a.62.62,0,0,1-.33,1.18Z"/><path class="cls-1" d="M168,15.45l15,6.48Z"/><path class="cls-1" d="M183,22.55l-.16-.05-15-6.48a.61.61,0,0,1-.37-.66.42.42,0,0,1,0-.15.63.63,0,0,1,.82-.33l15,6.48a.62.62,0,0,1,.37.66.75.75,0,0,1,0,.16A.63.63,0,0,1,183,22.55Z"/><polygon class="cls-1" points="174.85 18.4 183.09 22.76 183.05 21.93 174.85 18.4"/><path class="cls-1" d="M183,23.37a.66.66,0,0,1-.2-.06l-8.24-4.37a.6.6,0,0,1-.27-.81.62.62,0,0,1,.8-.3l8.2,3.53a.64.64,0,0,1,.38.54l0,.83a.62.62,0,0,1-.29.55A.53.53,0,0,1,183,23.37Z"/><polygon class="cls-1" points="168.02 15.45 183.05 21.93 183.34 21.25 168.02 15.45"/><path class="cls-1" d="M183,22.55l-.16-.05-15-6.48a.62.62,0,0,1,.46-1.15l15.32,5.8a.59.59,0,0,1,.35.34.57.57,0,0,1,0,.48l-.29.69a.64.64,0,0,1-.34.33A.72.72,0,0,1,183,22.55Z"/><polygon class="cls-1" points="168.02 15.45 183.34 21.25 183.64 20.57 168.02 15.45"/><path class="cls-1" d="M183.25,21.86l-.13,0L167.8,16a.61.61,0,0,1-.36-.78.62.62,0,0,1,.77-.39L183.83,20a.58.58,0,0,1,.37.33.62.62,0,0,1,0,.5l-.3.68A.61.61,0,0,1,183.25,21.86Z"/><polygon class="cls-1" points="168.02 15.45 183.64 20.57 184.12 20.37 168.02 15.45"/><path class="cls-1" d="M183.54,21.18l-.1,0L167.83,16a.62.62,0,0,1,.37-1.18l16.1,4.92a.61.61,0,0,1,.44.56.6.6,0,0,1-.39.6l-.48.2A.73.73,0,0,1,183.54,21.18Z"/><polygon class="cls-1" points="168.02 15.45 184.12 20.37 185.1 19.98 168.02 15.45"/><path class="cls-1" d="M184,21l-.09,0-16.1-4.91a.62.62,0,0,1,.34-1.2l17.08,4.53a.62.62,0,0,1,.07,1.18l-1,.39A.58.58,0,0,1,184,21Z"/><polygon class="cls-1" points="168.02 15.45 185.1 19.98 185.93 19.94 168.02 15.45"/><path class="cls-1" d="M185,20.6l-.07,0-17.08-4.53a.62.62,0,0,1,.31-1.2l17.91,4.48a.63.63,0,0,1,.47.66.6.6,0,0,1-.58.56l-.83.05Z"/><polygon class="cls-1" points="193.1 23.03 229.87 72.09 276.34 127.76 193.1 23.03"/><path class="cls-1" d="M276.25,128.37a.61.61,0,0,1-.39-.21L229.39,72.48,192.6,23.4a.62.62,0,0,1,1-.76l83.23,104.74a.62.62,0,0,1-.09.86A.58.58,0,0,1,276.25,128.37ZM219.79,57.61l10.58,14.11,13.35,16Z"/><polygon class="cls-1" points="168.02 15.45 185.93 19.94 186.76 19.89 168.02 15.45"/><path class="cls-1" d="M185.84,20.55h-.06l-17.91-4.49a.61.61,0,0,1-.45-.74.62.62,0,0,1,.74-.46l18.75,4.44a.61.61,0,0,1,.47.65.62.62,0,0,1-.58.57l-.83,0Z"/><polygon class="cls-1" points="192.71 22.05 193.1 23.03 276.34 127.76 192.71 22.05"/><path class="cls-1" d="M276.25,128.38a.69.69,0,0,1-.4-.23h0L192.62,23.41a.6.6,0,0,1-.09-.15l-.39-1a.62.62,0,0,1,1.06-.62l83.63,105.72a.62.62,0,0,1-.11.87A.63.63,0,0,1,276.25,128.38Z"/><polygon class="cls-1" points="168.02 15.45 186.76 19.89 187.59 19.84 168.02 15.45"/><path class="cls-1" d="M186.67,20.5h0l-18.74-4.43a.62.62,0,0,1-.46-.75.62.62,0,0,1,.74-.46l19.57,4.39a.61.61,0,0,1,.48.65.62.62,0,0,1-.58.57l-.83.05Z"/><polygon class="cls-1" points="168.02 15.45 187.59 19.84 188.77 19.94 168.02 15.45"/><path class="cls-1" d="M187.54,20.46l-19.65-4.4a.62.62,0,0,1-.47-.74.6.6,0,0,1,.73-.47l20.75,4.49a.61.61,0,0,1,.48.69.62.62,0,0,1-.67.53Z"/><polygon class="cls-1" points="189.79 20.38 190.82 20.82 193.22 16.19 189.79 20.38"/><path class="cls-1" d="M190.72,21.44a.44.44,0,0,1-.15-.05l-1-.44a.63.63,0,0,1-.36-.42.62.62,0,0,1,.13-.54l3.43-4.19a.62.62,0,0,1,.82-.13.64.64,0,0,1,.21.81l-2.41,4.63A.61.61,0,0,1,190.72,21.44Z"/><polygon class="cls-1" points="190.82 20.82 191.69 21.61 193.22 16.19 190.82 20.82"/><path class="cls-1" d="M191.6,22.22a.71.71,0,0,1-.33-.15l-.87-.78a.63.63,0,0,1-.14-.75l2.41-4.63a.61.61,0,0,1,1.14.45l-1.53,5.42a.59.59,0,0,1-.42.42A.59.59,0,0,1,191.6,22.22Z"/><polygon class="cls-1" points="191.69 21.61 192.71 22.05 193.22 16.19 191.69 21.61"/><path class="cls-1" d="M192.62,22.66l-.15,0-1-.44a.64.64,0,0,1-.35-.74L192.62,16a.62.62,0,0,1,.69-.44h0a.64.64,0,0,1,.51.66l-.51,5.86a.63.63,0,0,1-.3.48A.59.59,0,0,1,192.62,22.66Z"/><polygon class="cls-1" points="193.22 16.19 192.71 22.05 276.34 127.76 193.22 16.19"/><path class="cls-1" d="M276.25,128.37a.64.64,0,0,1-.4-.22L192.23,22.43a.57.57,0,0,1-.13-.43l.5-5.86a.62.62,0,0,1,.45-.55.6.6,0,0,1,.66.23l83.13,111.57a.63.63,0,0,1-.12.86A.58.58,0,0,1,276.25,128.37ZM193.35,21.86l56.93,72L193.69,17.87Z"/><polygon class="cls-1" points="343.63 36.49 428.56 150.46 437.05 153.31 343.63 36.49"/><path class="cls-1" d="M437,153.92l-.11,0L428.36,151a.63.63,0,0,1-.3-.21l-84.92-114a.62.62,0,0,1,1-.76l93.41,116.82a.63.63,0,0,1,0,.74A.62.62,0,0,1,437,153.92Zm-8-4,6.31,2.12L365.83,65.23Z"/><polygon class="cls-1" points="341.83 34.09 343.63 36.49 437.05 153.31 341.83 34.09"/><path class="cls-1" d="M437,153.92a.64.64,0,0,1-.4-.23L343.15,36.87l-1.81-2.41a.62.62,0,0,1,.11-.86.63.63,0,0,1,.87.1l95.21,119.22a.62.62,0,0,1-.09.87A.65.65,0,0,1,437,153.92Z"/><polygon class="cls-1" points="340.03 31.69 341.83 34.09 349.74 35.47 340.03 31.69"/><path class="cls-1" d="M349.64,36.09h0l-7.91-1.38a.6.6,0,0,1-.38-.24l-1.81-2.4a.6.6,0,0,1,0-.74.64.64,0,0,1,.72-.21L350,34.89a.62.62,0,0,1,.37.75A.63.63,0,0,1,349.64,36.09Zm-7.46-2.57,1.52.27-1.87-.73Z"/><polygon class="cls-1" points="349.74 35.47 341.83 34.09 437.05 153.31 349.74 35.47"/><path class="cls-1" d="M437,153.92a.59.59,0,0,1-.39-.23L341.35,34.48a.63.63,0,0,1-.05-.71.58.58,0,0,1,.64-.29l7.9,1.38a.64.64,0,0,1,.39.24l87.32,117.84a.62.62,0,0,1-.12.86A.67.67,0,0,1,437,153.92ZM343.34,35l72.85,91.21L349.39,36Z"/><polygon class="cls-1" points="340.03 31.69 349.74 35.47 337.74 29.49 340.03 31.69"/><path class="cls-1" d="M349.64,36.09l-.13,0-9.71-3.78a.63.63,0,0,1-.2-.13l-2.29-2.2a.63.63,0,0,1-.08-.81.61.61,0,0,1,.78-.19l12,6a.62.62,0,0,1-.37,1.17Z"/><polygon class="cls-1" points="337.74 29.49 349.74 35.47 347.6 32.93 337.74 29.49"/><path class="cls-1" d="M349.64,36.09l-.18-.06-12-6a.61.61,0,0,1-.29-.79.62.62,0,0,1,.77-.35l9.86,3.45a.56.56,0,0,1,.27.18l2.14,2.55a.6.6,0,0,1,0,.78A.62.62,0,0,1,349.64,36.09Zm-2.89-2.8.59.3-.11-.13Z"/><polygon class="cls-1" points="337.74 29.49 347.6 32.93 335.45 27.29 337.74 29.49"/><path class="cls-1" d="M347.5,33.54l-.11,0-9.86-3.44a.64.64,0,0,1-.22-.14L335,27.74a.62.62,0,0,1-.08-.8.61.61,0,0,1,.77-.21l12.15,5.64a.62.62,0,0,1-.36,1.17Z"/><polygon class="cls-1" points="335.45 27.29 347.6 32.93 333.01 25.43 335.45 27.29"/><path class="cls-1" d="M347.51,33.54a.34.34,0,0,1-.17,0l-12.15-5.64-.12-.07-2.44-1.86a.62.62,0,0,1-.15-.82.61.61,0,0,1,.81-.22l14.59,7.5a.61.61,0,0,1,.27.82A.6.6,0,0,1,347.51,33.54Z"/><polygon class="cls-1" points="333.01 25.43 347.6 32.93 345.31 30.73 333.01 25.43"/><path class="cls-1" d="M347.5,33.54a.7.7,0,0,1-.19-.06L332.72,26a.62.62,0,0,1-.27-.82.62.62,0,0,1,.8-.3l12.3,5.3a.76.76,0,0,1,.19.12l2.29,2.2a.62.62,0,0,1,.07.81A.6.6,0,0,1,347.5,33.54Z"/><polygon class="cls-1" points="297.78 9.43 371 116.73 373.87 120.4 297.78 9.43"/><path class="cls-1" d="M373.78,121a.61.61,0,0,1-.4-.23l-2.87-3.67L297.27,9.78h0a.62.62,0,0,1,.16-.86.63.63,0,0,1,.87.16l76.08,111a.62.62,0,0,1-.14.85A.59.59,0,0,1,373.78,121Z"/><polygon class="cls-1" points="297.78 9.43 373.87 120.4 404.72 153.14 297.78 9.43"/><path class="cls-1" d="M404.63,153.75a.61.61,0,0,1-.36-.19l-30.85-32.74-.06-.07-76.09-111a.62.62,0,0,1,1-.72L405.22,152.77a.62.62,0,0,1-.1.84A.6.6,0,0,1,404.63,153.75ZM374.36,120l23.49,24.93L316.41,35.5Z"/><polygon class="cls-1" points="288.23 5.31 371 116.73 297.78 9.43 288.23 5.31"/><path class="cls-1" d="M370.91,117.34a.61.61,0,0,1-.41-.24L287.73,5.68a.63.63,0,0,1,0-.76.62.62,0,0,1,.73-.18L298,8.86a.64.64,0,0,1,.27.22l73.21,107.3a.62.62,0,0,1-.15.86A.61.61,0,0,1,370.91,117.34ZM290.1,6.79l63,84.8L297.37,9.93Z"/><path class="cls-1" d="M288.23,5.31l9.55,4.12Z"/><path class="cls-1" d="M297.69,10a.42.42,0,0,1-.15,0L288,5.88a.63.63,0,0,1-.37-.66.49.49,0,0,1,.05-.16.62.62,0,0,1,.81-.32L298,8.86a.63.63,0,0,1,.37.66.49.49,0,0,1,0,.16A.62.62,0,0,1,297.69,10Z"/><polygon class="cls-1" points="333.01 25.43 345.31 30.73 330.38 23.08 333.01 25.43"/><path class="cls-1" d="M345.22,31.34l-.16,0L332.76,26a.64.64,0,0,1-.16-.11L330,23.54a.63.63,0,0,1-.1-.81.64.64,0,0,1,.8-.21l14.93,7.66a.62.62,0,0,1-.37,1.16Z"/><polygon class="cls-1" points="288.23 5.31 297.78 9.43 297.59 8.94 288.23 5.31"/><path class="cls-1" d="M297.69,10a.42.42,0,0,1-.15,0L288,5.88a.62.62,0,0,1,.47-1.15l9.36,3.63a.68.68,0,0,1,.36.35l.19.49a.64.64,0,0,1-.14.67A.63.63,0,0,1,297.69,10Z"/><polygon class="cls-1" points="330.38 23.08 345.31 30.73 343.16 28.18 330.38 23.08"/><path class="cls-1" d="M345.21,31.34l-.19-.06-14.93-7.65a.62.62,0,0,1-.28-.81.63.63,0,0,1,.8-.32l12.78,5.11a.7.7,0,0,1,.24.17l2.15,2.55a.6.6,0,0,1,0,.78A.62.62,0,0,1,345.21,31.34Zm-2.77-2.78.4.21,0-.07Z"/><polygon class="cls-1" points="288.23 5.31 297.59 8.94 297.74 8.6 288.23 5.31"/><path class="cls-1" d="M297.5,9.56l-.13,0L288,5.89a.64.64,0,0,1-.36-.79.63.63,0,0,1,.79-.38L297.94,8a.63.63,0,0,1,.36.34.64.64,0,0,1,0,.49l-.15.35A.63.63,0,0,1,297.5,9.56Z"/><polygon class="cls-1" points="330.38 23.08 343.16 28.18 327.6 21.07 330.38 23.08"/><path class="cls-1" d="M343.07,28.8l-.14,0-12.78-5.11-.14-.07-2.77-2a.62.62,0,0,1,.62-1.06l15.56,7.11a.62.62,0,0,1-.35,1.18Z"/><polygon class="cls-1" points="288.23 5.31 297.74 8.6 282.86 1.78 288.23 5.31"/><path class="cls-1" d="M297.64,9.21l-.11,0L288,5.9l-.14-.07L282.52,2.3a.62.62,0,0,1,.6-1.08L298,8a.61.61,0,0,1,.32.79A.61.61,0,0,1,297.64,9.21Z"/><polygon class="cls-1" points="282.86 1.78 193.22 16.19 288.22 5.31 282.86 1.78"/><path class="cls-1" d="M193.13,16.8a.62.62,0,0,1,0-1.22L282.76,1.17a.67.67,0,0,1,.44.09l5.37,3.53a.64.64,0,0,1,.26.66.63.63,0,0,1-.54.48l-95,10.88ZM282.72,2.43l-62.41,10,66.15-7.57Z"/><polygon class="cls-1" points="282.86 1.78 188.77 19.94 189.79 20.38 282.86 1.78"/><path class="cls-1" d="M189.69,21l-.15-.05-1-.44a.63.63,0,0,1-.37-.64.62.62,0,0,1,.5-.54L282.74,1.17a.63.63,0,0,1,.73.49.62.62,0,0,1-.49.73L189.91,21A.81.81,0,0,1,189.69,21Z"/><polygon class="cls-1" points="282.86 1.78 168.02 15.45 188.77 19.94 282.86 1.78"/><path class="cls-1" d="M188.67,20.55h0l-20.74-4.49a.62.62,0,0,1,.06-1.22L282.79,1.17a.61.61,0,0,1,.68.52.61.61,0,0,1-.49.7l-94.1,18.16A.5.5,0,0,1,188.67,20.55Zm-16.9-4.92,17,3.68L265.88,4.43Z"/><polygon class="cls-1" points="282.86 1.78 297.74 8.6 297.88 8.26 282.86 1.78"/><path class="cls-1" d="M297.64,9.21a.49.49,0,0,1-.16-.05L282.6,2.35a.63.63,0,0,1-.31-.82.64.64,0,0,1,.82-.32l15,6.48a.61.61,0,0,1,.32.81l-.14.35a.66.66,0,0,1-.35.33A.58.58,0,0,1,297.64,9.21Z"/><polygon class="cls-1" points="282.86 1.78 297.88 8.26 298.37 8.06 282.86 1.78"/><path class="cls-1" d="M297.79,8.87l-.15,0-15-6.48a.62.62,0,0,1,.47-1.14l15.52,6.28a.61.61,0,0,1,.38.58.61.61,0,0,1-.39.57l-.49.2A.58.58,0,0,1,297.79,8.87Z"/><polygon class="cls-1" points="327.6 21.07 343.16 28.18 324.67 19.4 327.6 21.07"/><path class="cls-1" d="M343.07,28.8l-.17-.05-15.56-7.12-3-1.69a.62.62,0,0,1-.25-.82.63.63,0,0,1,.82-.28l18.48,8.78a.62.62,0,0,1-.35,1.18Z"/><polygon class="cls-1" points="298.37 8.06 282.86 1.78 298.71 8.21 298.37 8.06"/><path class="cls-1" d="M298.62,8.83l-.14,0L282.63,2.36a.62.62,0,0,1-.34-.81.61.61,0,0,1,.8-.34L299,7.64a.62.62,0,0,1-.34,1.19Z"/><polygon class="cls-1" points="282.86 1.78 298.71 8.21 299.55 8.16 282.86 1.78"/><path class="cls-1" d="M298.62,8.83l-.14,0L282.63,2.36a.62.62,0,0,1,.45-1.16l16.69,6.39a.62.62,0,0,1-.19,1.19l-.83.05Z"/><polygon class="cls-1" points="324.68 19.4 343.16 28.18 340.53 25.84 324.68 19.4"/><path class="cls-1" d="M343.07,28.8a.64.64,0,0,1-.18-.06L324.41,20a.62.62,0,0,1,.5-1.13l15.85,6.43a.78.78,0,0,1,.18.11l2.63,2.35a.63.63,0,0,1,.11.81A.65.65,0,0,1,343.07,28.8Z"/><polygon class="cls-1" points="285.2 1.98 282.86 1.78 299.55 8.16 285.2 1.98"/><path class="cls-1" d="M299.45,8.78l-.13,0L282.64,2.36a.62.62,0,0,1-.38-.72.63.63,0,0,1,.65-.48l2.35.21a.65.65,0,0,1,.19,0l14.34,6.18a.62.62,0,0,1-.34,1.19Z"/><polygon class="cls-1" points="321.75 17.73 324.68 19.4 340.53 25.84 321.75 17.73"/><path class="cls-1" d="M340.44,26.45l-.14,0L324.44,20l-3-1.71a.61.61,0,0,1-.25-.81.62.62,0,0,1,.8-.29l18.79,8.1a.61.61,0,0,1,.32.8A.62.62,0,0,1,340.44,26.45Z"/><polygon class="cls-1" points="285.2 1.98 299.55 8.16 302.77 9.15 285.2 1.98"/><path class="cls-1" d="M302.68,9.76l-.09,0-3.23-1L285,2.55a.62.62,0,1,1,.48-1.14L303,8.58a.61.61,0,0,1,.35.78A.6.6,0,0,1,302.68,9.76Z"/><polygon class="cls-1" points="321.75 17.73 340.53 25.84 318.82 16.07 321.75 17.73"/><path class="cls-1" d="M340.44,26.45a.44.44,0,0,1-.15-.05L321.5,18.3l-3-1.69a.62.62,0,0,1,.56-1.11l21.71,9.77a.61.61,0,0,1,.32.81A.62.62,0,0,1,340.44,26.45Z"/><polygon class="cls-1" points="302.77 9.15 285.2 1.98 305.84 10.47 302.77 9.15"/><path class="cls-1" d="M305.75,11.09l-.14,0L285,2.56a.62.62,0,0,1,.47-1.15L303,8.58l3.09,1.33a.61.61,0,0,1,.32.81A.63.63,0,0,1,305.75,11.09Z"/><polygon class="cls-1" points="318.82 16.07 340.53 25.84 315.55 14.26 318.82 16.07"/><path class="cls-1" d="M340.44,26.45l-.16-.05-21.72-9.77-3.31-1.83A.63.63,0,0,1,315,14a.62.62,0,0,1,.81-.28l25,11.58a.61.61,0,0,1,.3.82A.61.61,0,0,1,340.44,26.45Z"/><polygon class="cls-1" points="285.2 1.98 305.84 10.47 309.4 11.6 285.2 1.98"/><path class="cls-1" d="M309.31,12.22l-.1,0-3.56-1.12L285,2.56a.62.62,0,0,1-.34-.81.61.61,0,0,1,.8-.34L309.63,11a.62.62,0,0,1,.36.78A.64.64,0,0,1,309.31,12.22Z"/><polygon class="cls-1" points="309.4 11.6 312.48 12.93 338.24 23.63 309.4 11.6"/><path class="cls-1" d="M338.15,24.24a.42.42,0,0,1-.15,0L312.24,13.5l-3.08-1.33a.61.61,0,0,1-.33-.81.63.63,0,0,1,.81-.33l28.84,12a.62.62,0,0,1,.33.81A.6.6,0,0,1,338.15,24.24Z"/><polygon class="cls-1" points="312.48 12.93 315.55 14.25 338.24 23.63 312.48 12.93"/><path class="cls-1" d="M338.15,24.24a.42.42,0,0,1-.15,0l-22.69-9.37-3.08-1.33a.62.62,0,0,1,.49-1.14l25.76,10.7a.62.62,0,0,1,.33.81A.6.6,0,0,1,338.15,24.24Z"/><polygon class="cls-1" points="315.55 14.25 340.53 25.84 338.24 23.63 315.55 14.25"/><path class="cls-1" d="M340.44,26.45l-.17-.05-25-11.58A.63.63,0,0,1,315,14a.62.62,0,0,1,.8-.33l22.7,9.38a.76.76,0,0,1,.19.12L341,25.39a.61.61,0,0,1,.08.79A.62.62,0,0,1,340.44,26.45Z"/><polygon class="cls-1" points="287.35 1.69 309.4 11.6 338.24 23.63 287.35 1.69"/><path class="cls-1" d="M338.15,24.25,338,24.2l-28.84-12L287.1,2.26a.64.64,0,0,1-.32-.82.63.63,0,0,1,.82-.32l50.89,21.94a.63.63,0,0,1-.34,1.19Z"/><polygon class="cls-1" points="285.2 1.98 309.4 11.6 287.35 1.69 285.2 1.98"/><path class="cls-1" d="M309.31,12.22l-.14,0L285,2.56a.62.62,0,0,1,.14-1.19l2.15-.29a.54.54,0,0,1,.33,0L309.66,11a.62.62,0,0,1-.35,1.18Z"/><polygon class="cls-1" points="287.35 1.69 338.24 23.63 289.7 1.89 287.35 1.69"/><path class="cls-1" d="M338.15,24.25,338,24.2,287.11,2.26a.61.61,0,0,1,.29-1.18l2.35.2a.46.46,0,0,1,.2.05L338.5,23.07a.61.61,0,0,1,.31.81A.63.63,0,0,1,338.15,24.25Z"/><polygon class="cls-1" points="289.7 1.89 338.24 23.63 335.12 21.48 289.7 1.89"/><path class="cls-1" d="M338.15,24.25,338,24.2,289.44,2.46a.62.62,0,0,1,.5-1.14l45.43,19.59a.27.27,0,0,1,.1.06l3.12,2.15a.62.62,0,0,1,.19.82A.63.63,0,0,1,338.15,24.25Z"/><polygon class="cls-1" points="289.7 1.89 335.12 21.48 292.38 2.24 289.7 1.89"/><path class="cls-1" d="M335,22.09l-.16,0L289.45,2.46a.62.62,0,0,1,.33-1.18l2.68.35.17,0,42.74,19.24a.64.64,0,0,1,.32.82A.62.62,0,0,1,335,22.09Z"/><polygon class="cls-1" points="292.38 2.24 335.12 21.48 332.49 19.13 292.38 2.24"/><path class="cls-1" d="M335,22.09a.43.43,0,0,1-.16-.05L292.12,2.81a.62.62,0,0,1-.31-.82.61.61,0,0,1,.81-.32l40.11,16.89a.59.59,0,0,1,.17.1L335.53,21a.62.62,0,0,1-.5,1.08Z"/><polygon class="cls-1" points="294.92 2.93 292.38 2.24 332.49 19.13 294.92 2.93"/><path class="cls-1" d="M332.4,19.74l-.15,0L292.14,2.81a.62.62,0,0,1,.4-1.17l2.54.69.09,0,37.56,16.2a.62.62,0,0,1-.33,1.18Z"/><polygon class="cls-1" points="294.92 2.93 332.49 19.13 329.37 16.97 294.92 2.93"/><path class="cls-1" d="M332.4,19.74l-.16,0L294.67,3.5a.62.62,0,0,1,.48-1.14l34.45,14,.12.06,3.12,2.16a.63.63,0,0,1,.19.81A.61.61,0,0,1,332.4,19.74Z"/><polygon class="cls-1" points="298.29 3.57 294.92 2.93 329.37 16.97 298.29 3.57"/><path class="cls-1" d="M329.28,17.59l-.15,0-34.44-14A.62.62,0,0,1,295,2.32L298.4,3l.13,0,31.08,13.4a.63.63,0,0,1,.33.81A.62.62,0,0,1,329.28,17.59Z"/><polygon class="cls-1" points="298.29 3.57 329.37 16.97 326.1 15.16 298.29 3.57"/><path class="cls-1" d="M329.28,17.59l-.16-.05L298,4.14A.62.62,0,1,1,298.52,3l27.81,11.58.07,0,3.27,1.82a.62.62,0,0,1,.25.82A.63.63,0,0,1,329.28,17.59Z"/><polygon class="cls-1" points="298.29 3.57 326.1 15.16 302 4.36 298.29 3.57"/><path class="cls-1" d="M326,15.77l-.14,0L298.05,4.14A.61.61,0,0,1,298.41,3l3.72.79.12,0,24.1,10.79a.61.61,0,0,1,.31.81A.62.62,0,0,1,326,15.77Z"/><polygon class="cls-1" points="302 4.36 326.1 15.16 322.83 13.34 302 4.36"/><path class="cls-1" d="M326,15.77a.58.58,0,0,1-.16,0L301.75,4.93a.62.62,0,0,1-.32-.82.62.62,0,0,1,.81-.32l20.83,9,.06,0,3.27,1.81a.62.62,0,0,1-.4,1.16Z"/><polygon class="cls-1" points="302 4.36 322.83 13.34 305.56 5.49 302 4.36"/><path class="cls-1" d="M322.74,14l-.16-.05-20.83-9a.61.61,0,0,1-.33-.78.62.62,0,0,1,.77-.38l3.56,1.13.07,0,17.26,7.85a.61.61,0,0,1,.31.81A.62.62,0,0,1,322.74,14Z"/><polygon class="cls-1" points="305.56 5.49 322.83 13.34 319.56 11.53 305.56 5.49"/><path class="cls-1" d="M322.74,14l-.17-.05L305.3,6.06a.62.62,0,0,1,.51-1.14l14,6,.06,0,3.27,1.81a.62.62,0,0,1,.25.82A.63.63,0,0,1,322.74,14Z"/><polygon class="cls-1" points="305.56 5.49 309.31 7.11 319.56 11.53 305.56 5.49"/><path class="cls-1" d="M319.47,12.14l-.16,0L309.07,7.68h0l-3.75-1.62a.62.62,0,0,1-.33-.81.63.63,0,0,1,.82-.33l.07,0,13.93,6a.62.62,0,0,1,.32.81A.61.61,0,0,1,319.47,12.14Z"/><path class="cls-1" d="M309.31,7.11l6.84,3Z"/><path class="cls-1" d="M316.06,10.67l-.16,0-6.83-3A.61.61,0,0,1,308.7,7a.83.83,0,0,1,0-.15.63.63,0,0,1,.82-.33l6.83,3a.61.61,0,0,1,.37.66.83.83,0,0,1,0,.15A.62.62,0,0,1,316.06,10.67Z"/><polygon class="cls-1" points="309.31 7.11 316.15 10.06 319.56 11.53 309.31 7.11"/><path class="cls-1" d="M319.47,12.14l-.16,0-3.41-1.47h0l-6.83-3a.62.62,0,0,1-.33-.81.63.63,0,0,1,.82-.33L319.8,11a.62.62,0,0,1-.33,1.18Z"/><path class="cls-1" d="M408.49,154.93h0l-1.85-.39a.78.78,0,0,1-.21-.09l-1.9-1.22a.49.49,0,0,1-.13-.12l-.54-.64-106-145a.6.6,0,0,1-.06-.63.63.63,0,0,1,.52-.35l.84,0a.76.76,0,0,1,.21,0l3.22,1,3.14,1.35,3.5,1.11,6.21,2.67,12.11,6.85,2.83,2L333,23.89l2.41,1.83L340,30.17l.07.08L343.7,35l84.92,114a.39.39,0,0,1,.08.14l.39,1a.63.63,0,0,1-.06.58L428,152.27a.6.6,0,0,1-.28.22l-.49.2-.16,0-18.36,2.2ZM407,153.34l1.64.35,18.19-2.19.23-.09.79-1.13-.24-.6L342.71,35.78,339.14,31l-4.55-4.37-2.38-1.82-2.67-2.38-2.73-2-12-6.78-6.09-2.62L305.23,10l-3.14-1.35-2.49-.75L404.79,151.7l.45.53Z"/><path class="cls-1" d="M304.93,170.63l-.15,0-1.37-.59-.09-.05-1.9-1.23a.61.61,0,0,1-.17-.15L235.68,80.42,234,79.34l-2.13-.18-9.2,1.17-1.25.9.19.48,13.27,22.7a.64.64,0,0,1-.07.72L234,106a.63.63,0,0,1-.71.16l-1.7-.74a.6.6,0,0,1-.25-.19L213,81.12a.46.46,0,0,1-.09-.15l-.39-1-.46-1.9a.59.59,0,0,1,0-.39l.73-1.7a.66.66,0,0,1,.17-.23l.64-.54a1,1,0,0,1,.17-.1l2-.78.17,0,12.66-1.38.28-.11.43-.48-.42-1-36.71-49a.64.64,0,0,1-.08-.14l-.32-.79-1.69-1.09-1.89-.82-1.88-.05-.72,0-1.88.52-.39,1.58.58.9,9,12a.66.66,0,0,1,.12.27l.47,2.63a.62.62,0,0,1-.24.61l-1.76,1.27-.59.51a.67.67,0,0,1-.37.15l-5,.27h-.13l-1.51-.25a.5.5,0,0,1-.24-.09l-1.9-1.22-.14-.12-.54-.64-2.35-3.06a.62.62,0,0,1-.12-.51.63.63,0,0,1,.32-.41l2.1-1.12a.61.61,0,0,1,.64,0l1.56,1.07.09.08,1.19,1.19,2.14-.32L174.15,18l-2.21.34.48.83a.59.59,0,0,1,0,.55l-.74,1.71a.58.58,0,0,1-.34.33.59.59,0,0,1-.47,0l-.28-.11-1.43-.24a.6.6,0,0,1-.31-.15l-.88-.78a.52.52,0,0,1-.1-.11l-2-2.89a.63.63,0,0,1-.1-.27L165.51,15a.6.6,0,0,1,.21-.55l.64-.54a.55.55,0,0,1,.37-.14l.83-.05L282.36.09h.12l2.28.19L286.85,0H287l2.34.2L292,.55l2.62.71,3.32.63,3.73.79,3.62,1.15,14.06,6.05,9.86,5.47,3.17,2.19,2.69,2.4,3.06,2.11a.24.24,0,0,1,.08.06l2.29,2.2,2.62,2.34,2.2,2.6,2.24,2.16L349.78,34l87.77,119.67a.61.61,0,0,1-.19.9l-1.61.93a.63.63,0,0,1-.23.08l-59.75,7h-.17l-1.51-.24a.6.6,0,0,1-.22-.09l-2.25-1.37a.69.69,0,0,1-.18-.16L370.18,159a.63.63,0,0,1-.07-.61.61.61,0,0,1,.5-.36L399,154.64,373.16,120,279.58,130.7l26,35.14,29.24-3.8a.63.63,0,0,1,.63.32l1.12,2.11a.63.63,0,0,1,.07.3l-.05,2a.62.62,0,0,1-.86.55l-.54-.23-30.11,3.53Zm-1-1.75,1.17.5,30.11-3.53h.16l0-.94-.84-1.58-29.18,3.78a.63.63,0,0,1-.58-.24l-26.88-36.29a.63.63,0,0,1-.07-.62.64.64,0,0,1,.5-.37l95-10.88a.61.61,0,0,1,.56.24l26.69,35.81a.61.61,0,0,1,.07.61.59.59,0,0,1-.49.37l-28.41,3.38.58.81,2,1.24,1.3.21,59.54-7,.89-.52L348.81,34.77l-2.12-2.52-2.24-2.15-2.19-2.59-2.58-2.29L337.42,23l-3.08-2.13-2.69-2.4-3.06-2.1L318.83,11,304.89,5l-3.51-1.11-3.65-.78-3.36-.64-2.58-.7-2.6-.33-2.25-.19-2.08.28a.33.33,0,0,1-.14,0l-2.28-.19L167.66,15,167,15l-.22.18.23,1.67,1.87,2.7.69.62,1.23.2.39-.89-.78-1.35a.62.62,0,0,1,.45-.92l3.47-.53a.63.63,0,0,1,.59.24l13.34,17.9a.64.64,0,0,1,.08.61.66.66,0,0,1-.48.38l-3.47.53a.64.64,0,0,1-.53-.18l-1.38-1.38-1.2-.83-1.12.6,2.35,3,1.72,1.11,1.31.21,4.71-.26.47-.4,1.48-1.07-.38-2.11L182.9,23.18,182.15,22a.59.59,0,0,1-.09-.48l.55-2.2a.61.61,0,0,1,.43-.45l2.3-.63.13,0,.83,0,2,.06a.59.59,0,0,1,.23.05l2,.88.09.05,1.9,1.22a.59.59,0,0,1,.24.3l.36.9,36.72,49a.64.64,0,0,1,.08.14l.58,1.47a.6.6,0,0,1-.11.64l-.79.88a.53.53,0,0,1-.23.16l-.49.2-.16,0-12.67,1.38-1.78.71-.45.37L213.33,78l.38,1.6.33.81,18.22,23.93,1.15.49.18-.21L220.53,82.29a.59.59,0,0,1,0-.08l-.39-1a.63.63,0,0,1,.22-.73l1.76-1.26a.7.7,0,0,1,.28-.12l9.43-1.2h.13l2.35.2a.59.59,0,0,1,.28.1l1.9,1.22a.75.75,0,0,1,.16.15l65.57,88.15Z"/><path class="cls-1" d="M275.81,127.3a.62.62,0,0,1-.4-.25L192.29,15.49a.63.63,0,0,1-.07-.62.62.62,0,0,1,.5-.37l95-10.88a.62.62,0,0,1,.57.25l82.77,111.42a.61.61,0,0,1,.07.61.58.58,0,0,1-.49.37L276,127.3A1,1,0,0,1,275.81,127.3ZM193.93,15.61,276.19,126l93.25-10.87L287.51,4.89Z"/><path class="cls-1" d="M237.7,544.71a.64.64,0,0,1-.4-.25L180,467.92a.63.63,0,0,1,.13-.87.62.62,0,0,1,.87.12l57.31,76.55a.62.62,0,0,1-.12.87A.67.67,0,0,1,237.7,544.71Z"/><path class="cls-1" d="M219.55,377.31a.62.62,0,0,1,0-1.23l27.79-3.24a.63.63,0,0,1,.34-.32l.49-.2a.62.62,0,1,1,.45,1.16l-.25.1,0,.1a.61.61,0,0,1-.54.37l-.83.05-27.26,3.21Z"/><path class="cls-1" d="M283.5,368a.6.6,0,0,1-.41-.25L281.82,366a.62.62,0,0,1,.14-.87.63.63,0,0,1,.86.14l1.27,1.77a.61.61,0,0,1-.14.86A.57.57,0,0,1,283.5,368Z"/><path class="cls-1" d="M286.42,369.69a.62.62,0,0,1,.06-1.23l.83,0a.62.62,0,0,1,.65.58.62.62,0,0,1-.58.66l-.83.05Z"/><path class="cls-1" d="M283.69,368.51a.6.6,0,0,1-.48-.38l-.2-.49a.62.62,0,0,1,1.16-.46l.19.49a.61.61,0,0,1-.35.8A.5.5,0,0,1,283.69,368.51Z"/><path class="cls-1" d="M286.43,369.69l-.16,0-.69-.3a.62.62,0,1,1,.5-1.14l.68.3a.62.62,0,0,1-.33,1.18Z"/><path class="cls-1" d="M284.37,368.8a.42.42,0,0,1-.15,0l-.68-.29a.62.62,0,0,1,.49-1.14l.68.29a.62.62,0,0,1,.32.82A.61.61,0,0,1,284.37,368.8Z"/><path class="cls-1" d="M285.74,369.39a.53.53,0,0,1-.16,0l-.68-.3a.62.62,0,0,1,.49-1.13l.69.29a.62.62,0,0,1,.32.81A.61.61,0,0,1,285.74,369.39Z"/><path class="cls-1" d="M285.06,369.1a.43.43,0,0,1-.16-.05l-.68-.29a.62.62,0,0,1-.33-.81.63.63,0,0,1,.82-.33l.68.3a.62.62,0,0,1,.33.81A.63.63,0,0,1,285.06,369.1Z"/><path class="cls-1" d="M287.25,369.64a.62.62,0,0,1,0-1.23l27.31-3.21a.62.62,0,1,1,.15,1.23l-27.31,3.21Z"/><path class="cls-1" d="M267.61,328.77a.63.63,0,0,1-.52-.53.62.62,0,0,1,.54-.69l17.53-2.17a.62.62,0,1,1,.15,1.23l-17.53,2.17Z"/><path class="cls-1" d="M248.33,373.51a.42.42,0,0,1-.16,0,.62.62,0,0,1-.32-.81l88.78-205.94a.62.62,0,1,1,1.14.49L249,373.15A.61.61,0,0,1,248.33,373.51Z"/><path class="cls-1" d="M69.24,491.11a.42.42,0,0,1-.15,0,.62.62,0,0,1-.33-.81L234.41,106a.62.62,0,0,1,.81-.33.62.62,0,0,1,.32.82L69.9,490.75A.61.61,0,0,1,69.24,491.11Z"/><path class="cls-1" d="M47.81,462.84l-.15,0a.63.63,0,0,1-.33-.82L213,77.76a.64.64,0,0,1,.82-.32.62.62,0,0,1,.32.81L48.47,462.47A.61.61,0,0,1,47.81,462.84Z"/><path class="cls-1" d="M27.58,423.34l-.15,0a.62.62,0,0,1-.32-.82L192.75,38.26a.62.62,0,0,1,1.14.49L28.25,423A.63.63,0,0,1,27.58,423.34Z"/><path class="cls-1" d="M13.87,419.45a.42.42,0,0,1-.15,0,.63.63,0,0,1-.33-.82L179,34.38a.62.62,0,1,1,1.14.49L14.53,419.09A.62.62,0,0,1,13.87,419.45Z"/><path class="cls-1" d="M7,406.35a.44.44,0,0,1-.15-.05.62.62,0,0,1-.33-.81L172.12,21.27a.63.63,0,0,1,.82-.32.61.61,0,0,1,.32.81L7.62,406A.63.63,0,0,1,7,406.35Z"/><path class="cls-1" d="M.68,401.21l-.16,0a.62.62,0,0,1-.32-.82L165.84,16.13a.62.62,0,0,1,.81-.32.62.62,0,0,1,.33.81L1.34,400.84A.62.62,0,0,1,.68,401.21Z"/><path class="cls-1" d="M271.75,539.94l-.16,0a.62.62,0,0,1-.32-.82L436.91,154.87a.62.62,0,1,1,1.14.49L272.41,539.57A.62.62,0,0,1,271.75,539.94Z"/><path class="cls-1" d="M270.14,540.87a.62.62,0,0,1,.05-1.23l.45,0a.61.61,0,0,1,.33-.32l.25-.1,0-.11a.62.62,0,0,1,1.14.49l-.15.35a.61.61,0,0,1-.34.33l-.25.1,0,.1a.64.64,0,0,1-.54.38l-.82,0Z"/><path class="cls-1" d="M3.1,405.9a.62.62,0,0,1-.42-.26l-2-2.88a.52.52,0,0,1-.06-.13L0,401.16a.64.64,0,0,1,0-.47l.15-.34A.61.61,0,0,1,1,400a.62.62,0,0,1,.33.81l-.05.11.46,1.16,2,2.83a.61.61,0,0,1-.15.86A.67.67,0,0,1,3.1,405.9Z"/><path class="cls-1" d="M5.84,407.08a.6.6,0,0,1-.48-.38.62.62,0,0,1,.34-.81l.74-.3,0-.1a.62.62,0,0,1,.82-.32.61.61,0,0,1,.32.81l-.15.34a.58.58,0,0,1-.34.33l-1,.39A.58.58,0,0,1,5.84,407.08Z"/><path class="cls-1" d="M3.44,406.05a.44.44,0,0,1-.15-.05L3,405.86a.62.62,0,0,1,.49-1.14l.34.15a.62.62,0,0,1-.34,1.18Z"/><path class="cls-1" d="M5.84,407.08l-.15,0-.69-.3a.62.62,0,0,1-.33-.81.63.63,0,0,1,.82-.33l.69.3a.62.62,0,0,1-.34,1.18Z"/><path class="cls-1" d="M4,406.69a.67.67,0,0,1-.38-.22l-.54-.63A.62.62,0,0,1,4,405l.54.64a.62.62,0,0,1-.07.87A.64.64,0,0,1,4,406.69Z"/><path class="cls-1" d="M4.67,407a.62.62,0,0,1-.14-1.19L5,405.6a.62.62,0,0,1,.81.34.63.63,0,0,1-.34.81l-.49.19A.6.6,0,0,1,4.67,407Z"/><path class="cls-1" d="M4.67,407l-.16,0-.68-.3a.62.62,0,0,1,.49-1.14l.68.3A.62.62,0,0,1,4.67,407Z"/><path class="cls-1" d="M3.1,405.9l-.15,0a.62.62,0,0,1-.32-.82L168.27,20.82a.62.62,0,0,1,.81-.32.63.63,0,0,1,.33.82L3.76,405.53A.61.61,0,0,1,3.1,405.9Z"/><path class="cls-1" d="M16.52,413.31a.67.67,0,0,1-.4-.24l-7.35-9.48-.5,0a.62.62,0,0,1-.08-1.24l.83,0a.61.61,0,0,1,.53.23l7.55,9.74a.62.62,0,0,1-.11.87A.63.63,0,0,1,16.52,413.31Z"/><path class="cls-1" d="M9,403.57l-.15-.05a.61.61,0,0,1-.32-.81L174.28,18.15a.61.61,0,0,1,.81-.32.6.6,0,0,1,.32.81L9.63,403.2A.64.64,0,0,1,9,403.57Z"/><path class="cls-1" d="M16.25,423.31a.61.61,0,0,1-.38-.21l-2.14-2.54a.67.67,0,0,1-.15-.37l0-.73-.15-.39a.62.62,0,0,1,.34-.81.63.63,0,0,1,.81.35l.19.49a.65.65,0,0,1,0,.2l0,.62,2,2.38a.62.62,0,0,1-.08.87A.6.6,0,0,1,16.25,423.31Z"/><path class="cls-1" d="M20.2,425.42a.62.62,0,0,1,.06-1.23l.83-.05a.62.62,0,0,1,.65.59.62.62,0,0,1-.58.65l-.83.05Z"/><path class="cls-1" d="M16.79,424a.61.61,0,0,1-.38-.21l-.54-.64a.62.62,0,0,1,.07-.87.63.63,0,0,1,.88.07l.54.64a.62.62,0,0,1-.08.87A.6.6,0,0,1,16.79,424Z"/><path class="cls-1" d="M20.2,425.42l-.15,0-.68-.29a.62.62,0,0,1,.49-1.14l.68.29a.62.62,0,0,1-.34,1.18Z"/><path class="cls-1" d="M17.47,424.25l-.15-.05-.68-.29a.62.62,0,1,1,.49-1.14l.68.29a.62.62,0,0,1-.34,1.19Z"/><path class="cls-1" d="M18.69,425.17a.62.62,0,0,1,.06-1.23l.83,0a.61.61,0,0,1,.65.58.62.62,0,0,1-.58.66l-.84,0Z"/><path class="cls-1" d="M18.69,425.17a.42.42,0,0,1-.15,0l-.69-.29a.66.66,0,0,1-.23-.17l-.53-.64a.61.61,0,0,1,.08-.87.62.62,0,0,1,.87.07l.44.53L19,424a.62.62,0,0,1,.32.82A.61.61,0,0,1,18.69,425.17Z"/><path class="cls-1" d="M16.25,423.31a.42.42,0,0,1-.15,0,.62.62,0,0,1-.33-.81L181.42,38.24a.62.62,0,0,1,.81-.33.63.63,0,0,1,.32.82L16.91,423A.62.62,0,0,1,16.25,423.31Z"/><path class="cls-1" d="M21,425.38a.63.63,0,0,1,.06-1.24l4.15-.23a.61.61,0,0,1,.65.58.62.62,0,0,1-.58.66l-4.15.23Z"/><path class="cls-1" d="M21,425.38l-.15-.05a.62.62,0,0,1-.33-.81L186.2,40.3A.61.61,0,0,1,187,40a.6.6,0,0,1,.32.81L21.69,425A.63.63,0,0,1,21,425.38Z"/><path class="cls-1" d="M25.18,425.14a.61.61,0,0,1-.38-.21.62.62,0,0,1,.08-.88l.63-.53a.61.61,0,0,1,.37-.15l.63,0,.36-.31.24-.55a.62.62,0,0,1,1.14.49l-.3.69a.72.72,0,0,1-.17.22l-.64.54a.54.54,0,0,1-.36.14l-.63,0-.47.4A.63.63,0,0,1,25.18,425.14Z"/><path class="cls-1" d="M55.47,445.08a.62.62,0,0,1-.41-.24L31.45,413.19a.6.6,0,0,1,.13-.86.61.61,0,0,1,.86.12L56.06,444.1a.62.62,0,0,1-.13.86A.61.61,0,0,1,55.47,445.08Z"/><path class="cls-1" d="M189.33,32.18l-.16,0a.61.61,0,0,1-.32-.81l3.68-8.54a.62.62,0,0,1,1.14.49L190,31.81A.63.63,0,0,1,189.33,32.18Z"/><path class="cls-1" d="M66.55,490.76a.61.61,0,0,1-.4-.23L47.79,466.41a.64.64,0,0,1-.08-.14l-.58-1.47a.65.65,0,0,1,0-.19l-.1-1.67a.56.56,0,0,1,0-.28l.29-.68a.63.63,0,0,1,.82-.32.61.61,0,0,1,.32.81l-.23.55.08,1.42.51,1.29,18.31,24a.62.62,0,0,1-.12.86A.58.58,0,0,1,66.55,490.76Z"/><path class="cls-1" d="M67.77,491.7a.64.64,0,0,1-.48-.39.61.61,0,0,1,.35-.8l.49-.2a.62.62,0,0,1,.8.35.62.62,0,0,1-.35.81l-.49.19A.71.71,0,0,1,67.77,491.7Z"/><path class="cls-1" d="M66.75,491.26a.64.64,0,0,1-.48-.39l-.2-.49a.61.61,0,0,1,.34-.8.62.62,0,0,1,.81.34l.2.49a.62.62,0,0,1-.35.81A.69.69,0,0,1,66.75,491.26Z"/><path class="cls-1" d="M67.77,491.7l-.15-.05-.69-.29h0l-.32-.14a.62.62,0,0,1-.33-.81.63.63,0,0,1,.82-.33l1,.44a.62.62,0,0,1-.34,1.19Z"/><path class="cls-1" d="M66.55,490.76a.42.42,0,0,1-.15,0,.62.62,0,0,1-.33-.81L231.72,105.69a.62.62,0,0,1,1.14.49L67.21,490.4A.61.61,0,0,1,66.55,490.76Z"/><path class="cls-1" d="M68.27,491.5a.52.52,0,0,1-.23-.08.56.56,0,0,1-.18-.16.6.6,0,0,1-.12-.46.5.5,0,0,1,.09-.23.55.55,0,0,1,.16-.18.76.76,0,0,1,.22-.11.61.61,0,0,1,.47.08.9.9,0,0,1,.18.16.62.62,0,0,1,.1.22,1,1,0,0,1,0,.25.64.64,0,0,1-.25.4A.57.57,0,0,1,68.27,491.5Z"/><path class="cls-1" d="M68.26,491.5a.6.6,0,0,1-.48-.38.62.62,0,0,1,.35-.81l1-.38a.62.62,0,1,1,.46,1.15l-1,.38A.5.5,0,0,1,68.26,491.5Z"/><path class="cls-1" d="M226.75,92.86l-.15,0a.62.62,0,0,1-.32-.82l5.44-12.63a.63.63,0,0,1,.82-.33.62.62,0,0,1,.32.82l-5.44,12.63A.63.63,0,0,1,226.75,92.86Z"/><path class="cls-1" d="M136.44,554.11a.64.64,0,0,1-.4-.25l-59.7-80.41a.62.62,0,0,1,1-.74L137,553.12a.61.61,0,0,1-.13.87A.63.63,0,0,1,136.44,554.11Z"/><path class="cls-1" d="M230.07,98.34l-.16,0a.62.62,0,0,1-.32-.82l6.92-16a.62.62,0,0,1,1.14.49l-6.92,16A.62.62,0,0,1,230.07,98.34Z"/><path class="cls-1" d="M140.4,556.22a.62.62,0,0,1,0-1.24l.83,0a.62.62,0,1,1,.07,1.23l-.83.05Z"/><path class="cls-1" d="M136.64,554.6a.62.62,0,0,1-.48-.39l-.2-.49a.61.61,0,0,1,.34-.8.62.62,0,0,1,.81.34l.2.49a.63.63,0,0,1-.35.81A.69.69,0,0,1,136.64,554.6Z"/><path class="cls-1" d="M140.4,556.22l-.16-.05-.68-.29a.62.62,0,0,1,.49-1.14l.68.29a.62.62,0,0,1-.33,1.19Z"/><path class="cls-1" d="M137.32,554.89a.44.44,0,0,1-.15,0l-.68-.29a.62.62,0,0,1-.33-.81.63.63,0,0,1,.82-.33l.68.3a.61.61,0,0,1,.32.81A.63.63,0,0,1,137.32,554.89Z"/><path class="cls-1" d="M139.71,555.92l-.15,0-.68-.3a.62.62,0,0,1-.33-.81.63.63,0,0,1,.82-.33l.68.3a.61.61,0,0,1,.32.81A.61.61,0,0,1,139.71,555.92Z"/><path class="cls-1" d="M139,555.63l-.15,0-1.72-.74a.62.62,0,1,1,.5-1.13l1.71.73a.62.62,0,0,1-.34,1.19Z"/><path class="cls-1" d="M136.44,554.11l-.15-.05a.62.62,0,0,1-.33-.81L301.61,169a.62.62,0,0,1,1.13.49L137.1,553.74A.63.63,0,0,1,136.44,554.11Z"/><path class="cls-1" d="M141.23,556.17a.62.62,0,0,1,0-1.23l1.32-.23a.61.61,0,0,1,.72.5.63.63,0,0,1-.5.72l-1.32.23A.46.46,0,0,1,141.23,556.17Z"/><path class="cls-1" d="M141.23,556.17a.43.43,0,0,1-.16,0,.61.61,0,0,1-.32-.81L306.39,171.09a.63.63,0,0,1,.82-.32.62.62,0,0,1,.32.81L141.89,555.8A.63.63,0,0,1,141.23,556.17Z"/><path class="cls-1" d="M142.55,555.93a.44.44,0,0,1-.15,0,.62.62,0,0,1-.33-.81l77-178.62a.62.62,0,0,1,1.14.49l-77,178.62A.63.63,0,0,1,142.55,555.93Z"/><path class="cls-1" d="M334.12,59l-.15,0a.63.63,0,0,1-.33-.82l9.43-21.86a.62.62,0,0,1,.81-.32.6.6,0,0,1,.32.81l-9.42,21.86A.61.61,0,0,1,334.12,59Z"/><path class="cls-1" d="M237.7,544.71a.62.62,0,0,1,0-1.23l32.44-3.84a.62.62,0,1,1,.14,1.23l-32.43,3.84Z"/><path class="cls-1" d="M287.25,369.64l-.15,0a.63.63,0,0,1-.33-.82l88.79-205.94a.62.62,0,0,1,1.14.49L287.91,369.27A.61.61,0,0,1,287.25,369.64Z"/><path class="cls-1" d="M282.23,366.26l-.15,0a.63.63,0,0,1-.33-.82l88.79-205.94a.62.62,0,0,1,1.13.49L282.89,365.89A.61.61,0,0,1,282.23,366.26Z"/><path class="cls-1" d="M250.29,93.7l-.15,0a.61.61,0,0,1-.32-.81L287.66,5.07a.62.62,0,0,1,.81-.33.63.63,0,0,1,.33.82L251,93.33A.64.64,0,0,1,250.29,93.7Z"/><path class="cls-1" d="M285.14,326.61l-.15,0a.62.62,0,0,1-.32-.82l88.63-205.6a.63.63,0,0,1,.82-.32.61.61,0,0,1,.32.81L285.8,326.24A.61.61,0,0,1,285.14,326.61Z"/><path class="cls-1" d="M237.7,544.71l-.15-.05a.61.61,0,0,1-.32-.81l76.85-178.28a.63.63,0,0,1,.82-.32.61.61,0,0,1,.32.81L238.36,544.34A.62.62,0,0,1,237.7,544.71Z"/></g></g></svg>