<svg xmlns="http://www.w3.org/2000/svg" viewBox="0 0 108.75 110.03"><defs><style>.cls-1{fill:#fff;}</style></defs><g id="Capa_2" data-name="Capa 2"><g id="Capa_1-2" data-name="Capa 1"><polygon class="cls-1" points="94.04 110.03 0 110.03 0 33.5 28.64 0 94.04 0 94.04 18.5 87.14 25.19 87.14 6.9 31.82 6.9 6.9 36.05 6.9 103.13 87.14 103.13 87.14 63.7 94.04 56.49 94.04 110.03"/><polygon class="cls-1" points="32.14 3.45 32.14 37.8 3.45 37.8 32.14 3.45"/><rect class="cls-1" x="75.27" y="26.51" width="10.72" height="47.23" transform="translate(59.06 -42.33) rotate(45)"/><rect class="cls-1" x="97.04" y="24.74" width="10.72" height="7.25" transform="translate(50.05 -64.1) rotate(45)"/><polygon class="cls-1" points="65.21 73.12 57.63 65.55 55.77 67.42 52.36 78.28 63.34 74.99 65.21 73.12"/></g></g></svg>