<svg xmlns="http://www.w3.org/2000/svg" viewBox="0 0 107.64 132.93"><defs><style>.cls-1{fill:#fff;}</style></defs><g id="Capa_2" data-name="Capa 2"><g id="Capa_1-2" data-name="Capa 1"><path class="cls-1" d="M7.41,66.62a46.46,46.46,0,0,1,44.2-46.35l-7.3,7.29,5.24,5.24L66,16.4,49.55,0,44.31,5.24l7.61,7.61A53.82,53.82,0,0,0,25.6,112.46l3.89-6.31A46.18,46.18,0,0,1,7.41,66.62Z"/><path class="cls-1" d="M107.64,66.62A53.82,53.82,0,0,0,83.92,22l-4.15,6.14a46.41,46.41,0,0,1-24,84.85l7.61-7.61-5.24-5.24-16.4,16.4,16.4,16.4,5.24-5.24-7.3-7.3A53.88,53.88,0,0,0,107.64,66.62Z"/><path class="cls-1" d="M53.76,91.38a24.91,24.91,0,0,0,20.65-11l-6.14-4.15a17.49,17.49,0,0,1-30.8-3.42H44.3L32.64,61.16l-3.39,3.39-.33,0c0,.12,0,.24,0,.37L21,72.83h8.7A25,25,0,0,0,53.76,91.38Z"/><path class="cls-1" d="M75,72.83,86.67,61.16H78.1A24.92,24.92,0,0,0,32.54,53.4l6.31,3.89a17.5,17.5,0,0,1,31.58,3.87H63.34Z"/></g></g></svg>