<svg xmlns="http://www.w3.org/2000/svg" viewBox="0 0 108.45 108.45"><defs><style>.cls-1{fill:#fff;}</style></defs><g id="Capa_2" data-name="Capa 2"><g id="Capa_1-2" data-name="Capa 1"><path class="cls-1" d="M54.23,108.45a54.23,54.23,0,1,1,54.22-54.22A54.29,54.29,0,0,1,54.23,108.45Zm0-101.55a47.33,47.33,0,1,0,47.32,47.33A47.38,47.38,0,0,0,54.23,6.9Z"/><polygon class="cls-1" points="30.08 55.41 25.2 50.53 54.23 21.5 83.25 50.53 78.37 55.41 54.23 31.27 30.08 55.41"/><polygon class="cls-1" points="30.08 78.3 25.2 73.42 54.23 44.39 83.25 73.42 78.37 78.3 54.23 54.15 30.08 78.3"/></g></g></svg>