<svg xmlns="http://www.w3.org/2000/svg" viewBox="0 0 118.75 93.5"><defs><style>.cls-1{fill:#fff;}</style></defs><g id="Capa_2" data-name="Capa 2"><g id="Capa_1-2" data-name="Capa 1"><path class="cls-1" d="M13.34,29.1a45.53,45.53,0,0,0,0,64.4l64.4-64.4A45.54,45.54,0,0,0,13.34,29.1Z"/><path class="cls-1" d="M69.76,86.07c-.92,0-1.87,0-2.8-.08l.39-6.89a43,43,0,0,0,8.19-.33l.94,6.84A48.64,48.64,0,0,1,69.76,86.07ZM57.54,84.53a49.24,49.24,0,0,1-9-3.26l3-6.22a42.31,42.31,0,0,0,7.69,2.8ZM85.75,83.4,83.5,76.87a41.35,41.35,0,0,0,7.44-3.41l3.48,6A48.22,48.22,0,0,1,85.75,83.4ZM40.43,76.33a49.41,49.41,0,0,1-5.31-4.61l-2.44-2.44,4.09-4.09,2.44,2.44.79-.79a41.84,41.84,0,0,0,4.57,4Zm61.72-2.49-4.57-5.17c.66-.59,1.31-1.2,1.94-1.83a43.57,43.57,0,0,0,3.66-4.16l5.47,4.2a49.89,49.89,0,0,1-4.25,4.84C103.67,72.45,102.91,73.17,102.15,73.84Zm-54.23-10L43,58.92l6.28-6.28,4.88,4.88Zm65.77-5-6.19-3.06a41.6,41.6,0,0,0,2.89-7.66l6.67,1.8A49,49,0,0,1,113.69,58.79ZM60.47,51.25l-4.88-4.88,6.28-6.28L66.75,45Zm58.16-10.78L111.75,40c.06-1,.1-1.94.1-2.91a42.13,42.13,0,0,0-.33-5.27l6.85-.86a50.19,50.19,0,0,1,.38,6.13C118.75,38.21,118.71,39.35,118.63,40.47ZM73,38.7l-4.88-4.88,6.28-6.28,4.88,4.88ZM85.58,26.15l-4.89-4.88L87,15l4.88,4.88Zm24.13-2.33a41,41,0,0,0-3.32-7.48l6-3.41a48.86,48.86,0,0,1,3.87,8.72ZM98.13,13.6,93.25,8.72,102,0l2.44,2.44c.87.86,1.71,1.77,2.51,2.7l-2.52,2.17h0Z"/><rect class="cls-1" x="6.79" y="91.5" width="10.53" height="1.76"/></g></g></svg>