<svg xmlns="http://www.w3.org/2000/svg" viewBox="0 0 595.42 563.96"><defs><style>.cls-1,.cls-3,.cls-4,.cls-6{fill:none;stroke:#4aa1c8;stroke-linecap:round;stroke-linejoin:round;}.cls-1,.cls-3,.cls-6{stroke-width:1.99px;}.cls-2{isolation:isolate;}.cls-3{opacity:0.3;}.cls-4{stroke-width:3.98px;}.cls-5{fill:#4aa1c8;}.cls-6{opacity:0.8;}</style></defs><g id="Capa_2" data-name="Capa 2"><g id="Capa_1-2" data-name="Capa 1"><g id="_11" data-name="11"><g id="Axonometric_Cube" data-name="Axonometric Cube"><polygon id="Cube_face_-_left" data-name="Cube face - left" class="cls-1" points="590.33 315.92 592.67 314.57 592.67 286.43 590.33 287.79 590.33 315.92"/><polyline id="Cube_face_-_right" data-name="Cube face - right" class="cls-1" points="558.71 297.67 590.33 315.92 590.33 287.79 572.91 277.73"/><polyline id="Cube_face_-_top" data-name="Cube face - top" class="cls-1" points="572.62 277.56 590.33 287.79 592.67 286.43 575.3 276.4"/></g><g id="Axonometric_Cube-2" data-name="Axonometric Cube"><line id="Cube_face_-_left-2" data-name="Cube face - left" class="cls-1" x1="252.05" y1="482.81" x2="410.07" y2="391.57"/><polyline id="Cube_face_-_left-3" data-name="Cube face - left" class="cls-1" points="538.45 317.46 558.48 305.89 558.48 286.29"/></g><g id="Axonometric_Cylinder" data-name="Axonometric Cylinder"><line class="cls-1" x1="523.52" y1="306.35" x2="534.36" y2="312.61"/><line class="cls-1" x1="494.88" y1="380.16" x2="481.64" y2="372.51"/><ellipse id="Cylinder_face" data-name="Cylinder face" class="cls-1" cx="514.62" cy="346.39" rx="39.12" ry="22.59" transform="translate(-42.67 618.86) rotate(-60)"/></g><g class="cls-2"><path class="cls-1" d="M514.67,369.18c10.53-5.83,19.21-20.52,19.39-32.82s-8.2-17.54-18.72-11.72S496.13,345.16,496,357.46,504.15,375,514.67,369.18Z"/><path class="cls-1" d="M514.72,366.06c9-5,16.51-17.64,16.67-28.22s-7-15.09-16.1-10.08S498.78,345.4,498.62,356,505.67,371.06,514.72,366.06Z"/><path class="cls-1" d="M513.91,357.19c5.12-2.83,9.33-10,9.42-15.95s-4-8.53-9.1-5.7-9.33,10-9.42,15.95S508.8,360,513.91,357.19Z"/><path class="cls-3" d="M504.81,351.49a15.92,15.92,0,0,1,.71-4.33,20.94,20.94,0,0,1,1.82-4.3,18.92,18.92,0,0,1,6.89-7.32c5.12-2.83,9.19-.27,9.1,5.7s-4.3,13.12-9.42,15.95c-4.91,2.71-8.85.48-9.09-5C504.81,352,504.81,351.73,504.81,351.49Z"/></g><g id="Axonometric_Cylinder-2" data-name="Axonometric Cylinder"><line class="cls-1" x1="463.47" y1="341.14" x2="474.21" y2="347.34"/><path class="cls-1" d="M434.73,414.89l-17.32-10c-4.9-2.93-7.92-9.09-7.92-17.8A50.16,50.16,0,0,1,412.8,370"/><path id="Cylinder_face-2" data-name="Cylinder face" class="cls-1" d="M426.81,397.09c0,17.64,12.38,24.79,27.66,16s27.66-30.28,27.66-47.92-12.38-24.79-27.66-16S426.81,379.44,426.81,397.09Z"/></g><g class="cls-2"><path class="cls-1" d="M454.52,403.91c10.52-5.83,19.21-20.52,19.39-32.82s-8.2-17.55-18.73-11.72-19.2,20.52-19.39,32.81S444,409.73,454.52,403.91Z"/><path class="cls-1" d="M454.56,400.78c9.05-5,16.52-17.63,16.68-28.21s-7.05-15.09-16.1-10.08-16.52,17.64-16.67,28.22S445.52,405.79,454.56,400.78Z"/><path class="cls-1" d="M453.76,391.92c5.11-2.83,9.33-10,9.42-15.95s-4-8.53-9.1-5.7-9.33,10-9.42,16S448.64,394.75,453.76,391.92Z"/><path class="cls-3" d="M440.43,387c0,.32,0,.63,0,.93.31,7.11,5.45,10,11.84,6.49,6.66-3.69,12.16-13,12.27-20.77s-5.19-11.11-11.85-7.42A26.58,26.58,0,0,0,440.43,387Zm4.23-.73a16.3,16.3,0,0,1,.7-4.33,21.54,21.54,0,0,1,1.83-4.3,18.85,18.85,0,0,1,6.89-7.32c5.12-2.83,9.19-.28,9.1,5.7s-4.31,13.12-9.42,15.95c-4.91,2.71-8.86.47-9.09-5C444.66,386.7,444.66,386.46,444.66,386.22Z"/></g><g id="Axonometric_Cube-3" data-name="Axonometric Cube"><polygon id="Cube_face_-_left-4" data-name="Cube face - left" class="cls-4" points="266.93 454.45 593.43 265.95 593.43 94.4 266.93 282.9 266.93 454.45"/><polyline id="Cube_face_-_right-2" data-name="Cube face - right" class="cls-4" points="234.69 435.83 266.93 454.45 266.93 282.9 106.87 190.49 106.87 254.38"/><polygon id="Cube_face_-_top-2" data-name="Cube face - top" class="cls-4" points="266.93 282.9 593.43 94.4 433.37 1.99 106.87 190.49 266.93 282.9"/></g><g class="cls-2"><path class="cls-1" d="M1.68,335.56l2-1.17a1.63,1.63,0,0,1,1.65.16l4.15,2.33"/><path class="cls-1" d="M7.37,368.21l-4.08-2.44a5.08,5.08,0,0,1-2.3-4L1,337c0-1.46,1-2,2.31-1.29L9.11,339"/></g><path class="cls-1" d="M173.84,541.25,138.07,561.9a7.91,7.91,0,0,1-7.9,0l-122.93-71a7.91,7.91,0,0,1-3.95-6.85V404.61a5.44,5.44,0,0,1,1.28-3.52l2.11-2.52s3.2-71.46,3.2-71.58-1.12-.78-1.24-.93a1.08,1.08,0,0,1-.25-.82V309.35a9.27,9.27,0,0,1,4.63-8l82.37-47.55a10.29,10.29,0,0,1,10.32,0"/><path class="cls-1" d="M230.08,325.57a9.62,9.62,0,0,1,4.81,8.34v136.7"/><path class="cls-1" d="M204.54,310.83l25.54,14.74a9.49,9.49,0,0,1,2,1.52l-87.81,50.7a10,10,0,0,1-10,0l-125-72.15A9.2,9.2,0,0,1,13,301.32l82.37-47.55a10.29,10.29,0,0,1,10.32,0l1.14.66"/><path class="cls-1" d="M5,400.68,9.88,327l124.46,71.86a6.6,6.6,0,0,0,6.6,0l1.63-.94a1.75,1.75,0,0,1,2.63,1.52l-5.72,72.95a4.34,4.34,0,0,1-2.07,3.37l-1.09.66a4.33,4.33,0,0,1-4.41,0L7,404.34A4,4,0,0,1,5,400.68Z"/><path class="cls-1" d="M191.27,369.79a1.76,1.76,0,0,1,2.64,1.52v38.25a8.76,8.76,0,0,1-3.65,7.11l-39.59,27.48a1.29,1.29,0,0,1-2-1l3.53-48.94a3.14,3.14,0,0,1,1.56-2.72Z"/><path class="cls-1" d="M189.48,413.11a7.41,7.41,0,0,0,3.07-6V372.67a.4.4,0,0,0-.4-.4L154.39,394a1.8,1.8,0,0,0-.89,1.54l-2.92,44.38Z"/><path class="cls-1" d="M10.23,330.78l124.39,71.81a2.69,2.69,0,0,1,1.33,2.53l-4.33,58.07a2.89,2.89,0,0,1-4.33,2.28L7.13,396.1a3.19,3.19,0,0,1-1.59-3l4.14-62.05A.36.36,0,0,1,10.23,330.78Z"/><polygon class="cls-1" points="38.49 483.05 92 513.94 100.8 465.03 29.69 423.98 38.49 483.05"/><path class="cls-3" d="M94.11,502.23l-.54,3L36.93,472.54l-.55-3.64Zm-1,5.77L37.42,475.88l.55,3.64L92.53,511Zm4.16-23.09L33.27,448l.54,3.64,62.87,36.3Zm-61.88-23,.54,3.64,58.72,33.9.54-3ZM31.19,434l.54,3.64,67,38.7.54-3ZM34.31,455l.54,3.64,60.8,35.1.54-3Zm-4.16-27.89.54,3.64,69.11,39.9.54-3ZM32.23,441l.54,3.64,64.95,37.5.55-3Z"/><g id="Axonometric_Cylinder-3" data-name="Axonometric Cylinder"><line class="cls-1" x1="226.45" y1="477.52" x2="237.32" y2="483.92"/><line class="cls-1" x1="197.88" y1="551.39" x2="186.67" y2="544.91"/><path id="Cylinder_face-3" data-name="Cylinder face" class="cls-1" d="M190,533.6c0,17.62,12.37,24.77,27.63,16s27.63-30.24,27.63-47.86-12.37-24.76-27.63-15.95S190,516,190,533.6Z"/></g><g class="cls-2"><ellipse class="cls-1" cx="217.98" cy="518.17" rx="28.2" ry="16.33" transform="translate(-339.96 449.45) rotate(-60.16)"/><ellipse class="cls-1" cx="219.99" cy="519.33" rx="18.41" ry="10.66" transform="translate(-339.95 451.79) rotate(-60.16)"/><path class="cls-1" d="M217.69,538c9.36-5.19,17.08-18.26,17.25-29.2s-7.3-15.61-16.66-10.43c-5,2.75-9.47,7.71-12.63,13.4a34.57,34.57,0,0,0-4.62,15.8c0,.44,0,.88,0,1.3C201.48,538.86,208.7,543,217.69,538ZM207,527.53c0-.32,0-.66,0-1a28.67,28.67,0,0,1,13.24-22.41c7.19-4,12.91-.39,12.79,8s-6.06,18.43-13.24,22.41C212.87,538.35,207.32,535.21,207,527.53Z"/><path class="cls-1" d="M205.65,511.76l4.88,2.64A26.61,26.61,0,0,0,207,526.53c0,.34,0,.68,0,1l-5.94,1.33c0-.42,0-.86,0-1.3a34.57,34.57,0,0,1,4.62-15.8Z"/></g><polygon class="cls-1" points="251.33 475.97 241.76 470.41 221.82 465.28 231.4 470.85 251.33 475.97"/><polygon class="cls-1" points="231.4 470.85 221.82 465.28 193.63 481.56 203.21 487.12 231.4 470.85"/><polygon class="cls-1" points="183.34 515.23 173.76 509.67 173.85 541.26 183.43 546.82 183.34 515.23"/><polygon class="cls-1" points="203.21 487.12 193.63 481.56 173.76 509.67 183.34 515.23 203.21 487.12"/><polygon class="cls-1" points="203.21 487.12 183.34 515.23 183.43 546.82 186.63 544.97 186.55 514.91 204.55 490.04 230.08 475.3 248.13 479.35 248.21 509.42 251.42 507.56 251.33 475.97 231.4 470.85 203.21 487.12"/><path class="cls-1" d="M142.66,515a.44.44,0,0,1-.22-.39V476.4l5.34-84.62a.43.43,0,0,1,.22-.37l49.76-28.86a.47.47,0,0,1,.46,0,.46.46,0,0,1,.22.4V466.76a.47.47,0,0,1-.21.39l-6.41,4s-18.45,26.4-18.59,26.54S143.11,515,142.89,515.08A.46.46,0,0,1,142.66,515Z"/><polygon class="cls-1" points="143.36 525.49 169.99 510.12 169.99 538.46 143.36 553.83 143.36 525.49"/><polygon class="cls-1" points="169.99 510.12 169.99 538.46 162.33 534.04 162.33 514.54 169.99 510.12"/><polygon class="cls-1" points="162.33 534.04 169.99 538.46 143.36 553.83 143.36 544.99 162.33 534.04"/><path class="cls-1" d="M188.79,443.38l2.36-1.36a5.17,5.17,0,0,0,2.5-3.94V423.63c0-1.38-1.12-1.85-2.5-1.06l-2.36,1.37a5.17,5.17,0,0,0-2.5,3.94v14.45C186.29,443.71,187.41,444.18,188.79,443.38Z"/><path class="cls-1" d="M189.87,425.11V441c-1.12.65-2,.26-2-.86V428.33A4.23,4.23,0,0,1,189.87,425.11Z"/><polygon class="cls-5" points="5.67 449.45 30.95 465.86 34.31 487.07 95.17 522.22 99.3 505.21 126.58 519.15 100.49 507.75 96.4 524.92 32.6 488.08 29.49 466.77 5.67 449.45"/><path class="cls-1" d="M8.14,468.24,24.58,483.4c1.2,1.11,2.4.75,2.4-.71V471.92a4.19,4.19,0,0,0-1.62-3.09L8.93,456.67c-1.13-.83-2.14-.39-2.14.94v7.76A4.21,4.21,0,0,0,8.14,468.24Z"/><path class="cls-1" d="M8.93,456.67l-.79,11.57a4.21,4.21,0,0,1-1.35-2.87v-7.76C6.79,456.28,7.8,455.84,8.93,456.67Z"/><path class="cls-1" d="M121.4,533.64,105,529.81a3.9,3.9,0,0,1-2.4-3.48V515.56c0-1.09.69-1.62,1.62-1.23l16.43,6.83a4.06,4.06,0,0,1,2.14,3.39v7.76C122.75,533.28,122.2,533.82,121.4,533.64Z"/><path class="cls-1" d="M120.61,521.16l.79,12.48c.8.18,1.35-.36,1.35-1.33v-7.76A4.06,4.06,0,0,0,120.61,521.16Z"/><g class="cls-2"><polygon class="cls-1" points="204.38 300.31 116.12 249.15 77.11 271.68 165.37 322.83 204.38 300.31"/><polygon class="cls-1" points="165.37 322.83 77.11 271.68 62.8 293.87 151.06 345.03 165.37 322.83"/><polygon class="cls-1" points="165.37 322.83 151.06 345.03 204.42 314.22 204.38 300.31 165.37 322.83"/></g><path class="cls-6" d="M7,411.17l2.88,1.66v18.6L7,429.77Zm115.51,85.29,2.88,1.66v-18.6l-2.88-1.66Z"/></g><path class="cls-5" d="M361.78,312.66l-7.33.42-.24.49a41.53,41.53,0,0,1-4.1,7.05,15.89,15.89,0,0,1-4.5,3.85c-2.34,1.36-4.27,1.77-5.75,1.22s-2.22-1.85-2.48-3.92l23.89-13.95,0-2.21c0-5.3-1.47-8.65-4.38-10s-7-.49-12,2.44a34.58,34.58,0,0,0-12.07,11.76,28.72,28.72,0,0,0-4.52,15.06c0,5.12,1.57,8.39,4.66,9.7s7.25.43,12.35-2.55a40,40,0,0,0,4.94-3.41,35.23,35.23,0,0,0,4.28-4.19,40.58,40.58,0,0,0,3.7-5.09,54.7,54.7,0,0,0,3.26-6.13ZM338,314.51a14.58,14.58,0,0,1,.85-2.19,16.65,16.65,0,0,1,1.63-2.66,17.28,17.28,0,0,1,2.11-2.33,15.24,15.24,0,0,1,2.49-1.84c3.7-2.16,6.05-1.93,7.16.71Z"/><path class="cls-5" d="M376.82,292c-3.48.65-4.21,0-4.21-.7a3,3,0,0,1,.6-1.7,4.83,4.83,0,0,1,1.53-1.43,2.29,2.29,0,0,1,3.36.69l.21.29,7.27-7.86-.22-.3c-2.17-3-5.55-3.26-10-.64a24.41,24.41,0,0,0-7.79,7.35,16.19,16.19,0,0,0-3.16,9c0,2.18.63,3.62,1.88,4.29,1,.53,2.59.64,4.93.34.81-.1,1.62-.21,2.39-.33l2.33-.3c1.85-.06,2.79.47,2.79,1.57,0,2-1.1,3.54-3.48,4.93a4,4,0,0,1-3.08.68,5.34,5.34,0,0,1-2-1.58l-.21-.23-7.45,7.59.2.31c2.42,3.9,6.6,4.15,12.43.75a28.13,28.13,0,0,0,8.74-8.13c2.5-3.59,3.76-7,3.76-10.19,0-2.49-.77-4.06-2.28-4.66S381,291.21,376.82,292Z"/><polygon class="cls-5" points="405.87 263.37 400.21 266.68 400.21 257.03 391.99 261.82 391.99 271.47 386.92 274.44 386.92 282.16 391.99 279.2 391.99 303.91 400.21 299.11 400.21 274.4 405.87 271.1 405.87 263.37"/><path class="cls-5" d="M430,252.31c-2.79-.94-5.95-.4-9.39,1.61a30.92,30.92,0,0,0-11,11.27,28.86,28.86,0,0,0-4.35,14.66c0,4.91,1.46,8.2,4.35,9.8s6.68,1,11.15-1.63a30.16,30.16,0,0,0,9.2-9v2.73l8.25-4.82V244.49L430,249.3ZM428,273.7a17,17,0,0,1-6.18,6.24c-2.4,1.4-4.34,1.64-5.92.74s-2.31-2.83-2.31-5.72a17.72,17.72,0,0,1,8.3-14.33c2.53-1.48,4.53-1.78,6.11-.92s2.37,2.79,2.37,5.61A16.74,16.74,0,0,1,428,273.7Z"/><path class="cls-5" d="M457.41,232.39a26.15,26.15,0,0,0-8.13,7.93V238L441,242.83v32.43l8.24-4.81V254.78a22,22,0,0,1,1.41-8.82,11.21,11.21,0,0,1,4.75-5c2.05-1.19,3.46-1.48,4.21-.84s1.21,2.47,1.21,5.46v18.06l8.24-4.82V239.1c0-4.54-.93-7.33-2.77-8.3C464.2,229.64,461.2,230.18,457.41,232.39Z"/><polygon class="cls-5" points="500.86 207.89 489.74 214.38 480.15 229.51 480.15 210.34 471.94 215.13 471.94 257.21 480.15 252.42 480.15 240.01 480.81 238.98 491.03 246.06 501.68 239.84 486.66 229.92 500.86 207.89"/><path class="cls-5" d="M521.67,195.73v3c-2.79-.94-5.95-.4-9.39,1.61a30.92,30.92,0,0,0-11,11.27A28.88,28.88,0,0,0,497,226.28c0,4.91,1.46,8.2,4.35,9.8s6.68,1,11.15-1.63a30.16,30.16,0,0,0,9.2-9v2.73l8.25-4.82V190.92Zm-8.1,30.64c-2.4,1.4-4.34,1.64-5.92.74s-2.31-2.83-2.31-5.72a17.72,17.72,0,0,1,8.3-14.33c2.53-1.48,4.53-1.78,6.11-.92s2.37,2.79,2.37,5.61a16.61,16.61,0,0,1-2.37,8.38A17,17,0,0,1,513.57,226.37Z"/><path class="cls-5" d="M364.1,329.46l1.37-.8,2,4.59-1.32.77-.38-1-2.13,1.24-.39,1.42-1.27.74ZM364,333.1l1.48-.86-.73-1.85Z"/><path class="cls-5" d="M372.77,324.54a.8.8,0,0,1,.54.09.82.82,0,0,1,.29.32,1.17,1.17,0,0,1,.11.54,2.56,2.56,0,0,1-.21.94,2.77,2.77,0,0,1-.69,1,.55.55,0,0,1,.57.13,1.33,1.33,0,0,1,.17.8v.39a2.72,2.72,0,0,0,0,.52c0,.13.1.2.22.2v.15l-1.33.78a1.5,1.5,0,0,1-.08-.27,2.26,2.26,0,0,1-.05-.47v-.53c0-.37-.07-.57-.19-.63s-.36,0-.69.22l-1.18.69v2.27l-1.19.69v-5.79l2.77-1.61A2.85,2.85,0,0,1,372.77,324.54Zm-2.5,2.32v1.55l1.3-.76a2.48,2.48,0,0,0,.58-.43,1.19,1.19,0,0,0,.34-.85c0-.35-.11-.53-.33-.52a1.47,1.47,0,0,0-.56.23Z"/><path class="cls-5" d="M380.82,323.79a5,5,0,0,1-.45,1.09l.66.24-.63,1-.7-.25a5.59,5.59,0,0,1-.55.59,5.32,5.32,0,0,1-.93.68,2.32,2.32,0,0,1-1.87.41q-.9-.29-.9-1.86a5.14,5.14,0,0,1,.92-2.94,5.78,5.78,0,0,1,1.87-1.75,2.32,2.32,0,0,1,1.88-.4c.59.2.88.79.88,1.76A5.13,5.13,0,0,1,380.82,323.79Zm-2.2,2.06.27-.26-.58-.21.62-1,.59.21a5.55,5.55,0,0,0,.19-.6,3.39,3.39,0,0,0,.08-.8,1.57,1.57,0,0,0-.39-1.27q-.4-.3-1.17.15a3.11,3.11,0,0,0-1.15,1.18,3.63,3.63,0,0,0-.42,1.78c0,.79.2,1.24.61,1.34a1.26,1.26,0,0,0,1-.22A2.63,2.63,0,0,0,378.62,325.85Z"/><path class="cls-5" d="M382.73,318.57l1.23-.72v3.56a1.52,1.52,0,0,0,.14.79c.15.24.47.21,1-.07a2,2,0,0,0,.95-1,2.78,2.78,0,0,0,.14-1v-3.55l1.23-.72v3.56a4.12,4.12,0,0,1-.29,1.6,4.54,4.54,0,0,1-2,2.13c-1,.59-1.68.67-2,.25a2.06,2.06,0,0,1-.29-1.27Z"/><path class="cls-5" d="M390.45,319.85l-1.2.71v-5.79l1.2-.71Z"/><path class="cls-5" d="M396.59,310.48v1l-1.73,1v4.77l-1.22.71v-4.76l-1.74,1v-1Z"/><path class="cls-5" d="M402.38,308.12l-3.06,1.79v1.23l2.81-1.64v1l-2.81,1.64v1.49l3.21-1.87v1l-4.39,2.56v-5.79l4.24-2.48Z"/><path class="cls-5" d="M404.83,306.27a5.05,5.05,0,0,1,1.78-1.75c1-.56,1.66-.66,2.11-.28a1.17,1.17,0,0,1,.4.85l-1.21.71a.84.84,0,0,0-.3-.46c-.22-.12-.53-.06-1,.18a2.68,2.68,0,0,0-1,1.13,3.83,3.83,0,0,0-.37,1.73q0,1,.39,1.23a.94.94,0,0,0,1-.1,2.52,2.52,0,0,0,1-1,3.48,3.48,0,0,0,.3-.85l1.2-.7a4.8,4.8,0,0,1-.79,2,4.86,4.86,0,0,1-1.64,1.55c-.82.48-1.47.59-1.94.33s-.71-.85-.71-1.79A5.19,5.19,0,0,1,404.83,306.27Z"/><path class="cls-5" d="M415.09,299.67v1l-1.73,1v4.76l-1.22.71v-4.76l-1.74,1v-1Z"/><path class="cls-5" d="M416.6,298.79l1.23-.72v3.56a1.52,1.52,0,0,0,.14.79c.15.23.47.21,1-.08a2,2,0,0,0,.95-1,2.72,2.72,0,0,0,.14-.95v-3.56l1.23-.71v3.55a4,4,0,0,1-.29,1.61,4.59,4.59,0,0,1-2,2.13c-1,.58-1.68.67-2,.25a2.08,2.08,0,0,1-.29-1.27Z"/><path class="cls-5" d="M426.93,292.91a.75.75,0,0,1,.54.09.79.79,0,0,1,.29.31,1.22,1.22,0,0,1,.11.55,2.51,2.51,0,0,1-.21.93,2.72,2.72,0,0,1-.69,1,.57.57,0,0,1,.57.12,1.39,1.39,0,0,1,.17.81v.39a2.79,2.79,0,0,0,0,.52.22.22,0,0,0,.22.2v.14l-1.33.78a2.38,2.38,0,0,1-.08-.26,2.26,2.26,0,0,1-.05-.47v-.53c0-.37-.07-.58-.19-.63s-.35,0-.69.22l-1.18.69V300l-1.18.69v-5.79l2.77-1.62A3,3,0,0,1,426.93,292.91Zm-2.5,2.32v1.55l1.3-.76a2.8,2.8,0,0,0,.58-.43,1.22,1.22,0,0,0,.34-.86c0-.35-.1-.52-.33-.51a1.32,1.32,0,0,0-.56.23Z"/><path class="cls-5" d="M431.49,290.1l1.37-.8,2,4.59-1.31.77-.38-1-2.13,1.24-.39,1.42-1.27.74Zm-.08,3.65,1.48-.87-.73-1.85Z"/><path class="cls-5" d="M442.58,283.74a1.07,1.07,0,0,1,1,.16,1.27,1.27,0,0,1,.41.69,3.41,3.41,0,0,1,.11.9,5.57,5.57,0,0,1-.46,2.23,4.66,4.66,0,0,1-1.94,2.21l-2.5,1.46V285.6l2.5-1.46A4,4,0,0,1,442.58,283.74Zm-2.22,2.18v3.78l1.12-.66a2.65,2.65,0,0,0,1.2-1.54,4,4,0,0,0,.18-1.21,1.92,1.92,0,0,0-.27-1.2c-.19-.2-.56-.15-1.11.17Z"/><path class="cls-5" d="M450.09,280.26,447,282.05v1.23l2.81-1.64v1L447,284.28v1.49l3.21-1.87v1l-4.39,2.56v-5.79l4.25-2.48Z"/><path class="cls-5" d="M456.37,275.56l1.37-.8,2.05,4.6-1.31.76-.38-1L456,280.4l-.4,1.42-1.26.74Zm-.07,3.65,1.48-.87-.73-1.85Z"/><path class="cls-5" d="M461.33,272.67l1.21-.71v4.75l2.89-1.69v1l-4.1,2.4Z"/><path class="cls-5" d="M467.05,269.33l1.23-.72v3.55a1.52,1.52,0,0,0,.14.79c.15.24.46.22,1-.07a2,2,0,0,0,.95-1,2.76,2.76,0,0,0,.14-.95v-3.56l1.23-.72v3.56a4.17,4.17,0,0,1-.29,1.61,4.64,4.64,0,0,1-2,2.13c-1,.58-1.69.66-2,.25a2.11,2.11,0,0,1-.29-1.28Z"/><path class="cls-5" d="M477.5,263.22l1.75-1V268l-1.13.66v-4.39c0-.2,0-.36,0-.47l-1.1,5.5-1.18.68-1.09-4.22c0,.11,0,.27,0,.47v4.39l-1.13.65v-5.79l1.77-1,1,3.93Z"/><path class="cls-5" d="M482.27,266.22l-1.2.71v-5.79l1.2-.7Z"/><path class="cls-5" d="M484.19,259.32l1.27-.74,2.3,2.69v-4l1.12-.66v5.79l-1.21.71-2.35-2.73v4.11l-1.13.66Z"/><path class="cls-5" d="M491.93,260.59l-1.21.7V255.5l1.21-.7Z"/><path class="cls-5" d="M498.32,256.34a5.36,5.36,0,0,1-1.9,1.78c-.82.49-1.46.63-1.89.43-.59-.21-.88-.83-.88-1.87a5.06,5.06,0,0,1,.88-2.9,5.35,5.35,0,0,1,1.89-1.79,2.25,2.25,0,0,1,1.9-.43c.58.19.88.82.88,1.88A5.25,5.25,0,0,1,498.32,256.34Zm-.76-.44a3.52,3.52,0,0,0,.43-1.75c0-.65-.14-1.07-.43-1.26s-.66-.15-1.14.13a3,3,0,0,0-1.14,1.2,3.56,3.56,0,0,0-.43,1.76c0,.65.14,1.07.43,1.26a1.07,1.07,0,0,0,1.14-.14A3,3,0,0,0,497.56,255.9Z"/></g></g></svg>