<?xml version="1.0" encoding="utf-8"?>
<!-- Generator: Adobe Illustrator 24.1.1, SVG Export Plug-In . SVG Version: 6.00 Build 0)  -->
<svg version="1.1" id="Capa_1" xmlns="http://www.w3.org/2000/svg" xmlns:xlink="http://www.w3.org/1999/xlink" x="0px" y="0px"
	 viewBox="0 0 1352.4 154.9" style="enable-background:new 0 0 1352.4 154.9;" xml:space="preserve">
<style type="text/css">
	.st0{fill:#000A5F;}
</style>
<g>
	<g id="Capa_2_1_">
		<g id="Capa_1-2">
			<g>
				<path class="st0" d="M69.5,36.4v114.4H31.3V36.4H0V4.1h100.8v32.3H69.5z"/>
				<path class="st0" d="M239.8,150.8h-47.5l-36.4-56.4v56.4h-38.2V4.1h59.4c7.3-0.2,14.6,1.1,21.4,3.6c5.7,2.1,10.8,5.5,15.1,9.8
					c3.9,4.1,7,9,8.9,14.4c2,5.6,3,11.5,3,17.5c0,11.2-2.7,20.2-8.1,27.2c-5.4,6.9-13.3,11.6-23.8,14.1L239.8,150.8z M155.9,69.7
					h7.2c7.5,0,13.3-1.6,17.3-4.7c4-3.1,6-7.6,6-13.4c0-5.8-2-10.3-6-13.4c-4-3.1-9.8-4.7-17.3-4.7h-7.2V69.7z"/>
				<path class="st0" d="M345.6,125.3h-54.5l-8.8,25.5h-40.7L297.6,4.1h41.6l55.9,146.7h-40.7L345.6,125.3z M335.5,96.3l-17.1-48.8
					l-17.1,48.8L335.5,96.3z"/>
				<path class="st0" d="M411.8,150.8V4.1H450l70.4,89.7V4.1h38v146.7h-38L450,61.1v89.7H411.8z"/>
				<path class="st0" d="M669.7,41.7c-3.7-3.1-7.9-5.7-12.5-7.5c-3.8-1.6-7.9-2.4-12.1-2.4c-4.9,0-9,1.2-12.1,3.5
					c-3,2.1-4.7,5.5-4.7,9.1c-0.1,2.4,0.8,4.7,2.3,6.4c1.8,1.8,3.8,3.3,6.1,4.4c2.8,1.3,5.6,2.4,8.6,3.2c3.2,0.9,6.3,1.9,9.4,2.9
					c12.5,4.2,21.6,9.7,27.3,16.6c5.8,6.9,8.7,16,8.7,27.2c0.1,7-1.2,13.9-3.8,20.4c-2.5,6-6.3,11.4-11.1,15.7
					c-5.2,4.6-11.3,8-17.9,10.1c-7.7,2.5-15.9,3.7-24,3.6c-18.6,0-35.8-5.5-51.6-16.6l16.3-30.8c5,4.6,10.7,8.4,16.9,11.3
					c5.2,2.4,10.8,3.6,16.5,3.7c6.2,0,10.9-1.4,13.9-4.3c2.9-2.4,4.5-6,4.6-9.7c0-2-0.3-3.9-1.2-5.7c-0.9-1.8-2.3-3.3-3.9-4.5
					c-2.2-1.6-4.6-2.8-7.1-3.8c-2.9-1.2-6.5-2.5-10.6-3.9c-4.9-1.6-9.8-3.3-14.5-5.2c-4.6-1.8-8.9-4.3-12.7-7.5
					c-3.8-3.2-6.9-7.2-9-11.8c-2.3-4.7-3.4-10.7-3.4-18c-0.1-6.8,1.1-13.5,3.6-19.8c2.3-5.7,5.7-10.9,10.1-15.2
					c4.6-4.4,10-7.7,16-9.8c6.8-2.4,13.9-3.6,21.1-3.5c7.7,0.1,15.3,1.1,22.8,3c7.9,2,15.6,5,22.8,8.9L669.7,41.7z"/>
				<path class="st0" d="M753,150.8h-38.2V4.1h60.7c16.5,0,29.1,4.3,37.8,12.8c8.8,8.6,13.1,20.6,13.1,36.2
					c0,15.6-4.4,27.6-13.1,36.2c-8.8,8.6-21.4,12.8-37.8,12.8H753V150.8z M753,71.4h12.7c14,0,21-6.1,21-18.3c0-12.2-7-18.3-21-18.3
					H753V71.4z"/>
				<path class="st0" d="M840.2,77.5c-0.4-31.6,18.9-60.1,48.4-71.5C909.6-2,932.9-2,954,5.9c9.6,3.7,18.4,9.3,25.8,16.4
					c7.2,7,12.9,15.4,16.8,24.6c4.1,9.6,6.1,20,6,30.5c0.1,10.5-1.9,20.8-6,30.5c-3.9,9.2-9.6,17.6-16.8,24.6
					c-7.4,7.2-16.2,12.8-25.8,16.5c-21.1,7.9-44.4,7.9-65.5,0C859.1,137.5,839.8,109.1,840.2,77.5L840.2,77.5z M880.1,77.5
					c-0.1,5.6,1.1,11.1,3.3,16.2c4.3,9.7,12.2,17.4,22.1,21.3c10.2,4,21.5,4,31.7,0c4.9-2,9.4-4.8,13.2-8.5c3.8-3.6,6.9-8,9-12.8
					c2.2-5.1,3.4-10.6,3.3-16.2c0.1-5.6-1.1-11.1-3.3-16.2c-2.1-4.8-5.2-9.2-9-12.8c-12.1-11.3-29.6-14.5-45-8.5
					c-9.9,3.9-17.8,11.6-22.1,21.3C881.1,66.4,880,71.9,880.1,77.5L880.1,77.5z"/>
				<path class="st0" d="M1148.8,150.8h-47.5l-36.4-56.4v56.4h-38.1V4.1h59.4c7.3-0.2,14.6,1.1,21.4,3.6c11.2,4.1,20,13,24,24.2
					c2,5.6,3,11.5,3,17.5c0,11.2-2.7,20.2-8.1,27.2c-5.4,6.9-13.3,11.6-23.8,14.1L1148.8,150.8z M1064.9,69.7h7.2
					c7.5,0,13.3-1.6,17.3-4.7c4-3.1,6-7.6,6-13.4c0-5.8-2-10.3-6-13.4s-9.8-4.7-17.3-4.7h-7.2V69.7z"/>
				<path class="st0" d="M1220.6,36.4v114.4h-38.1V36.4h-31.3V4.1H1252v32.3H1220.6z"/>
				<path class="st0" d="M1352.4,36.4H1307v24.5h42.8v32.3H1307v25.3h45.3v32.3h-83.5V4.1h83.5L1352.4,36.4z"/>
			</g>
		</g>
	</g>
</g>
</svg>
