<?xml version="1.0" encoding="utf-8"?>
<!-- Generator: Adobe Illustrator 24.1.1, SVG Export Plug-In . SVG Version: 6.00 Build 0)  -->
<svg version="1.1" id="Capa_1" xmlns="http://www.w3.org/2000/svg" xmlns:xlink="http://www.w3.org/1999/xlink" x="0px" y="0px"
	 viewBox="0 0 112.7 158.1" style="enable-background:new 0 0 112.7 158.1;" xml:space="preserve">
<style type="text/css">
	.st0{fill:#00329C;}
	.st1{fill:none;stroke:#4AA1C8;stroke-width:1.989;stroke-linecap:round;stroke-linejoin:round;stroke-miterlimit:10;}
	.st2{enable-background:new    ;}
	.st3{opacity:0.3;fill:none;stroke:#4AA1C8;stroke-width:1.989;stroke-linecap:round;stroke-linejoin:round;stroke-miterlimit:10;}
	.st4{fill:none;stroke:#4AA1C8;stroke-width:3.9779;stroke-linecap:round;stroke-linejoin:round;stroke-miterlimit:10;}
	.st5{fill:#4AA1C8;}
	.st6{opacity:0.8;fill:none;stroke:#4AA1C8;stroke-width:1.989;stroke-linecap:round;stroke-linejoin:round;stroke-miterlimit:10;}
	.st7{fill:none;}
	.st8{fill:#EBEBEB;}
	.st9{fill:#FFFFFF;}
	.st10{fill:#010101;}
	.st11{fill-rule:evenodd;clip-rule:evenodd;}
	.st12{fill:#E6E6E6;}
	.st13{fill:none;stroke:#00329C;stroke-width:2.8993;stroke-miterlimit:10;}
	.st14{clip-path:url(#SVGID_2_);}
	.st15{fill:none;stroke:#00329C;stroke-width:1.9328;stroke-miterlimit:10;}
	.st16{fill:none;stroke:#00329C;stroke-width:1.4828;stroke-linecap:round;stroke-linejoin:round;stroke-miterlimit:10;}
	
		.st17{fill:none;stroke:#00329C;stroke-width:1.4828;stroke-linecap:round;stroke-linejoin:round;stroke-miterlimit:10;stroke-dasharray:5.1898;}
	
		.st18{fill:none;stroke:#00329C;stroke-width:1.4828;stroke-linecap:round;stroke-linejoin:round;stroke-miterlimit:10;stroke-dasharray:2.2242;}
	.st19{clip-path:url(#SVGID_4_);}
	.st20{clip-path:url(#SVGID_10_);}
	.st21{fill:none;stroke:#00329C;stroke-width:2.1843;stroke-miterlimit:10;}
	.st22{fill-rule:evenodd;clip-rule:evenodd;fill:#00329C;}
	.st23{fill:none;stroke:#FFFFFF;stroke-width:6.5701;stroke-miterlimit:10;}
	.st24{fill:none;stroke:#00329C;stroke-width:3;stroke-miterlimit:10;}
	.st25{fill:none;stroke:#00329C;stroke-width:2.7499;stroke-miterlimit:10;}
	.st26{clip-path:url(#SVGID_12_);}
	.st27{fill:#969695;}
	.st28{fill:url(#SVGID_13_);}
	.st29{fill:url(#SVGID_14_);}
	.st30{fill:#AAFFEF;}
	.st31{fill:#45DED4;}
	.st32{fill:#73F9E0;}
	.st33{fill:url(#SVGID_15_);}
	.st34{fill:url(#SVGID_16_);}
	.st35{fill:url(#SVGID_17_);}
	.st36{fill:url(#SVGID_18_);}
	.st37{fill:#BFBFBF;}
	.st38{fill:url(#SVGID_19_);}
	.st39{fill:url(#SVGID_20_);}
	.st40{fill:url(#SVGID_21_);}
	.st41{fill:url(#SVGID_22_);}
	.st42{fill:url(#SVGID_23_);}
	.st43{fill:url(#SVGID_24_);}
	.st44{clip-path:url(#SVGID_26_);}
	.st45{clip-path:url(#SVGID_28_);}
	.st46{clip-path:url(#SVGID_34_);}
	.st47{fill:none;stroke:#00329C;stroke-width:3.1316;stroke-miterlimit:10;}
</style>
<g>
	<g>
		
			<rect x="20.7" y="19.4" transform="matrix(0.9491 0.3148 -0.3148 0.9491 28.0695 -2.9703)" class="st9" width="5.1" height="132.1"/>
		<polygon class="st12" points="99.9,2.7 95,1 41.6,21.9 46.5,23.5 		"/>
		<linearGradient id="SVGID_2_" gradientUnits="userSpaceOnUse" x1="4.88" y1="75.7718" x2="99.8786" y2="75.7718">
			<stop  offset="0" style="stop-color:#FFFFFF"/>
			<stop  offset="1" style="stop-color:#BFBFBF"/>
		</linearGradient>
		<polygon style="fill:url(#SVGID_2_);" points="4.9,148.9 58.3,128 99.9,2.7 46.5,23.5 		"/>
	</g>
	<g>
		<g>
			<path class="st32" d="M18.6,142.8c1.9-0.8,3,0.3,2.3,2.5c-0.7,2.2-2.8,4.6-4.7,5.3c-1.9,0.8-3-0.3-2.3-2.5
				C14.5,146,16.7,143.6,18.6,142.8z"/>
			<path class="st32" d="M22.3,131c1.9-0.8,3,0.3,2.3,2.5c-0.7,2.2-2.8,4.6-4.7,5.3c-1.9,0.8-3-0.3-2.3-2.5
				C18.3,134.2,20.4,131.8,22.3,131z"/>
			<path class="st32" d="M26,119.2c1.9-0.8,3,0.3,2.3,2.5s-2.8,4.6-4.7,5.3c-1.9,0.8-3-0.3-2.3-2.5C22,122.4,24.1,120,26,119.2z"/>
			<path class="st32" d="M29.7,107.4c1.9-0.8,3,0.3,2.3,2.5c-0.7,2.2-2.8,4.6-4.7,5.3c-1.9,0.8-3-0.3-2.3-2.5
				C25.7,110.6,27.8,108.2,29.7,107.4z"/>
			<path class="st32" d="M33.4,95.6c1.9-0.8,3,0.3,2.3,2.5c-0.7,2.2-2.8,4.6-4.7,5.3c-1.9,0.8-3-0.3-2.3-2.5
				C29.4,98.8,31.5,96.4,33.4,95.6z"/>
			<path class="st32" d="M37.1,83.8c1.9-0.8,3,0.3,2.3,2.5c-0.7,2.2-2.8,4.6-4.7,5.3c-1.9,0.8-3-0.3-2.3-2.5
				C33.1,87,35.2,84.6,37.1,83.8z"/>
			<path class="st32" d="M40.8,72c1.9-0.8,3,0.3,2.3,2.5c-0.7,2.2-2.8,4.6-4.7,5.3c-1.9,0.8-3-0.3-2.3-2.5
				C36.8,75.2,38.9,72.8,40.8,72z"/>
			<path class="st32" d="M44.5,60.2c1.9-0.8,3,0.3,2.3,2.5c-0.7,2.2-2.8,4.6-4.7,5.3c-1.9,0.8-3-0.3-2.3-2.5
				C40.5,63.3,42.6,61,44.5,60.2z"/>
			<path class="st32" d="M48.3,48.4c1.9-0.8,3,0.3,2.3,2.5c-0.7,2.2-2.8,4.6-4.7,5.3c-1.9,0.8-3-0.3-2.3-2.5S46.3,49.1,48.3,48.4z"
				/>
		</g>
		<g>
			<path class="st32" d="M28.9,138.7c1.9-0.8,3,0.3,2.3,2.5c-0.7,2.2-2.8,4.6-4.7,5.3c-1.9,0.8-3-0.3-2.3-2.5
				C24.9,141.9,27,139.5,28.9,138.7z"/>
			<path class="st32" d="M32.6,126.9c1.9-0.8,3,0.3,2.3,2.5c-0.7,2.2-2.8,4.6-4.7,5.3c-1.9,0.8-3-0.3-2.3-2.5
				C28.6,130,30.7,127.7,32.6,126.9z"/>
			<path class="st32" d="M36.4,115.1c1.9-0.8,3,0.3,2.3,2.5c-0.7,2.2-2.8,4.6-4.7,5.3c-1.9,0.8-3-0.3-2.3-2.5
				C32.3,118.2,34.4,115.8,36.4,115.1z"/>
			<path class="st32" d="M40.1,103.3c1.9-0.8,3,0.3,2.3,2.5s-2.8,4.6-4.7,5.3c-1.9,0.8-3-0.3-2.3-2.5C36,106.4,38.1,104,40.1,103.3z
				"/>
			<path class="st32" d="M43.8,91.4c1.9-0.8,3,0.3,2.3,2.5c-0.7,2.2-2.8,4.6-4.7,5.3c-1.9,0.8-3-0.3-2.3-2.5
				C39.7,94.6,41.8,92.2,43.8,91.4z"/>
			<path class="st32" d="M47.5,79.6c1.9-0.8,3,0.3,2.3,2.5c-0.7,2.2-2.8,4.6-4.7,5.3c-1.9,0.8-3-0.3-2.3-2.5
				C43.4,82.8,45.5,80.4,47.5,79.6z"/>
			<path class="st32" d="M51.2,67.8c1.9-0.8,3,0.3,2.3,2.5c-0.7,2.2-2.8,4.6-4.7,5.3c-1.9,0.8-3-0.3-2.3-2.5
				C47.1,71,49.2,68.6,51.2,67.8z"/>
			<path class="st32" d="M54.9,56c1.9-0.8,3,0.3,2.3,2.5c-0.7,2.2-2.8,4.6-4.7,5.3c-1.9,0.8-3-0.3-2.3-2.5
				C50.8,59.2,52.9,56.8,54.9,56z"/>
			<path class="st32" d="M58.6,44.2c1.9-0.8,3,0.3,2.3,2.5c-0.7,2.2-2.8,4.6-4.7,5.3c-1.9,0.8-3-0.3-2.3-2.5
				C54.5,47.4,56.6,45,58.6,44.2z"/>
		</g>
		<g>
			<path class="st32" d="M39.3,134.5c1.9-0.8,3,0.3,2.3,2.5c-0.7,2.2-2.8,4.6-4.7,5.3c-1.9,0.8-3-0.3-2.3-2.5
				C35.2,137.7,37.3,135.3,39.3,134.5z"/>
			<path class="st32" d="M43,122.7c1.9-0.8,3,0.3,2.3,2.5c-0.7,2.2-2.8,4.6-4.7,5.3c-1.9,0.8-3-0.3-2.3-2.5
				C38.9,125.9,41,123.5,43,122.7z"/>
			<path class="st32" d="M46.7,110.9c1.9-0.8,3,0.3,2.3,2.5c-0.7,2.2-2.8,4.6-4.7,5.3c-1.9,0.8-3-0.3-2.3-2.5
				C42.6,114.1,44.7,111.7,46.7,110.9z"/>
			<path class="st32" d="M50.4,99.1c1.9-0.8,3,0.3,2.3,2.5c-0.7,2.2-2.8,4.6-4.7,5.3c-1.9,0.8-3-0.3-2.3-2.5
				C46.3,102.3,48.4,99.9,50.4,99.1z"/>
			<path class="st32" d="M54.1,87.3c1.9-0.8,3,0.3,2.3,2.5c-0.7,2.2-2.8,4.6-4.7,5.3c-1.9,0.8-3-0.3-2.3-2.5
				C50,90.5,52.1,88.1,54.1,87.3z"/>
			<path class="st32" d="M57.8,75.5c1.9-0.8,3,0.3,2.3,2.5c-0.7,2.2-2.8,4.6-4.7,5.3c-1.9,0.8-3-0.3-2.3-2.5
				C53.7,78.7,55.9,76.3,57.8,75.5z"/>
			<path class="st32" d="M61.5,63.7c1.9-0.8,3,0.3,2.3,2.5c-0.7,2.2-2.8,4.6-4.7,5.3c-1.9,0.8-3-0.3-2.3-2.5
				C57.4,66.9,59.6,64.5,61.5,63.7z"/>
			<path class="st32" d="M65.2,51.9c1.9-0.8,3,0.3,2.3,2.5c-0.7,2.2-2.8,4.6-4.7,5.3c-1.9,0.8-3-0.3-2.3-2.5
				C61.1,55,63.3,52.7,65.2,51.9z"/>
			<path class="st32" d="M68.9,40.1c1.9-0.8,3,0.3,2.3,2.5c-0.7,2.2-2.8,4.6-4.7,5.3c-1.9,0.8-3-0.3-2.3-2.5
				C64.8,43.2,67,40.8,68.9,40.1z"/>
		</g>
		<g>
			<path class="st32" d="M49.6,130.4c1.9-0.8,3,0.3,2.3,2.5c-0.7,2.2-2.8,4.6-4.7,5.3c-1.9,0.8-3-0.3-2.3-2.5
				C45.5,133.6,47.7,131.2,49.6,130.4z"/>
			<path class="st32" d="M53.3,118.6c1.9-0.8,3,0.3,2.3,2.5c-0.7,2.2-2.8,4.6-4.7,5.3c-1.9,0.8-3-0.3-2.3-2.5
				C49.2,121.7,51.4,119.4,53.3,118.6z"/>
			<path class="st32" d="M57,106.8c1.9-0.8,3,0.3,2.3,2.5c-0.7,2.2-2.8,4.6-4.7,5.3c-1.9,0.8-3-0.3-2.3-2.5
				C52.9,109.9,55.1,107.5,57,106.8z"/>
			<path class="st32" d="M60.7,95c1.9-0.8,3,0.3,2.3,2.5c-0.7,2.2-2.8,4.6-4.7,5.3c-1.9,0.8-3-0.3-2.3-2.5
				C56.6,98.1,58.8,95.7,60.7,95z"/>
			<path class="st32" d="M64.4,83.2c1.9-0.8,3,0.3,2.3,2.5C66,87.8,63.9,90.2,62,91c-1.9,0.8-3-0.3-2.3-2.5
				C60.3,86.3,62.5,83.9,64.4,83.2z"/>
			<path class="st32" d="M68.1,71.3c1.9-0.8,3,0.3,2.3,2.5c-0.7,2.2-2.8,4.6-4.7,5.3c-1.9,0.8-3-0.3-2.3-2.5
				C64.1,74.5,66.2,72.1,68.1,71.3z"/>
			<path class="st32" d="M71.8,59.5c1.9-0.8,3,0.3,2.3,2.5c-0.7,2.2-2.8,4.6-4.7,5.3c-1.9,0.8-3-0.3-2.3-2.5
				C67.8,62.7,69.9,60.3,71.8,59.5z"/>
			<path class="st32" d="M75.5,47.7c1.9-0.8,3,0.3,2.3,2.5c-0.7,2.2-2.8,4.6-4.7,5.3c-1.9,0.8-3-0.3-2.3-2.5
				C71.5,50.9,73.6,48.5,75.5,47.7z"/>
			<path class="st32" d="M79.2,35.9c1.9-0.8,3,0.3,2.3,2.5c-0.7,2.2-2.8,4.6-4.7,5.3c-1.9,0.8-3-0.3-2.3-2.5
				C75.2,39.1,77.3,36.7,79.2,35.9z"/>
		</g>
		<g>
			<path class="st32" d="M59.9,126.2c1.9-0.8,3,0.3,2.3,2.5c-0.7,2.2-2.8,4.6-4.7,5.3c-1.9,0.8-3-0.3-2.3-2.5
				C55.9,129.4,58,127,59.9,126.2z"/>
			<path class="st32" d="M63.6,114.4c1.9-0.8,3,0.3,2.3,2.5c-0.7,2.2-2.8,4.6-4.7,5.3c-1.9,0.8-3-0.3-2.3-2.5
				C59.6,117.6,61.7,115.2,63.6,114.4z"/>
			<path class="st32" d="M67.3,102.6c1.9-0.8,3,0.3,2.3,2.5c-0.7,2.2-2.8,4.6-4.7,5.3c-1.9,0.8-3-0.3-2.3-2.5
				C63.3,105.8,65.4,103.4,67.3,102.6z"/>
			<path class="st32" d="M71,90.8c1.9-0.8,3,0.3,2.3,2.5c-0.7,2.2-2.8,4.6-4.7,5.3c-1.9,0.8-3-0.3-2.3-2.5C67,94,69.1,91.6,71,90.8z
				"/>
			<path class="st32" d="M74.7,79c1.9-0.8,3,0.3,2.3,2.5c-0.7,2.2-2.8,4.6-4.7,5.3c-1.9,0.8-3-0.3-2.3-2.5
				C70.7,82.2,72.8,79.8,74.7,79z"/>
			<path class="st32" d="M78.4,67.2c1.9-0.8,3,0.3,2.3,2.5c-0.7,2.2-2.8,4.6-4.7,5.3c-1.9,0.8-3-0.3-2.3-2.5
				C74.4,70.4,76.5,68,78.4,67.2z"/>
			<path class="st32" d="M82.2,55.4c1.9-0.8,3,0.3,2.3,2.5c-0.7,2.2-2.8,4.6-4.7,5.3c-1.9,0.8-3-0.3-2.3-2.5
				C78.1,58.6,80.2,56.2,82.2,55.4z"/>
			<path class="st32" d="M85.9,43.6c1.9-0.8,3,0.3,2.3,2.5c-0.7,2.2-2.8,4.6-4.7,5.3c-1.9,0.8-3-0.3-2.3-2.5
				C81.8,46.7,83.9,44.4,85.9,43.6z"/>
			<path class="st32" d="M89.6,31.8c1.9-0.8,3,0.3,2.3,2.5c-0.7,2.2-2.8,4.6-4.7,5.3c-1.9,0.8-3-0.3-2.3-2.5
				C85.5,34.9,87.6,32.5,89.6,31.8z"/>
		</g>
		<g>
			<path class="st32" d="M70.3,122.1c1.9-0.8,3,0.3,2.3,2.5c-0.7,2.2-2.8,4.6-4.7,5.3c-1.9,0.8-3-0.3-2.3-2.5
				C66.2,125.3,68.3,122.9,70.3,122.1z"/>
			<path class="st32" d="M74,110.3c1.9-0.8,3,0.3,2.3,2.5c-0.7,2.2-2.8,4.6-4.7,5.3c-1.9,0.8-3-0.3-2.3-2.5
				C69.9,113.4,72,111.1,74,110.3z"/>
			<path class="st32" d="M77.7,98.5c1.9-0.8,3,0.3,2.3,2.5c-0.7,2.2-2.8,4.6-4.7,5.3c-1.9,0.8-3-0.3-2.3-2.5
				C73.6,101.6,75.7,99.2,77.7,98.5z"/>
			<path class="st32" d="M81.4,86.7c1.9-0.8,3,0.3,2.3,2.5c-0.7,2.2-2.8,4.6-4.7,5.3c-1.9,0.8-3-0.3-2.3-2.5
				C77.3,89.8,79.4,87.4,81.4,86.7z"/>
			<path class="st32" d="M85.1,74.9c1.9-0.8,3,0.3,2.3,2.5c-0.7,2.2-2.8,4.6-4.7,5.3c-1.9,0.8-3-0.3-2.3-2.5
				C81,78,83.1,75.6,85.1,74.9z"/>
			<path class="st32" d="M88.8,63c1.9-0.8,3,0.3,2.3,2.5c-0.7,2.2-2.8,4.6-4.7,5.3c-1.9,0.8-3-0.3-2.3-2.5
				C84.7,66.2,86.8,63.8,88.8,63z"/>
			<path class="st32" d="M92.5,51.2c1.9-0.8,3,0.3,2.3,2.5c-0.7,2.2-2.8,4.6-4.7,5.3c-1.9,0.8-3-0.3-2.3-2.5
				C88.4,54.4,90.5,52,92.5,51.2z"/>
			<path class="st32" d="M96.2,39.4c1.9-0.8,3,0.3,2.3,2.5c-0.7,2.2-2.8,4.6-4.7,5.3c-1.9,0.8-3-0.3-2.3-2.5
				C92.1,42.6,94.2,40.2,96.2,39.4z"/>
			<path class="st32" d="M99.9,27.6c1.9-0.8,3,0.3,2.3,2.5c-0.7,2.2-2.8,4.6-4.7,5.3c-1.9,0.8-3-0.3-2.3-2.5
				C95.8,30.8,97.9,28.4,99.9,27.6z"/>
		</g>
		<g>
			<path class="st32" d="M80.6,117.9c1.9-0.8,3,0.3,2.3,2.5c-0.7,2.2-2.8,4.6-4.7,5.3c-1.9,0.8-3-0.3-2.3-2.5
				C76.5,121.1,78.6,118.7,80.6,117.9z"/>
			<path class="st32" d="M84.3,106.1c1.9-0.8,3,0.3,2.3,2.5c-0.7,2.2-2.8,4.6-4.7,5.3c-1.9,0.8-3-0.3-2.3-2.5
				C80.2,109.3,82.3,106.9,84.3,106.1z"/>
			<path class="st32" d="M88,94.3c1.9-0.8,3,0.3,2.3,2.5c-0.7,2.2-2.8,4.6-4.7,5.3c-1.9,0.8-3-0.3-2.3-2.5
				C83.9,97.5,86,95.1,88,94.3z"/>
			<path class="st32" d="M91.7,82.5c1.9-0.8,3,0.3,2.3,2.5c-0.7,2.2-2.8,4.6-4.7,5.3c-1.9,0.8-3-0.3-2.3-2.5
				C87.6,85.7,89.7,83.3,91.7,82.5z"/>
			<path class="st32" d="M95.4,70.7c1.9-0.8,3,0.3,2.3,2.5c-0.7,2.2-2.8,4.6-4.7,5.3c-1.9,0.8-3-0.3-2.3-2.5
				C91.3,73.9,93.5,71.5,95.4,70.7z"/>
			<path class="st32" d="M99.1,58.9c1.9-0.8,3,0.3,2.3,2.5c-0.7,2.2-2.8,4.6-4.7,5.3c-1.9,0.8-3-0.3-2.3-2.5
				C95,62.1,97.2,59.7,99.1,58.9z"/>
			<path class="st32" d="M102.8,47.1c1.9-0.8,3,0.3,2.3,2.5c-0.7,2.2-2.8,4.6-4.7,5.3c-1.9,0.8-3-0.3-2.3-2.5
				C98.7,50.3,100.9,47.9,102.8,47.1z"/>
			<path class="st32" d="M106.5,35.3c1.9-0.8,3,0.3,2.3,2.5c-0.7,2.2-2.8,4.6-4.7,5.3c-1.9,0.8-3-0.3-2.3-2.5
				C102.4,38.4,104.6,36.1,106.5,35.3z"/>
			<path class="st32" d="M110.2,23.5c1.9-0.8,3,0.3,2.3,2.5c-0.7,2.2-2.8,4.6-4.7,5.3c-1.9,0.8-3-0.3-2.3-2.5
				C106.1,26.6,108.3,24.3,110.2,23.5z"/>
		</g>
	</g>
	<g>
		
			<rect x="38.7" y="68.9" transform="matrix(0.9491 0.3148 -0.3148 0.9491 37.9081 -7.2038)" class="st9" width="5.1" height="89.6"/>
		<polygon class="st12" points="111.2,51.1 106.3,49.5 52.9,70.4 57.8,72 		"/>
		<linearGradient id="SVGID_4_" gradientUnits="userSpaceOnUse" x1="29.5854" y1="104.1098" x2="111.2209" y2="104.1098">
			<stop  offset="0" style="stop-color:#FFFFFF"/>
			<stop  offset="1" style="stop-color:#BFBFBF"/>
		</linearGradient>
		<polygon style="fill:url(#SVGID_4_);" points="29.6,157.1 83,136.2 111.2,51.1 57.8,72 		"/>
	</g>
</g>
</svg>
