<svg xmlns="http://www.w3.org/2000/svg" viewBox="0 0 25.47 25.47"><defs><style>.cls-1{fill-rule:evenodd;}</style></defs><g id="Capa_2" data-name="Capa 2"><g id="Capa_1-2" data-name="Capa 1"><path class="cls-1" d="M25.47,12.41A12.53,12.53,0,0,1,6.92,23.27L0,25.47l2.26-6.66a12.26,12.26,0,0,1-1.8-6.4,12.51,12.51,0,0,1,25,0ZM13,2A10.48,10.48,0,0,0,2.45,12.41a10.31,10.31,0,0,0,2,6.11L3.14,22.39l4-1.28a10.53,10.53,0,0,0,16.3-8.7A10.48,10.48,0,0,0,13,2Zm6.31,13.28c-.08-.12-.28-.2-.59-.35s-1.81-.89-2.09-1-.49-.15-.69.15-.8,1-1,1.19-.36.23-.67.08a8.57,8.57,0,0,1-2.46-1.51,9.26,9.26,0,0,1-1.71-2.11c-.18-.3,0-.46.14-.62s.3-.35.46-.53a2,2,0,0,0,.3-.51.55.55,0,0,0,0-.53c-.08-.15-.69-1.65-1-2.26s-.51-.5-.69-.5-.38,0-.58,0a1.14,1.14,0,0,0-.82.38A3.42,3.42,0,0,0,6.87,9.66,5.83,5.83,0,0,0,8.12,12.8a12.41,12.41,0,0,0,5.23,4.59c3.12,1.22,3.12.81,3.68.76a3.1,3.1,0,0,0,2.07-1.44,2.66,2.66,0,0,0,.18-1.45Z"/></g></g></svg>